*
*
G04 PADS 9.3 Build Number: 433611 generated Gerber (RS-274-X) file*
G04 PC Version=2.1*
*
%IN "NU-TINY-SDK-200-100_061"*%
*
%MOIN*%
*
%FSLAX35Y35*%
*
*
*
*
G04 PC Standard Apertures*
*
*
G04 Thermal Relief Aperture macro.*
%AMTER*
1,1,$1,0,0*
1,0,$1-$2,0,0*
21,0,$3,$4,0,0,45*
21,0,$3,$4,0,0,135*
%
*
*
G04 Annular Aperture macro.*
%AMANN*
1,1,$1,0,0*
1,0,$2,0,0*
%
*
*
G04 Odd Aperture macro.*
%AMODD*
1,1,$1,0,0*
1,0,$1-0.005,0,0*
%
*
*
G04 PC Custom Aperture Macros*
*
*
*
*
*
*
G04 PC Aperture Table*
*
%ADD016C,0.01*%
%ADD017C,0.005*%
%ADD018C,0.012*%
%ADD022C,0.006*%
%ADD032C,0.06*%
%ADD033R,0.06X0.06*%
%ADD036C,0.02*%
%ADD037C,0.015*%
%ADD049C,0.001*%
%ADD051C,0.024*%
%ADD052C,0.03*%
%ADD069C,0.048*%
%ADD087O,0.07874X0.05906*%
%ADD090O,0.03X0.07*%
*
*
*
*
G04 PC Circuitry*
G04 Layer Name NU-TINY-SDK-200-100_061 - circuitry*
%LPD*%
*
*
G04 PC Custom Flashes*
G04 Layer Name NU-TINY-SDK-200-100_061 - flashes*
%LPD*%
*
*
G04 PC Circuitry*
G04 Layer Name NU-TINY-SDK-200-100_061 - circuitry*
%LPD*%
*
G54D16*
G01X459016Y183814D02*
X455202Y182500D01*
X457677Y182475*
X457702Y180000*
X459016Y183814*
X457692Y181000D02*
X458046D01*
X457681Y182000D02*
X458391D01*
X456653Y183000D02*
X458736D01*
X456000Y182492D02*
Y182775D01*
X457000Y182482D02*
Y183120D01*
X458000Y180865D02*
Y183464D01*
X459000Y183768D02*
Y183809D01*
X509030Y206603D02*
X510727Y207600D01*
X509525Y207098*
X510027Y208300*
X509030Y206603*
X509263Y207000D02*
X509706D01*
X509851Y208000D02*
X509901D01*
X510000Y207173D02*
Y207296D01*
Y208236D02*
Y208254D01*
X535677Y179000D02*
X537582Y178505D01*
X536377Y179000*
X537582Y179495*
X535677Y179000*
X536377*
X536000Y178916D02*
Y179084D01*
X537000Y178656D02*
Y178744D01*
Y179256D02*
Y179344D01*
X459141Y156061D02*
X457702Y160000D01*
X457677Y157525*
X455202Y157500*
X459141Y156061*
X456570Y157000D02*
X458798D01*
X457681Y158000D02*
X458433D01*
X457692Y159000D02*
X458067D01*
X457702Y160000D02*
X457702D01*
X456000Y157208D02*
Y157508D01*
X457000Y156843D02*
Y157518D01*
X458000Y156478D02*
Y159184D01*
X459000Y156112D02*
Y156447D01*
X459141Y166061D02*
X457702Y170000D01*
X457677Y167525*
X455202Y167500*
X459141Y166061*
X456570Y167000D02*
X458798D01*
X457681Y168000D02*
X458433D01*
X457692Y169000D02*
X458067D01*
X457702Y170000D02*
X457702D01*
X456000Y167208D02*
Y167508D01*
X457000Y166843D02*
Y167518D01*
X458000Y166478D02*
Y169184D01*
X459000Y166112D02*
Y166447D01*
X539017Y182000D02*
X540922Y181505D01*
X539717Y182000*
X540922Y182495*
X539017Y182000*
X539717*
X540000Y181745D02*
Y181884D01*
Y182116D02*
Y182255D01*
X536330Y222703D02*
X538027Y223700D01*
X536825Y223198*
X537327Y224400*
X536330Y222703*
X536504Y223000D02*
X536835D01*
X537092Y224000D02*
X537160D01*
X537000Y223097D02*
Y223271D01*
Y223618D02*
Y223844D01*
X538000Y223684D02*
Y223689D01*
X455202Y180000D02*
X460077Y184875D01*
X487302*
X510727Y208300*
X460202Y155000D02*
X469077D01*
X479077Y165000*
X511077*
X525077Y179000*
X538077*
X460202Y155000D02*
X455202Y160000D01*
X472077Y165000D02*
X460202D01*
X455202Y170000*
X472077Y165000D02*
X474077Y167000D01*
X510077*
X525077Y182000*
X541417*
X534577Y217500D02*
Y220950D01*
X538027Y224400*
X100000Y100000D02*
X623597D01*
Y237795*
X100000*
Y100000*
G54D17*
X134778Y187598D02*
G75*
G03X134778I-5250J0D01*
G01X609393Y173681D02*
G03X609393I-4650J0D01*
G01Y156358D02*
G03X609393I-4650J0D01*
G01X323640Y219773D02*
G03Y220227I-105J227D01*
G01X321054Y222813D02*
G03X323640Y220227I4773J2187D01*
G01X321054Y222813D02*
G03X320600I-227J-104D01*
G01X318014Y220227D02*
G03X320599Y222813I-2187J4773D01*
G01X318014Y220227D02*
G03Y219773I104J-227D01*
G01X320599Y217187D02*
G03X318014Y219773I-4772J-2187D01*
G01X320600Y217187D02*
G03X321054I227J104D01*
G01X323640Y219773D02*
G03X321054Y217187I2187J-4773D01*
G01X333640Y219773D02*
G03Y220227I-105J227D01*
G01X331054Y222813D02*
G03X333640Y220227I4773J2187D01*
G01X331054Y222813D02*
G03X330600I-227J-104D01*
G01X328014Y220227D02*
G03X330599Y222813I-2187J4773D01*
G01X328014Y220227D02*
G03Y219773I104J-227D01*
G01X330599Y217187D02*
G03X328014Y219773I-4772J-2187D01*
G01X330600Y217187D02*
G03X331054I227J104D01*
G01X333640Y219773D02*
G03X331054Y217187I2187J-4773D01*
G01X353640Y219773D02*
G03Y220227I-105J227D01*
G01X351054Y222813D02*
G03X353640Y220227I4773J2187D01*
G01X351054Y222813D02*
G03X350600I-227J-104D01*
G01X348014Y220227D02*
G03X350599Y222813I-2187J4773D01*
G01X348014Y220227D02*
G03Y219773I104J-227D01*
G01X350599Y217187D02*
G03X348014Y219773I-4772J-2187D01*
G01X350600Y217187D02*
G03X351054I227J104D01*
G01X353640Y219773D02*
G03X351054Y217187I2187J-4773D01*
G01X148640Y219773D02*
G03Y220227I-105J227D01*
G01X146054Y222813D02*
G03X148640Y220227I4773J2187D01*
G01X146054Y222813D02*
G03X145600I-227J-104D01*
G01X143014Y220227D02*
G03X145599Y222813I-2187J4773D01*
G01X143014Y220227D02*
G03Y219773I104J-227D01*
G01X145599Y217187D02*
G03X143014Y219773I-4772J-2187D01*
G01X145600Y217187D02*
G03X146054I227J104D01*
G01X148640Y219773D02*
G03X146054Y217187I2187J-4773D01*
G01X258640Y119773D02*
G03Y120227I-105J227D01*
G01X256054Y122813D02*
G03X258640Y120227I4773J2187D01*
G01X256054Y122813D02*
G03X255600I-227J-104D01*
G01X253014Y120227D02*
G03X255599Y122813I-2187J4773D01*
G01X253014Y120227D02*
G03Y119773I104J-227D01*
G01X255599Y117187D02*
G03X253014Y119773I-4772J-2187D01*
G01X255600Y117187D02*
G03X256054I227J104D01*
G01X258640Y119773D02*
G03X256054Y117187I2187J-4773D01*
G01X413640Y119773D02*
G03Y120227I-105J227D01*
G01X411054Y122813D02*
G03X413640Y120227I4773J2187D01*
G01X411054Y122813D02*
G03X410600I-227J-104D01*
G01X408014Y120227D02*
G03X410599Y122813I-2187J4773D01*
G01X408014Y120227D02*
G03Y119773I104J-227D01*
G01X410599Y117187D02*
G03X408014Y119773I-4772J-2187D01*
G01X410600Y117187D02*
G03X411054I227J104D01*
G01X413640Y119773D02*
G03X411054Y117187I2187J-4773D01*
G01X443077Y106457D02*
Y146838D01*
G03X442622Y146981I-250J-0*
G01X433554Y147813D02*
G03X442622Y146981I4773J2187D01*
G01X433554Y147813D02*
G03X433100I-227J-104D01*
G01X426140Y154773D02*
G03X433099Y147813I2187J-4773D01*
G01X426140Y154773D02*
G03Y155227I-105J227D01*
G01Y164773D02*
G03Y155227I2187J-4773D01*
G01Y164773D02*
G03Y165227I-105J227D01*
G01Y174773D02*
G03Y165227I2187J-4773D01*
G01Y174773D02*
G03Y175227I-105J227D01*
G01X425315Y184300D02*
G03X426140Y175227I3012J-4300D01*
G01X425315Y184300D02*
G03X425187Y184754I-144J205D01*
G01X423077Y187000D02*
G03X425187Y184754I2250J0D01*
G01X423077Y187000D02*
Y193000D01*
X425327Y195250D02*
G03X423077Y193000I-0J-2250D01*
G01X425327Y195250D02*
X431327D01*
X433572Y193140D02*
G03X431327Y195250I-2245J-140D01*
G01X433572Y193140D02*
G03X434027Y193012I250J15D01*
G01X439854Y195023D02*
G03X434027Y193012I-1527J-5023D01*
G01X439854Y195023D02*
G03X440177Y195262I73J239D01*
G01Y198340*
G03X440104Y198517I-250J0*
G01X438997Y199624*
X438250Y201427D02*
G03X438997Y199624I2550J-0D01*
G01X438250Y201427D02*
Y209948D01*
G03X437901Y210177I-250J-0*
G01X431054Y212813D02*
G03X437901Y210177I4773J2187D01*
G01X431054Y212813D02*
G03X430600I-227J-104D01*
G01X421054D02*
G03X430599I4773J2187D01*
G01X421054D02*
G03X420600I-227J-104D01*
G01X411054D02*
G03X420599I4773J2187D01*
G01X411054D02*
G03X410600I-227J-104D01*
G01X401054D02*
G03X410599I4773J2187D01*
G01X401054D02*
G03X400600I-227J-104D01*
G01X391054D02*
G03X400599I4773J2187D01*
G01X391054D02*
G03X390600I-227J-104D01*
G01X381054D02*
G03X390599I4773J2187D01*
G01X381054D02*
G03X380600I-227J-104D01*
G01X371054D02*
G03X380599I4773J2187D01*
G01X371054D02*
G03X370600I-227J-104D01*
G01X361054D02*
G03X370599I4773J2187D01*
G01X361054D02*
G03X360600I-227J-104D01*
G01X351054D02*
G03X360599I4773J2187D01*
G01X351054D02*
G03X350600I-227J-104D01*
G01X344198Y210009D02*
G03X350599Y212813I1629J4991D01*
G01X344198Y210009D02*
G03X343912Y209909I-77J-238D01*
G01X343800Y209750D02*
G03X343912Y209909I-2600J1950D01*
G01X343800Y209750D02*
G03X343750Y209600I200J-150D01*
G01Y193257*
G03X343823Y193080I250J-0*
G01X353048Y183855*
G03X353329Y183805I177J177*
G01X358650Y180400D02*
G03X353329Y183805I-3750J0D01*
G01X358650Y180400D02*
Y176700D01*
Y173800*
X351150D02*
G03X358650I3750J0D01*
G01X351150D02*
Y175043D01*
G03X351077Y175220I-250J0*
G01X337348Y188948*
X336250Y191600D02*
G03X337348Y188948I3750J0D01*
G01X336250Y191600D02*
Y209503D01*
G03X335992Y209753I-250J-0*
G01X331054Y212813D02*
G03X335992Y209753I4773J2187D01*
G01X331054Y212813D02*
G03X330600I-227J-104D01*
G01X321054D02*
G03X330599I4773J2187D01*
G01X321054D02*
G03X320600I-227J-104D01*
G01X313640Y219773D02*
G03X320599Y212813I2187J-4773D01*
G01X313640Y219773D02*
G03Y220227I-105J227D01*
G01X320599Y227187D02*
G03X313640Y220227I-4772J-2187D01*
G01X320600Y227187D02*
G03X321054I227J104D01*
G01X330599D02*
G03X321054I-4772J-2187D01*
G01X330600D02*
G03X331054I227J104D01*
G01X340599D02*
G03X331054I-4772J-2187D01*
G01X340600D02*
G03X341054I227J104D01*
G01X345276Y230221D02*
G03X341054Y227187I551J-5221D01*
G01X345276Y230221D02*
G03X345336Y230235I-26J249D01*
G01X348614Y231427*
G03X348706Y231485I-85J235*
G01X350024Y232803*
X350309Y233049D02*
G03X350024Y232803I1518J-2049D01*
G01X350309Y233049D02*
G03X350160Y233500I-149J201D01*
G01X104676*
G03X104499Y233427I-0J-250*
G01X102823Y231751*
G03X102750Y231574I177J-177*
G01Y209985*
G03X103132Y209773I250J-0*
G01Y200857D02*
G03Y209773I2774J4458D01*
G01Y200857D02*
G03X102750Y200645I-132J-212D01*
G01Y192268*
G03X103132Y192056I250J0*
G01Y183141D02*
G03Y192056I2774J4457D01*
G01Y183141D02*
G03X102750Y182928I-132J-213D01*
G01Y105926*
G03X102823Y105749I250J-0*
G01X104499Y104073*
G03X104676Y104000I177J177*
G01X440620*
G03X440796Y104073I-0J250*
G01X443004Y106280*
G03X443077Y106457I-177J177*
G01X619327Y134305D02*
Y231043D01*
G03X619254Y231220I-250J-0*
G01X617046Y233427*
G03X616870Y233500I-176J-177*
G01X453534*
G03X453357Y233427I-0J-250*
G01X451150Y231220*
G03X451077Y231043I177J-177*
G01Y195342*
G03X451414Y195108I250J-0*
G01X452202Y195250D02*
G03X451414Y195108I-0J-2250D01*
G01X452202Y195250D02*
X458202D01*
X460447Y193140D02*
G03X458202Y195250I-2245J-140D01*
G01X460447Y193140D02*
G03X460902Y193012I250J15D01*
G01X470044Y187972D02*
G03X460902Y193012I-4842J2028D01*
G01X470044Y187972D02*
G03X470275Y187625I231J-97D01*
G01X486059*
G03X486236Y187698I0J250*
G01X506814Y208276*
G03X506853Y208327I-177J177*
G01X507410Y209275*
G03X507433Y209327I-215J127*
G01X513761Y209942D02*
G03X507433Y209327I-3034J-1642D01*
G01X513761Y209942D02*
G03X514158Y209884I220J119D01*
G01X516925Y212652*
X519577Y213750D02*
G03X516925Y212652I-0J-3750D01*
G01X519577Y213750D02*
X520334D01*
G03X520527Y214159I0J250*
G01X529349Y219687D02*
G03X520527Y214159I-4772J-2187D01*
G01X529350Y219687D02*
G03X529804I227J104D01*
G01X532022Y222086D02*
G03X529804Y219687I2555J-4586D01*
G01X532022Y222086D02*
G03X532123Y222192I-122J219D01*
G01X532632Y222895D02*
G03X532123Y222192I1945J-1945D01*
G01X532632Y222895D02*
X534114Y224376D01*
G03X534153Y224427I-177J177*
G01X534710Y225375*
G03X534733Y225427I-215J127*
G01X539054Y221106D02*
G03X534733Y225427I-1027J3294D01*
G01X539054Y221106D02*
G03X539002Y221083I75J-238D01*
G01X538861Y221001*
G03X538787Y220636I127J-216*
G01X539349Y219687D02*
G03X538787Y220636I-4772J-2187D01*
G01X539350Y219687D02*
G03X539804I227J104D01*
G01X549349D02*
G03X539804I-4772J-2187D01*
G01X549350D02*
G03X549804I227J104D01*
G01X558877Y220512D02*
G03X549804Y219687I-4300J-3012D01*
G01X558877Y220512D02*
G03X559331Y220640I205J143D01*
G01X561577Y222750D02*
G03X559331Y220640I-0J-2250D01*
G01X561577Y222750D02*
X567577D01*
X569827Y220500D02*
G03X567577Y222750I-2250J0D01*
G01X569827Y220500D02*
Y214500D01*
X567577Y212250D02*
G03X569827Y214500I-0J2250D01*
G01X567577Y212250D02*
X564734D01*
G03X564557Y212177I-0J-250*
G01X562557Y210177*
G03Y209823I177J-177*
G01X573728Y198652*
X568425Y193348D02*
G03X573728Y198652I2652J2652D01*
G01X568425Y193348D02*
X555597Y206177D01*
G03X555420Y206250I-177J-177*
G01X548327*
X533077*
X526077*
X521234*
G03X521057Y206177I-0J-250*
G01X501978Y187098*
X495689Y188838D02*
G03X501978Y187098I3638J912D01*
G01X495689Y188838D02*
G03X495270Y188954I-242J-61D01*
G01X489246Y182930*
X487302Y182125D02*
G03X489246Y182930I-0J2750D01*
G01X487302Y182125D02*
X470372D01*
G03X470137Y181790I0J-250*
G01X467389Y175227D02*
G03X470137Y181790I-2187J4773D01*
G01X467389Y175227D02*
G03Y174773I104J-227D01*
G01X470092Y168091D02*
G03X467389Y174773I-4890J1909D01*
G01X470092Y168091D02*
G03X470325Y167750I233J-91D01*
G01X470834*
G03X471011Y167823I0J250*
G01X472132Y168945*
X474077Y169750D02*
G03X472132Y168945I-0J-2750D01*
G01X474077Y169750D02*
X508834D01*
G03X509011Y169823I0J250*
G01X523132Y183945*
X525077Y184750D02*
G03X523132Y183945I-0J-2750D01*
G01X525077Y184750D02*
X538634D01*
G03X538697Y184758I-0J250*
G01X539762Y185035*
G03X539815Y185055I-63J242*
G01X541692Y178561D02*
G03X539815Y185055I-275J3439D01*
G01X541692Y178561D02*
G03X541467Y178358I20J-249D01*
G01X536474Y175945D02*
G03X541467Y178358I1603J3055D01*
G01X536474Y175945D02*
G03X536421Y175965I-116J-222D01*
G01X535356Y176242*
G03X535293Y176250I-63J-242*
G01X526319*
G03X526143Y176177I0J-250*
G01X513021Y163055*
X511077Y162250D02*
G03X513021Y163055I-0J2750D01*
G01X511077Y162250D02*
X480319D01*
G03X480143Y162177I0J-250*
G01X471021Y153055*
X470133Y152461D02*
G03X471021Y153055I-1056J2539D01*
G01X470133Y152461D02*
G03X470001Y152129I96J-231D01*
G01X460429Y147813D02*
G03X470001Y152129I4773J2187D01*
G01X460429Y147813D02*
G03X459975I-227J-104D01*
G01X451503Y146274D02*
G03X459974Y147813I3699J3726D01*
G01X451503Y146274D02*
G03X451077Y146097I-176J-177D01*
G01Y106457*
G03X451150Y106280I250J0*
G01X453357Y104073*
G03X453534Y104000I177J177*
G01X612841*
G03X613020Y104425I0J250*
G01X612377Y106000D02*
G03X613020Y104425I2250J0D01*
G01X612377Y106000D02*
Y112000D01*
X614024Y114168D02*
G03X612377Y112000I603J-2168D01*
G01X614024Y114168D02*
G03X614009Y114653I-67J241D01*
G01X611255Y115244*
G03X611202Y115250I-53J-244*
G01X534077*
X531425Y116348D02*
G03X534077Y115250I2652J2652D01*
G01X531425Y116348D02*
X530597Y117177D01*
G03X530420Y117250I-177J-177*
G01X517477*
X516306Y117437D02*
G03X517477Y117250I1171J3563D01*
G01X516306Y117437D02*
G03X516228Y117450I-78J-237D01*
G01X513777*
Y124950D02*
G03Y117450I-0J-3750D01*
G01Y124950D02*
X517277D01*
X518448Y124763D02*
G03X517277Y124950I-1171J-3563D01*
G01X518448Y124763D02*
G03X518526Y124750I78J237D01*
G01X532077*
X534728Y123652D02*
G03X532077Y124750I-2651J-2652D01*
G01X534728Y123652D02*
X535557Y122823D01*
G03X535734Y122750I177J177*
G01X611202*
G03X611255Y122756I0J250*
G01X615003Y123560*
G03X615072Y123587I-53J245*
G01X615440Y123773D02*
G03X615072Y123587I2187J-4773D01*
G01X615440Y123773D02*
G03Y124227I-105J227D01*
G01X619011Y134064D02*
G03X615440Y124227I-1384J-5064D01*
G01X619011Y134064D02*
G03X619327Y134305I66J241D01*
G01X134778Y187598D02*
G03X134778I-5250J0D01*
G01X116527Y111988D02*
G03Y118012I4300J3012D01*
G01Y111988D02*
G03X116072Y111860I-205J-143D01*
G01X113827Y109750D02*
G03X116072Y111860I-0J2250D01*
G01X113827Y109750D02*
X107827D01*
X105577Y112000D02*
G03X107827Y109750I2250J0D01*
G01X105577Y112000D02*
Y118000D01*
X107827Y120250D02*
G03X105577Y118000I-0J-2250D01*
G01X107827Y120250D02*
X113827D01*
X116072Y118140D02*
G03X113827Y120250I-2245J-140D01*
G01X116072Y118140D02*
G03X116527Y118012I250J15D01*
G01X279221Y195131D02*
G03X272699Y196019I-3121J1469D01*
G01X279221Y195131D02*
G03X279203Y195077I227J-107D01*
G01X278956Y193923*
G03X278950Y193871I244J-52*
G01Y184300*
X278115Y182285D02*
G03X278950Y184300I-2015J2015D01*
G01X278115Y182285D02*
X266815Y170985D01*
X264800Y170150D02*
G03X266815Y170985I0J2850D01*
G01X264800Y170150D02*
X201717D01*
G03X201474Y169959I0J-250*
G01X196417Y165978D02*
G03X201474Y169959I0J5203D01*
G01X196417Y165978D02*
X194449D01*
X190671Y174758D02*
G03X194449Y165978I3778J-3577D01*
G01X190671Y174758D02*
G03X190653Y175119I-182J172D01*
G01X194055Y184258D02*
G03X190653Y175119I0J-5203D01*
G01X194055Y184258D02*
X195843D01*
G03X196069Y184613I-0J250*
G01X198032Y189309D02*
G03X196069Y184613I1168J-3246D01*
G01X198032Y189309D02*
G03X198083Y189334I-85J235D01*
G01X199073Y189975*
G03X199114Y190008I-135J210*
G01X199114D02*
X217877Y208770D01*
G03X217950Y208947I-177J177*
G01Y210475*
G03X217842Y210681I-250J0*
G01X216054Y212813D02*
G03X217842Y210681I4773J2187D01*
G01X216054Y212813D02*
G03X215600I-227J-104D01*
G01X206054D02*
G03X215599I4773J2187D01*
G01X206054D02*
G03X205600I-227J-104D01*
G01X196054D02*
G03X205599I4773J2187D01*
G01X196054D02*
G03X195600I-227J-104D01*
G01X186054D02*
G03X195599I4773J2187D01*
G01X186054D02*
G03X185600I-227J-104D01*
G01X176054D02*
G03X185599I4773J2187D01*
G01X176054D02*
G03X175600I-227J-104D01*
G01X166054D02*
G03X175599I4773J2187D01*
G01X166054D02*
G03X165600I-227J-104D01*
G01X156054D02*
G03X165599I4773J2187D01*
G01X156054D02*
G03X155600I-227J-104D01*
G01X150979Y209752D02*
G03X155599Y212813I-152J5248D01*
G01X150979Y209752D02*
G03X150809Y209679I7J-250D01*
G01X148378Y207248*
X145727Y206150D02*
G03X148378Y207248I-0J3750D01*
G01X145727Y206150D02*
X140827D01*
X137627*
X134975Y207248D02*
G03X137627Y206150I2652J2652D01*
G01X134975Y207248D02*
X134885Y207338D01*
G03X134473Y207078I-177J-176*
G01X131290Y210260D02*
G03X134473Y207078I-1762J-4945D01*
G01X131290Y210260D02*
G03X131551Y210672I84J236D01*
G01X124618Y217605*
G03X124577Y217639I-177J-176*
G01X121357Y219720*
G03X121290Y219750I-135J-210*
G01X118427Y221788D02*
G03X121290Y219750I4300J3012D01*
G01X118427Y221788D02*
G03X117972Y221660I-205J-143D01*
G01X115727Y219550D02*
G03X117972Y221660I-0J2250D01*
G01X115727Y219550D02*
X109727D01*
X107477Y221800D02*
G03X109727Y219550I2250J0D01*
G01X107477Y221800D02*
Y227800D01*
X109727Y230050D02*
G03X107477Y227800I-0J-2250D01*
G01X109727Y230050D02*
X115727D01*
X117972Y227940D02*
G03X115727Y230050I-2245J-140D01*
G01X117972Y227940D02*
G03X118427Y227812I250J15D01*
G01X127776Y226237D02*
G03X118427Y227812I-5049J-1437D01*
G01X127776Y226237D02*
G03X127807Y226169I241J68D01*
G01X129888Y222950*
G03X129921Y222909I210J136*
G01X135671Y217159*
G03X136074Y217230I177J177*
G01X138640Y219773D02*
G03X136074Y217230I2187J-4773D01*
G01X138640Y219773D02*
G03Y220227I-105J227D01*
G01X145599Y227187D02*
G03X138640Y220227I-4772J-2187D01*
G01X145600Y227187D02*
G03X146054I227J104D01*
G01X155599D02*
G03X146054I-4772J-2187D01*
G01X155600D02*
G03X156054I227J104D01*
G01X165599D02*
G03X156054I-4772J-2187D01*
G01X165600D02*
G03X166054I227J104D01*
G01X175599D02*
G03X166054I-4772J-2187D01*
G01X175600D02*
G03X176054I227J104D01*
G01X185599D02*
G03X176054I-4772J-2187D01*
G01X185600D02*
G03X186054I227J104D01*
G01X195599D02*
G03X186054I-4772J-2187D01*
G01X195600D02*
G03X196054I227J104D01*
G01X205599D02*
G03X196054I-4772J-2187D01*
G01X205600D02*
G03X206054I227J104D01*
G01X215599D02*
G03X206054I-4772J-2187D01*
G01X215600D02*
G03X216054I227J104D01*
G01X225599D02*
G03X216054I-4772J-2187D01*
G01X225600D02*
G03X226054I227J104D01*
G01X235599D02*
G03X226054I-4772J-2187D01*
G01X235600D02*
G03X236054I227J104D01*
G01X245599D02*
G03X236054I-4772J-2187D01*
G01X245600D02*
G03X246054I227J104D01*
G01X255127Y228012D02*
G03X246054Y227187I-4300J-3012D01*
G01X255127Y228012D02*
G03X255581Y228140I205J143D01*
G01X257827Y230250D02*
G03X255581Y228140I-0J-2250D01*
G01X257827Y230250D02*
X263827D01*
X266077Y228000D02*
G03X263827Y230250I-2250J0D01*
G01X266077Y228000D02*
Y222000D01*
X263967Y219754D02*
G03X266077Y222000I-140J2246D01*
G01X263967Y219754D02*
G03X263839Y219300I15J-249D01*
G01X256054Y212813D02*
G03X263839Y219300I4773J2187D01*
G01X256054Y212813D02*
G03X255600I-227J-104D01*
G01X246054D02*
G03X255599I4773J2187D01*
G01X246054D02*
G03X245600I-227J-104D01*
G01X236054D02*
G03X245599I4773J2187D01*
G01X236054D02*
G03X235600I-227J-104D01*
G01X226054D02*
G03X235599I4773J2187D01*
G01X226054D02*
G03X225600I-227J-104D01*
G01X223760Y210646D02*
G03X225599Y212813I-2933J4354D01*
G01X223760Y210646D02*
G03X223650Y210439I140J-207D01*
G01Y207663*
X222815Y205648D02*
G03X223650Y207663I-2015J2015D01*
G01X222815Y205648D02*
X203145Y185977D01*
G03X203112Y185936I177J-176*
G01X202471Y184946*
X202471D02*
G03X202446Y184895I210J-136D01*
G01X200170Y182752D02*
G03X202446Y184895I-970J3311D01*
G01X200170Y182752D02*
G03X200047Y182354I70J-240D01*
G01X201189Y178430D02*
G03X200047Y182354I-5165J625D01*
G01X201189Y178430D02*
G03X201437Y178150I248J-30D01*
G01X262316*
G03X262493Y178223I-0J250*
G01X270477Y186207*
G03X270550Y186384I-177J177*
G01Y189671*
G03X270544Y189723I-250J-0*
G01X270297Y190877*
G03X270279Y190931I-245J-53*
G01X272517Y195735D02*
G03X270279Y190931I883J-3335D01*
G01X272517Y195735D02*
G03X272699Y196019I-64J242D01*
G01X263014Y120227D02*
G03X256054Y127187I-2187J4773D01*
G01X263014Y120227D02*
G03Y119773I104J-227D01*
G01X256054Y112813D02*
G03X263014Y119773I4773J2187D01*
G01X256054Y112813D02*
G03X255600I-227J-104D01*
G01X246054D02*
G03X255599I4773J2187D01*
G01X246054D02*
G03X245600I-227J-104D01*
G01X236054D02*
G03X245599I4773J2187D01*
G01X236054D02*
G03X235600I-227J-104D01*
G01X226054D02*
G03X235599I4773J2187D01*
G01X226054D02*
G03X225600I-227J-104D01*
G01X216054D02*
G03X225599I4773J2187D01*
G01X216054D02*
G03X215600I-227J-104D01*
G01X206054D02*
G03X215599I4773J2187D01*
G01X206054D02*
G03X205600I-227J-104D01*
G01X196054D02*
G03X205599I4773J2187D01*
G01X196054D02*
G03X195600I-227J-104D01*
G01X186054D02*
G03X195599I4773J2187D01*
G01X186054D02*
G03X185600I-227J-104D01*
G01X176054D02*
G03X185599I4773J2187D01*
G01X176054D02*
G03X175600I-227J-104D01*
G01X166054D02*
G03X175599I4773J2187D01*
G01X166054D02*
G03X165600I-227J-104D01*
G01X156054D02*
G03X165599I4773J2187D01*
G01X156054D02*
G03X155600I-227J-104D01*
G01X146527Y111988D02*
G03X155599Y112813I4300J3012D01*
G01X146527Y111988D02*
G03X146072Y111860I-205J-143D01*
G01X143827Y109750D02*
G03X146072Y111860I-0J2250D01*
G01X143827Y109750D02*
X137827D01*
X135577Y112000D02*
G03X137827Y109750I2250J0D01*
G01X135577Y112000D02*
Y118000D01*
X137687Y120246D02*
G03X135577Y118000I140J-2246D01*
G01X137687Y120246D02*
G03X137815Y120700I-16J249D01*
G01X145599Y127187D02*
G03X137815Y120700I-4772J-2187D01*
G01X145600Y127187D02*
G03X146054I227J104D01*
G01X155599D02*
G03X146054I-4772J-2187D01*
G01X155600D02*
G03X156054I227J104D01*
G01X165599D02*
G03X156054I-4772J-2187D01*
G01X165600D02*
G03X166054I227J104D01*
G01X175599D02*
G03X166054I-4772J-2187D01*
G01X175600D02*
G03X176054I227J104D01*
G01X185599D02*
G03X176054I-4772J-2187D01*
G01X185600D02*
G03X186054I227J104D01*
G01X195599D02*
G03X186054I-4772J-2187D01*
G01X195600D02*
G03X196054I227J104D01*
G01X205599D02*
G03X196054I-4772J-2187D01*
G01X205600D02*
G03X206054I227J104D01*
G01X215599D02*
G03X206054I-4772J-2187D01*
G01X215600D02*
G03X216054I227J104D01*
G01X225599D02*
G03X216054I-4772J-2187D01*
G01X225600D02*
G03X226054I227J104D01*
G01X235599D02*
G03X226054I-4772J-2187D01*
G01X235600D02*
G03X236054I227J104D01*
G01X245599D02*
G03X236054I-4772J-2187D01*
G01X245600D02*
G03X246054I227J104D01*
G01X255599D02*
G03X246054I-4772J-2187D01*
G01X255600D02*
G03X256054I227J104D01*
G01X291220Y208363D02*
G03X285380I-2920J1837D01*
G01X291220D02*
G03X291197Y208315I212J-133D01*
G01X290865Y207395*
G03X290850Y207310I235J-85*
G01Y205200*
X290103Y203397D02*
G03X290850Y205200I-1803J1803D01*
G01X290103Y203397D02*
X287146Y200440D01*
G03X287097Y200370I177J-177*
G01X286681Y199485*
G03X286664Y199434I227J-106*
G01X282534Y203564D02*
G03X286664Y199434I766J-3364D01*
G01X282534Y203564D02*
G03X282585Y203581I-55J244D01*
G01X283470Y203997*
G03X283540Y204046I-107J226*
G01X285677Y206183*
G03X285750Y206360I-177J177*
G01Y207310*
G03X285735Y207395I-250J0*
G01X285403Y208315*
G03X285380Y208363I-235J-85*
G01X438014Y120227D02*
G03X431054Y127187I-2187J4773D01*
G01X438014Y120227D02*
G03Y119773I104J-227D01*
G01X431054Y112813D02*
G03X438014Y119773I4773J2187D01*
G01X431054Y112813D02*
G03X430600I-227J-104D01*
G01X421054D02*
G03X430599I4773J2187D01*
G01X421054D02*
G03X420600I-227J-104D01*
G01X411054D02*
G03X420599I4773J2187D01*
G01X411054D02*
G03X410600I-227J-104D01*
G01X401054D02*
G03X410599I4773J2187D01*
G01X401054D02*
G03X400600I-227J-104D01*
G01X391054D02*
G03X400599I4773J2187D01*
G01X391054D02*
G03X390600I-227J-104D01*
G01X381054D02*
G03X390599I4773J2187D01*
G01X381054D02*
G03X380600I-227J-104D01*
G01X371054D02*
G03X380599I4773J2187D01*
G01X371054D02*
G03X370600I-227J-104D01*
G01X361054D02*
G03X370599I4773J2187D01*
G01X361054D02*
G03X360600I-227J-104D01*
G01X351054D02*
G03X360599I4773J2187D01*
G01X351054D02*
G03X350600I-227J-104D01*
G01X341054D02*
G03X350599I4773J2187D01*
G01X341054D02*
G03X340600I-227J-104D01*
G01X331054D02*
G03X340599I4773J2187D01*
G01X331054D02*
G03X330600I-227J-104D01*
G01X321527Y111988D02*
G03X330599Y112813I4300J3012D01*
G01X321527Y111988D02*
G03X321072Y111860I-205J-143D01*
G01X318827Y109750D02*
G03X321072Y111860I-0J2250D01*
G01X318827Y109750D02*
X312827D01*
X310577Y112000D02*
G03X312827Y109750I2250J0D01*
G01X310577Y112000D02*
Y118000D01*
X312687Y120246D02*
G03X310577Y118000I140J-2246D01*
G01X312687Y120246D02*
G03X312815Y120700I-16J249D01*
G01X320599Y127187D02*
G03X312815Y120700I-4772J-2187D01*
G01X320600Y127187D02*
G03X321054I227J104D01*
G01X330599D02*
G03X321054I-4772J-2187D01*
G01X330600D02*
G03X331054I227J104D01*
G01X340599D02*
G03X331054I-4772J-2187D01*
G01X340600D02*
G03X341054I227J104D01*
G01X350599D02*
G03X341054I-4772J-2187D01*
G01X350600D02*
G03X351054I227J104D01*
G01X360599D02*
G03X351054I-4772J-2187D01*
G01X360600D02*
G03X361054I227J104D01*
G01X370599D02*
G03X361054I-4772J-2187D01*
G01X370600D02*
G03X371054I227J104D01*
G01X380599D02*
G03X371054I-4772J-2187D01*
G01X380600D02*
G03X381054I227J104D01*
G01X390599D02*
G03X381054I-4772J-2187D01*
G01X390600D02*
G03X391054I227J104D01*
G01X400599D02*
G03X391054I-4772J-2187D01*
G01X400600D02*
G03X401054I227J104D01*
G01X410599D02*
G03X401054I-4772J-2187D01*
G01X410600D02*
G03X411054I227J104D01*
G01X420599D02*
G03X411054I-4772J-2187D01*
G01X420600D02*
G03X421054I227J104D01*
G01X430599D02*
G03X421054I-4772J-2187D01*
G01X430600D02*
G03X431054I227J104D01*
G01X579914Y173927D02*
G03X575540I-2187J4773D01*
G01X579914D02*
G03Y173473I104J-227D01*
G01Y163927D02*
G03Y173473I-2187J4773D01*
G01Y163927D02*
G03Y163473I104J-227D01*
G01X580739Y154400D02*
G03X579914Y163473I-3012J4300D01*
G01X580739Y154400D02*
G03X580867Y153946I143J-205D01*
G01X582977Y151700D02*
G03X580867Y153946I-2250J0D01*
G01X582977Y151700D02*
Y145700D01*
X580727Y143450D02*
G03X582977Y145700I-0J2250D01*
G01X580727Y143450D02*
X574727D01*
X572477Y145700D02*
G03X574727Y143450I2250J0D01*
G01X572477Y145700D02*
Y151700D01*
X574587Y153946D02*
G03X572477Y151700I140J-2246D01*
G01X574587Y153946D02*
G03X574715Y154400I-16J249D01*
G01X575540Y163473D02*
G03X574715Y154400I2187J-4773D01*
G01X575540Y163473D02*
G03Y163927I-105J227D01*
G01Y173473D02*
G03Y163927I2187J-4773D01*
G01Y173473D02*
G03Y173927I-105J227D01*
G01X609393Y173681D02*
G03X609393I-4650J0D01*
G01Y156358D02*
G03X609393I-4650J0D01*
G01X317956Y220190D02*
X323698D01*
X318084Y219740D02*
X323570D01*
X318751Y220640D02*
X322902D01*
X318853Y219290D02*
X322800D01*
X319330Y221090D02*
X322323D01*
X319407Y218840D02*
X322247D01*
X319775Y221540D02*
X321878D01*
X319836Y218390D02*
X321818D01*
X320128Y221990D02*
X321525D01*
X320176Y217940D02*
X321477D01*
X320410Y222440D02*
X321243D01*
X320449Y217490D02*
X321205D01*
X320655Y222890D02*
X320999D01*
X327956Y220190D02*
X333698D01*
X328084Y219740D02*
X333570D01*
X328751Y220640D02*
X332902D01*
X328853Y219290D02*
X332800D01*
X329330Y221090D02*
X332323D01*
X329407Y218840D02*
X332247D01*
X329775Y221540D02*
X331878D01*
X329836Y218390D02*
X331818D01*
X330128Y221990D02*
X331525D01*
X330176Y217940D02*
X331477D01*
X330410Y222440D02*
X331243D01*
X330449Y217490D02*
X331205D01*
X330655Y222890D02*
X330999D01*
X347956Y220190D02*
X353698D01*
X348084Y219740D02*
X353570D01*
X348751Y220640D02*
X352902D01*
X348853Y219290D02*
X352800D01*
X349330Y221090D02*
X352323D01*
X349407Y218840D02*
X352247D01*
X349775Y221540D02*
X351878D01*
X349836Y218390D02*
X351818D01*
X350128Y221990D02*
X351525D01*
X350176Y217940D02*
X351477D01*
X350410Y222440D02*
X351243D01*
X350449Y217490D02*
X351205D01*
X350655Y222890D02*
X350999D01*
X142956Y220190D02*
X148698D01*
X143084Y219740D02*
X148570D01*
X143751Y220640D02*
X147902D01*
X143853Y219290D02*
X147800D01*
X144330Y221090D02*
X147323D01*
X144407Y218840D02*
X147247D01*
X144775Y221540D02*
X146878D01*
X144836Y218390D02*
X146818D01*
X145128Y221990D02*
X146525D01*
X145176Y217940D02*
X146477D01*
X145410Y222440D02*
X146243D01*
X145449Y217490D02*
X146205D01*
X145655Y222890D02*
X145999D01*
X252956Y120190D02*
X258698D01*
X253084Y119740D02*
X258570D01*
X253751Y120640D02*
X257902D01*
X253853Y119290D02*
X257800D01*
X254330Y121090D02*
X257323D01*
X254407Y118840D02*
X257247D01*
X254775Y121540D02*
X256878D01*
X254836Y118390D02*
X256818D01*
X255128Y121990D02*
X256525D01*
X255176Y117940D02*
X256477D01*
X255410Y122440D02*
X256243D01*
X255449Y117490D02*
X256205D01*
X255655Y122890D02*
X255999D01*
X407956Y120190D02*
X413698D01*
X408084Y119740D02*
X413570D01*
X408751Y120640D02*
X412902D01*
X408853Y119290D02*
X412800D01*
X409330Y121090D02*
X412323D01*
X409407Y118840D02*
X412247D01*
X409775Y121540D02*
X411878D01*
X409836Y118390D02*
X411818D01*
X410128Y121990D02*
X411525D01*
X410176Y117940D02*
X411477D01*
X410410Y122440D02*
X411243D01*
X410449Y117490D02*
X411205D01*
X410655Y122890D02*
X410999D01*
X442449Y146749D02*
X443077D01*
X442050Y146299D02*
X443077D01*
X441541Y145849D02*
X443077D01*
X440855Y145399D02*
X443077D01*
X439757Y144949D02*
X443077D01*
X102750Y144499D02*
X443077D01*
X102750Y144049D02*
X443077D01*
X102750Y143599D02*
X443077D01*
X102750Y143149D02*
X443077D01*
X102750Y142699D02*
X443077D01*
X102750Y142249D02*
X443077D01*
X102750Y141799D02*
X443077D01*
X102750Y141349D02*
X443077D01*
X102750Y140899D02*
X443077D01*
X102750Y140449D02*
X443077D01*
X102750Y139999D02*
X443077D01*
X102750Y139549D02*
X443077D01*
X102750Y139099D02*
X443077D01*
X102750Y138649D02*
X443077D01*
X102750Y138199D02*
X443077D01*
X102750Y137749D02*
X443077D01*
X102750Y137299D02*
X443077D01*
X102750Y136849D02*
X443077D01*
X102750Y136399D02*
X443077D01*
X102750Y135949D02*
X443077D01*
X102750Y135499D02*
X443077D01*
X102750Y135049D02*
X443077D01*
X102750Y134599D02*
X443077D01*
X102750Y134149D02*
X443077D01*
X102750Y133699D02*
X443077D01*
X102750Y133249D02*
X443077D01*
X102750Y132799D02*
X443077D01*
X102750Y132349D02*
X443077D01*
X102750Y131899D02*
X443077D01*
X102750Y131449D02*
X443077D01*
X102750Y130999D02*
X443077D01*
X102750Y130549D02*
X443077D01*
X437078Y130099D02*
X443077D01*
X438267Y129649D02*
X443077D01*
X438979Y129199D02*
X443077D01*
X439502Y128749D02*
X443077D01*
X439911Y128299D02*
X443077D01*
X440237Y127849D02*
X443077D01*
X440497Y127399D02*
X443077D01*
X440702Y126949D02*
X443077D01*
X440858Y126499D02*
X443077D01*
X440971Y126049D02*
X443077D01*
X441043Y125599D02*
X443077D01*
X441075Y125149D02*
X443077D01*
X441068Y124699D02*
X443077D01*
X441023Y124249D02*
X443077D01*
X440938Y123799D02*
X443077D01*
X440810Y123349D02*
X443077D01*
X440638Y122899D02*
X443077D01*
X440415Y122449D02*
X443077D01*
X440134Y121999D02*
X443077D01*
X439783Y121549D02*
X443077D01*
X439340Y121099D02*
X443077D01*
X438764Y120649D02*
X443077D01*
X437966Y120199D02*
X443077D01*
X438066Y119749D02*
X443077D01*
X438841Y119299D02*
X443077D01*
X439398Y118849D02*
X443077D01*
X439828Y118399D02*
X443077D01*
X440170Y117949D02*
X443077D01*
X440444Y117499D02*
X443077D01*
X440661Y117049D02*
X443077D01*
X440827Y116599D02*
X443077D01*
X440950Y116149D02*
X443077D01*
X441030Y115699D02*
X443077D01*
X441071Y115249D02*
X443077D01*
X441073Y114799D02*
X443077D01*
X441036Y114349D02*
X443077D01*
X440960Y113899D02*
X443077D01*
X440842Y113449D02*
X443077D01*
X440680Y112999D02*
X443077D01*
X440469Y112549D02*
X443077D01*
X440202Y112099D02*
X443077D01*
X439868Y111649D02*
X443077D01*
X439448Y111199D02*
X443077D01*
X438907Y110749D02*
X443077D01*
X438164Y110299D02*
X443077D01*
X436840Y109849D02*
X443077D01*
X102750Y109399D02*
X443077D01*
X102750Y108949D02*
X443077D01*
X102750Y108499D02*
X443077D01*
X102750Y108049D02*
X443077D01*
X102750Y107599D02*
X443077D01*
X102750Y107149D02*
X443077D01*
X102750Y106699D02*
X443077D01*
X102750Y106249D02*
X442972D01*
X102785Y105799D02*
X442522D01*
X103223Y105349D02*
X442072D01*
X103673Y104899D02*
X441622D01*
X104123Y104449D02*
X441172D01*
X343750Y198049D02*
X440177D01*
X343750Y197599D02*
X440177D01*
X343750Y197149D02*
X440177D01*
X343750Y196699D02*
X440177D01*
X343750Y196249D02*
X440177D01*
X343750Y195799D02*
X440177D01*
X343750Y195349D02*
X440177D01*
X343750Y198499D02*
X440120D01*
X343750Y198949D02*
X439672D01*
X343750Y199399D02*
X439222D01*
X343750Y199849D02*
X438797D01*
X343750Y200299D02*
X438513D01*
X343750Y200749D02*
X438342D01*
X343750Y201199D02*
X438260D01*
X343799Y209749D02*
X438250D01*
X343750Y209299D02*
X438250D01*
X343750Y208849D02*
X438250D01*
X343750Y208399D02*
X438250D01*
X343750Y207949D02*
X438250D01*
X343750Y207499D02*
X438250D01*
X343750Y207049D02*
X438250D01*
X343750Y206599D02*
X438250D01*
X343750Y206149D02*
X438250D01*
X343750Y205699D02*
X438250D01*
X343750Y205249D02*
X438250D01*
X343750Y204799D02*
X438250D01*
X343750Y204349D02*
X438250D01*
X343750Y203899D02*
X438250D01*
X343750Y203449D02*
X438250D01*
X343750Y202999D02*
X438250D01*
X343750Y202549D02*
X438250D01*
X343750Y202099D02*
X438250D01*
X343750Y201649D02*
X438250D01*
X429757Y144949D02*
X436896D01*
X432534Y194899D02*
X436438D01*
X430855Y145399D02*
X435799D01*
X433048Y194449D02*
X435539D01*
X431541Y145849D02*
X435113D01*
X433343Y193999D02*
X434925D01*
X426840Y109849D02*
X434814D01*
X432050Y146299D02*
X434603D01*
X427078Y130099D02*
X434575D01*
X433509Y193549D02*
X434458D01*
X432449Y146749D02*
X434205D01*
X433578Y193099D02*
X434089D01*
X432767Y147199D02*
X433887D01*
X427950Y210199D02*
X433703D01*
X433021Y147649D02*
X433633D01*
X428164Y110299D02*
X433490D01*
X428267Y129649D02*
X433387D01*
X428764Y210649D02*
X432889D01*
X428907Y110749D02*
X432746D01*
X428979Y129199D02*
X432675D01*
X429340Y211099D02*
X432314D01*
X429448Y111199D02*
X432206D01*
X429502Y128749D02*
X432151D01*
X429783Y211549D02*
X431871D01*
X429868Y111649D02*
X431786D01*
X429911Y128299D02*
X431742D01*
X430134Y211999D02*
X431519D01*
X430202Y112099D02*
X431451D01*
X430237Y127849D02*
X431417D01*
X430415Y212449D02*
X431238D01*
X430469Y112549D02*
X431184D01*
X430497Y127399D02*
X431157D01*
X430664Y212899D02*
X430989D01*
X102750Y144949D02*
X426896D01*
X358650Y175099D02*
X426265D01*
X102750Y154849D02*
X426234D01*
X102750Y165199D02*
X426187D01*
X102750Y164749D02*
X426088D01*
X102750Y155299D02*
X425990D01*
X358650Y174649D02*
X425887D01*
X102750Y145399D02*
X425799D01*
X358650Y175549D02*
X425543D01*
X102750Y154399D02*
X425461D01*
X352355Y184549D02*
X425417D01*
X102750Y165649D02*
X425389D01*
X102750Y164299D02*
X425313D01*
X102750Y155749D02*
X425246D01*
X358650Y174199D02*
X425175D01*
X102750Y145849D02*
X425113D01*
X355518Y184099D02*
X425046D01*
X358650Y175999D02*
X424928D01*
X102750Y153949D02*
X424867D01*
X197530Y166099D02*
X424814D01*
X416840Y109849D02*
X424814D01*
X102750Y163849D02*
X424756D01*
X102750Y156199D02*
X424706D01*
X358650Y173749D02*
X424651D01*
X102750Y146299D02*
X424603D01*
X417078Y130099D02*
X424575D01*
X356773Y183649D02*
X424552D01*
X358650Y176449D02*
X424460D01*
X102750Y153499D02*
X424412D01*
X198786Y166549D02*
X424371D01*
X102750Y163399D02*
X424325D01*
X351905Y184999D02*
X424298D01*
X102750Y156649D02*
X424286D01*
X358616Y173299D02*
X424242D01*
X102750Y146749D02*
X424205D01*
X357396Y183199D02*
X424164D01*
X343750Y194899D02*
X424119D01*
X358650Y176899D02*
X424091D01*
X102750Y153049D02*
X424053D01*
X199512Y166999D02*
X424019D01*
X102750Y162949D02*
X423983D01*
X102750Y157099D02*
X423951D01*
X358527Y172849D02*
X423917D01*
X102750Y147199D02*
X423887D01*
X357823Y182749D02*
X423854D01*
X358650Y177349D02*
X423795D01*
X102750Y152599D02*
X423765D01*
X200042Y167449D02*
X423738D01*
X102750Y162499D02*
X423709D01*
X417950Y210199D02*
X423703D01*
X351455Y185449D02*
X423697D01*
X102750Y157549D02*
X423684D01*
X358378Y172399D02*
X423657D01*
X102750Y147649D02*
X423633D01*
X358134Y182299D02*
X423607D01*
X343750Y194449D02*
X423605D01*
X358650Y177799D02*
X423561D01*
X102750Y152149D02*
X423537D01*
X200454Y167899D02*
X423516D01*
X102750Y162049D02*
X423493D01*
X418164Y110299D02*
X423490D01*
X102750Y157999D02*
X423473D01*
X358161Y171949D02*
X423452D01*
X102750Y148099D02*
X423433D01*
X358359Y181849D02*
X423413D01*
X418267Y129649D02*
X423387D01*
X358650Y178249D02*
X423377D01*
X351005Y185899D02*
X423365D01*
X102750Y151699D02*
X423359D01*
X200782Y168349D02*
X423343D01*
X102750Y161599D02*
X423326D01*
X102750Y158449D02*
X423311D01*
X343750Y193999D02*
X423311D01*
X357861Y171499D02*
X423295D01*
X102750Y148549D02*
X423281D01*
X358515Y181399D02*
X423266D01*
X358650Y178699D02*
X423241D01*
X102750Y151249D02*
X423227D01*
X201043Y168799D02*
X423216D01*
X102750Y161149D02*
X423204D01*
X102750Y158899D02*
X423194D01*
X357448Y171049D02*
X423183D01*
X102750Y148999D02*
X423173D01*
X350555Y186349D02*
X423173D01*
X358610Y180949D02*
X423163D01*
X358650Y179149D02*
X423146D01*
X343750Y193549D02*
X423145D01*
X102750Y150799D02*
X423138D01*
X201248Y169249D02*
X423131D01*
X102750Y160699D02*
X423123D01*
X102750Y159349D02*
X423117D01*
X356853Y170599D02*
X423111D01*
X102750Y149449D02*
X423106D01*
X358649Y180499D02*
X423100D01*
X358650Y179599D02*
X423092D01*
X102750Y150349D02*
X423088D01*
X350105Y186799D02*
X423086D01*
X201404Y169699D02*
X423085D01*
X102750Y160249D02*
X423083D01*
X102750Y159799D02*
X423081D01*
X343806Y193099D02*
X423079D01*
X355755Y170149D02*
X423079D01*
X102750Y149899D02*
X423078D01*
X358650Y180049D02*
X423077D01*
X344255Y192649D02*
X423077D01*
X344705Y192199D02*
X423077D01*
X345155Y191749D02*
X423077D01*
X345605Y191299D02*
X423077D01*
X346055Y190849D02*
X423077D01*
X346505Y190399D02*
X423077D01*
X346955Y189949D02*
X423077D01*
X347405Y189499D02*
X423077D01*
X347855Y189049D02*
X423077D01*
X348305Y188599D02*
X423077D01*
X348755Y188149D02*
X423077D01*
X349205Y187699D02*
X423077D01*
X349655Y187249D02*
X423077D01*
X418764Y210649D02*
X422889D01*
X418907Y110749D02*
X422746D01*
X418979Y129199D02*
X422675D01*
X419340Y211099D02*
X422314D01*
X419448Y111199D02*
X422206D01*
X419502Y128749D02*
X422151D01*
X419783Y211549D02*
X421871D01*
X419868Y111649D02*
X421786D01*
X419911Y128299D02*
X421742D01*
X420134Y211999D02*
X421519D01*
X420202Y112099D02*
X421451D01*
X420237Y127849D02*
X421417D01*
X420415Y212449D02*
X421238D01*
X420469Y112549D02*
X421184D01*
X420497Y127399D02*
X421157D01*
X420664Y212899D02*
X420989D01*
X406840Y109849D02*
X414814D01*
X407078Y130099D02*
X414575D01*
X407950Y210199D02*
X413703D01*
X408164Y110299D02*
X413490D01*
X408267Y129649D02*
X413387D01*
X408764Y210649D02*
X412889D01*
X408907Y110749D02*
X412746D01*
X408979Y129199D02*
X412675D01*
X409340Y211099D02*
X412314D01*
X409448Y111199D02*
X412206D01*
X409502Y128749D02*
X412151D01*
X409783Y211549D02*
X411871D01*
X409868Y111649D02*
X411786D01*
X409911Y128299D02*
X411742D01*
X410134Y211999D02*
X411519D01*
X410202Y112099D02*
X411451D01*
X410237Y127849D02*
X411417D01*
X410415Y212449D02*
X411238D01*
X410469Y112549D02*
X411184D01*
X410497Y127399D02*
X411157D01*
X410664Y212899D02*
X410989D01*
X396840Y109849D02*
X404814D01*
X397078Y130099D02*
X404575D01*
X397950Y210199D02*
X403703D01*
X398164Y110299D02*
X403490D01*
X398267Y129649D02*
X403387D01*
X398764Y210649D02*
X402889D01*
X398907Y110749D02*
X402746D01*
X398979Y129199D02*
X402675D01*
X399340Y211099D02*
X402314D01*
X399448Y111199D02*
X402206D01*
X399502Y128749D02*
X402151D01*
X399783Y211549D02*
X401871D01*
X399868Y111649D02*
X401786D01*
X399911Y128299D02*
X401742D01*
X400134Y211999D02*
X401519D01*
X400202Y112099D02*
X401451D01*
X400237Y127849D02*
X401417D01*
X400415Y212449D02*
X401238D01*
X400469Y112549D02*
X401184D01*
X400497Y127399D02*
X401157D01*
X400664Y212899D02*
X400989D01*
X386840Y109849D02*
X394814D01*
X387078Y130099D02*
X394575D01*
X387950Y210199D02*
X393703D01*
X388164Y110299D02*
X393490D01*
X388267Y129649D02*
X393387D01*
X388764Y210649D02*
X392889D01*
X388907Y110749D02*
X392746D01*
X388979Y129199D02*
X392675D01*
X389340Y211099D02*
X392314D01*
X389448Y111199D02*
X392206D01*
X389502Y128749D02*
X392151D01*
X389783Y211549D02*
X391871D01*
X389868Y111649D02*
X391786D01*
X389911Y128299D02*
X391742D01*
X390134Y211999D02*
X391519D01*
X390202Y112099D02*
X391451D01*
X390237Y127849D02*
X391417D01*
X390415Y212449D02*
X391238D01*
X390469Y112549D02*
X391184D01*
X390497Y127399D02*
X391157D01*
X390664Y212899D02*
X390989D01*
X376840Y109849D02*
X384814D01*
X377078Y130099D02*
X384575D01*
X377950Y210199D02*
X383703D01*
X378164Y110299D02*
X383490D01*
X378267Y129649D02*
X383387D01*
X378764Y210649D02*
X382889D01*
X378907Y110749D02*
X382746D01*
X378979Y129199D02*
X382675D01*
X379340Y211099D02*
X382314D01*
X379448Y111199D02*
X382206D01*
X379502Y128749D02*
X382151D01*
X379783Y211549D02*
X381871D01*
X379868Y111649D02*
X381786D01*
X379911Y128299D02*
X381742D01*
X380134Y211999D02*
X381519D01*
X380202Y112099D02*
X381451D01*
X380237Y127849D02*
X381417D01*
X380415Y212449D02*
X381238D01*
X380469Y112549D02*
X381184D01*
X380497Y127399D02*
X381157D01*
X380664Y212899D02*
X380989D01*
X366840Y109849D02*
X374814D01*
X367078Y130099D02*
X374575D01*
X367950Y210199D02*
X373703D01*
X368164Y110299D02*
X373490D01*
X368267Y129649D02*
X373387D01*
X368764Y210649D02*
X372889D01*
X368907Y110749D02*
X372746D01*
X368979Y129199D02*
X372675D01*
X369340Y211099D02*
X372314D01*
X369448Y111199D02*
X372206D01*
X369502Y128749D02*
X372151D01*
X369783Y211549D02*
X371871D01*
X369868Y111649D02*
X371786D01*
X369911Y128299D02*
X371742D01*
X370134Y211999D02*
X371519D01*
X370202Y112099D02*
X371451D01*
X370237Y127849D02*
X371417D01*
X370415Y212449D02*
X371238D01*
X370469Y112549D02*
X371184D01*
X370497Y127399D02*
X371157D01*
X370664Y212899D02*
X370989D01*
X356840Y109849D02*
X364814D01*
X357078Y130099D02*
X364575D01*
X357950Y210199D02*
X363703D01*
X358164Y110299D02*
X363490D01*
X358267Y129649D02*
X363387D01*
X358764Y210649D02*
X362889D01*
X358907Y110749D02*
X362746D01*
X358979Y129199D02*
X362675D01*
X359340Y211099D02*
X362314D01*
X359448Y111199D02*
X362206D01*
X359502Y128749D02*
X362151D01*
X359783Y211549D02*
X361871D01*
X359868Y111649D02*
X361786D01*
X359911Y128299D02*
X361742D01*
X360134Y211999D02*
X361519D01*
X360202Y112099D02*
X361451D01*
X360237Y127849D02*
X361417D01*
X360415Y212449D02*
X361238D01*
X360469Y112549D02*
X361184D01*
X360497Y127399D02*
X361157D01*
X360664Y212899D02*
X360989D01*
X346840Y109849D02*
X354814D01*
X347078Y130099D02*
X354575D01*
X352805Y184099D02*
X354282D01*
X201692Y170149D02*
X354045D01*
X347950Y210199D02*
X353703D01*
X348164Y110299D02*
X353490D01*
X348267Y129649D02*
X353387D01*
X266335Y170599D02*
X352947D01*
X348764Y210649D02*
X352889D01*
X348907Y110749D02*
X352746D01*
X348979Y129199D02*
X352675D01*
X266879Y171049D02*
X352352D01*
X349340Y211099D02*
X352314D01*
X349448Y111199D02*
X352206D01*
X349502Y128749D02*
X352151D01*
X267329Y171499D02*
X351939D01*
X349783Y211549D02*
X351871D01*
X349868Y111649D02*
X351786D01*
X349911Y128299D02*
X351742D01*
X267779Y171949D02*
X351639D01*
X350134Y211999D02*
X351519D01*
X350202Y112099D02*
X351451D01*
X268229Y172399D02*
X351422D01*
X350237Y127849D02*
X351417D01*
X268679Y172849D02*
X351273D01*
X350415Y212449D02*
X351238D01*
X350469Y112549D02*
X351184D01*
X269129Y173299D02*
X351184D01*
X350497Y127399D02*
X351157D01*
X269579Y173749D02*
X351150D01*
X270479Y174649D02*
X351150D01*
X270029Y174199D02*
X351150D01*
X270929Y175099D02*
X351144D01*
X350664Y212899D02*
X350989D01*
X271379Y175549D02*
X350748D01*
X104221Y233149D02*
X350389D01*
X271829Y175999D02*
X350298D01*
X103771Y232699D02*
X349919D01*
X272279Y176449D02*
X349848D01*
X103321Y232249D02*
X349469D01*
X272729Y176899D02*
X349398D01*
X102871Y231799D02*
X349019D01*
X273179Y177349D02*
X348948D01*
X273629Y177799D02*
X348498D01*
X102750Y231349D02*
X348399D01*
X274079Y178249D02*
X348048D01*
X274529Y178699D02*
X347598D01*
X102750Y230899D02*
X347162D01*
X274979Y179149D02*
X347148D01*
X275429Y179599D02*
X346698D01*
X275879Y180049D02*
X346248D01*
X102750Y230449D02*
X345924D01*
X276329Y180499D02*
X345798D01*
X276779Y180949D02*
X345348D01*
X277229Y181399D02*
X344898D01*
X336840Y109849D02*
X344814D01*
X337078Y130099D02*
X344575D01*
X277679Y181849D02*
X344448D01*
X337432Y229999D02*
X344222D01*
X278129Y182299D02*
X343998D01*
X278491Y182749D02*
X343548D01*
X338164Y110299D02*
X343490D01*
X338267Y129649D02*
X343387D01*
X338448Y229549D02*
X343205D01*
X278729Y183199D02*
X343098D01*
X338907Y110749D02*
X342746D01*
X338979Y129199D02*
X342675D01*
X278875Y183649D02*
X342648D01*
X339108Y229099D02*
X342546D01*
X339448Y111199D02*
X342206D01*
X278943Y184099D02*
X342198D01*
X339502Y128749D02*
X342151D01*
X339602Y228649D02*
X342052D01*
X339868Y111649D02*
X341786D01*
X278950Y184549D02*
X341748D01*
X339911Y128299D02*
X341742D01*
X339990Y228199D02*
X341664D01*
X340202Y112099D02*
X341451D01*
X340237Y127849D02*
X341417D01*
X340300Y227749D02*
X341354D01*
X278950Y184999D02*
X341298D01*
X340469Y112549D02*
X341184D01*
X340497Y127399D02*
X341157D01*
X340547Y227299D02*
X341107D01*
X278950Y185449D02*
X340848D01*
X278950Y185899D02*
X340398D01*
X278950Y186349D02*
X339948D01*
X278950Y186799D02*
X339498D01*
X278950Y187249D02*
X339048D01*
X278950Y187699D02*
X338598D01*
X278950Y188149D02*
X338148D01*
X278950Y188599D02*
X337698D01*
X278950Y189049D02*
X337252D01*
X278950Y189499D02*
X336894D01*
X278950Y189949D02*
X336633D01*
X278950Y190399D02*
X336448D01*
X278950Y190849D02*
X336326D01*
X278950Y191299D02*
X336262D01*
X291630Y209299D02*
X336250D01*
X291474Y208849D02*
X336250D01*
X291242Y208399D02*
X336250D01*
X291065Y207949D02*
X336250D01*
X290902Y207499D02*
X336250D01*
X290850Y207049D02*
X336250D01*
X290850Y206599D02*
X336250D01*
X290850Y206149D02*
X336250D01*
X290850Y205699D02*
X336250D01*
X290850Y205249D02*
X336250D01*
X290818Y204799D02*
X336250D01*
X290704Y204349D02*
X336250D01*
X290493Y203899D02*
X336250D01*
X290154Y203449D02*
X336250D01*
X289705Y202999D02*
X336250D01*
X289255Y202549D02*
X336250D01*
X288805Y202099D02*
X336250D01*
X288355Y201649D02*
X336250D01*
X287905Y201199D02*
X336250D01*
X287455Y200749D02*
X336250D01*
X287064Y200299D02*
X336250D01*
X286852Y199849D02*
X336250D01*
X286656Y199399D02*
X336250D01*
X286515Y198949D02*
X336250D01*
X286301Y198499D02*
X336250D01*
X285997Y198049D02*
X336250D01*
X285566Y197599D02*
X336250D01*
X284910Y197149D02*
X336250D01*
X279549Y196699D02*
X336250D01*
X279532Y196249D02*
X336250D01*
X279456Y195799D02*
X336250D01*
X279315Y195349D02*
X336250D01*
X279165Y194899D02*
X336250D01*
X279068Y194449D02*
X336250D01*
X278972Y193999D02*
X336250D01*
X278950Y193549D02*
X336250D01*
X278950Y193099D02*
X336250D01*
X278950Y192649D02*
X336250D01*
X278950Y192199D02*
X336250D01*
X278950Y191749D02*
X336250D01*
X291720Y209749D02*
X336045D01*
X326840Y109849D02*
X334814D01*
X327078Y130099D02*
X334575D01*
X327432Y229999D02*
X334222D01*
X327950Y210199D02*
X333703D01*
X328164Y110299D02*
X333490D01*
X328267Y129649D02*
X333387D01*
X328448Y229549D02*
X333205D01*
X328764Y210649D02*
X332889D01*
X328907Y110749D02*
X332746D01*
X328979Y129199D02*
X332675D01*
X329108Y229099D02*
X332546D01*
X329340Y211099D02*
X332314D01*
X329448Y111199D02*
X332206D01*
X329502Y128749D02*
X332151D01*
X329602Y228649D02*
X332052D01*
X329783Y211549D02*
X331871D01*
X329868Y111649D02*
X331786D01*
X329911Y128299D02*
X331742D01*
X329990Y228199D02*
X331664D01*
X330134Y211999D02*
X331519D01*
X330202Y112099D02*
X331451D01*
X330237Y127849D02*
X331417D01*
X330300Y227749D02*
X331354D01*
X330415Y212449D02*
X331238D01*
X330469Y112549D02*
X331184D01*
X330497Y127399D02*
X331157D01*
X330547Y227299D02*
X331107D01*
X330664Y212899D02*
X330989D01*
X319486Y109849D02*
X324814D01*
X317078Y130099D02*
X324575D01*
X317432Y229999D02*
X324222D01*
X317950Y210199D02*
X323703D01*
X320299Y110299D02*
X323490D01*
X318267Y129649D02*
X323387D01*
X318448Y229549D02*
X323205D01*
X318764Y210649D02*
X322889D01*
X320697Y110749D02*
X322746D01*
X318979Y129199D02*
X322675D01*
X319108Y229099D02*
X322546D01*
X319340Y211099D02*
X322314D01*
X320929Y111199D02*
X322206D01*
X319502Y128749D02*
X322151D01*
X319602Y228649D02*
X322052D01*
X319783Y211549D02*
X321871D01*
X321049Y111649D02*
X321786D01*
X319911Y128299D02*
X321742D01*
X319990Y228199D02*
X321664D01*
X320134Y211999D02*
X321519D01*
X320237Y127849D02*
X321417D01*
X320300Y227749D02*
X321354D01*
X320415Y212449D02*
X321238D01*
X320497Y127399D02*
X321157D01*
X320547Y227299D02*
X321107D01*
X320664Y212899D02*
X320989D01*
X262078Y130099D02*
X314575D01*
X264860Y229999D02*
X314222D01*
X265030Y220099D02*
X313765D01*
X291750Y210199D02*
X313703D01*
X263778Y219649D02*
X313387D01*
X263267Y129649D02*
X313387D01*
X265459Y229549D02*
X313205D01*
X265546Y220549D02*
X313043D01*
X291721Y210649D02*
X312889D01*
X263764Y120649D02*
X312869D01*
X263979Y219199D02*
X312675D01*
X263979Y129199D02*
X312675D01*
X265790Y229099D02*
X312546D01*
X265842Y220999D02*
X312428D01*
X262966Y120199D02*
X312349D01*
X291631Y211099D02*
X312314D01*
X264340Y121099D02*
X312314D01*
X261840Y109849D02*
X312168D01*
X264502Y218749D02*
X312151D01*
X264502Y128749D02*
X312151D01*
X265981Y228649D02*
X312052D01*
X266008Y221449D02*
X311960D01*
X291475Y211549D02*
X311871D01*
X264783Y121549D02*
X311871D01*
X264911Y218299D02*
X311742D01*
X264911Y128299D02*
X311742D01*
X266068Y228199D02*
X311664D01*
X266075Y221899D02*
X311591D01*
X291244Y211999D02*
X311519D01*
X265134Y121999D02*
X311519D01*
X265237Y217849D02*
X311417D01*
X265237Y127849D02*
X311417D01*
X263066Y119749D02*
X311411D01*
X263164Y110299D02*
X311354D01*
X266077Y227749D02*
X311354D01*
X266077Y222349D02*
X311295D01*
X290916Y212449D02*
X311238D01*
X265415Y122449D02*
X311238D01*
X265497Y217399D02*
X311157D01*
X265497Y127399D02*
X311157D01*
X266077Y227299D02*
X311107D01*
X266077Y222799D02*
X311061D01*
X290449Y212899D02*
X311016D01*
X265638Y122899D02*
X311016D01*
X263841Y119299D02*
X310989D01*
X263907Y110749D02*
X310957D01*
X265702Y216949D02*
X310952D01*
X265702Y126949D02*
X310952D01*
X266077Y226849D02*
X310913D01*
X266077Y223249D02*
X310877D01*
X289710Y213349D02*
X310843D01*
X265810Y123349D02*
X310843D01*
X265858Y216499D02*
X310795D01*
X265858Y126499D02*
X310795D01*
X266077Y226399D02*
X310766D01*
X264398Y118849D02*
X310743D01*
X266077Y223699D02*
X310741D01*
X264448Y111199D02*
X310724D01*
X265938Y213799D02*
X310716D01*
X265938Y123799D02*
X310716D01*
X265971Y216049D02*
X310683D01*
X265971Y126049D02*
X310683D01*
X266077Y225949D02*
X310663D01*
X266077Y224149D02*
X310646D01*
X266023Y214249D02*
X310631D01*
X266023Y124249D02*
X310631D01*
X264828Y118399D02*
X310612D01*
X266043Y215599D02*
X310611D01*
X266043Y125599D02*
X310611D01*
X264868Y111649D02*
X310604D01*
X266077Y225499D02*
X310600D01*
X266077Y224599D02*
X310592D01*
X266068Y214699D02*
X310585D01*
X266068Y124699D02*
X310585D01*
X266075Y215149D02*
X310579D01*
X266075Y125149D02*
X310579D01*
X266077Y225049D02*
X310577D01*
X265170Y117949D02*
X310577D01*
X265444Y117499D02*
X310577D01*
X265661Y117049D02*
X310577D01*
X265827Y116599D02*
X310577D01*
X265950Y116149D02*
X310577D01*
X266030Y115699D02*
X310577D01*
X266071Y115249D02*
X310577D01*
X266073Y114799D02*
X310577D01*
X266036Y114349D02*
X310577D01*
X265960Y113899D02*
X310577D01*
X265842Y113449D02*
X310577D01*
X265680Y112999D02*
X310577D01*
X265469Y112549D02*
X310577D01*
X265202Y112099D02*
X310577D01*
X265810Y213349D02*
X286890D01*
X265638Y212899D02*
X286151D01*
X223583Y207049D02*
X285750D01*
X223444Y206599D02*
X285750D01*
X223645Y207499D02*
X285698D01*
X265415Y212449D02*
X285684D01*
X223214Y206149D02*
X285642D01*
X223650Y207949D02*
X285535D01*
X223650Y208399D02*
X285358D01*
X265134Y211999D02*
X285356D01*
X222865Y205699D02*
X285192D01*
X223650Y208849D02*
X285126D01*
X264783Y211549D02*
X285125D01*
X223650Y209299D02*
X284970D01*
X264340Y211099D02*
X284969D01*
X223650Y209749D02*
X284880D01*
X263764Y210649D02*
X284879D01*
X262950Y210199D02*
X284850D01*
X222416Y205249D02*
X284742D01*
X221966Y204799D02*
X284292D01*
X221516Y204349D02*
X283842D01*
X221066Y203899D02*
X283260D01*
X220616Y203449D02*
X282139D01*
X279506Y197149D02*
X281690D01*
X220166Y202999D02*
X281283D01*
X279402Y197599D02*
X281034D01*
X219716Y202549D02*
X280773D01*
X279231Y198049D02*
X280603D01*
X219266Y202099D02*
X280419D01*
X278981Y198499D02*
X280299D01*
X218816Y201649D02*
X280169D01*
X278627Y198949D02*
X280085D01*
X218366Y201199D02*
X279998D01*
X278117Y199399D02*
X279944D01*
X217916Y200749D02*
X279894D01*
X277261Y199849D02*
X279868D01*
X217466Y200299D02*
X279851D01*
X217016Y199849D02*
X274939D01*
X216566Y199399D02*
X274083D01*
X216116Y198949D02*
X273573D01*
X215666Y198499D02*
X273219D01*
X215216Y198049D02*
X272969D01*
X214766Y197599D02*
X272798D01*
X214316Y197149D02*
X272694D01*
X213416Y196249D02*
X272668D01*
X213866Y196699D02*
X272651D01*
X212966Y195799D02*
X272628D01*
X212516Y195349D02*
X271609D01*
X212066Y194899D02*
X271021D01*
X211616Y194449D02*
X270624D01*
X206666Y189499D02*
X270550D01*
X206216Y189049D02*
X270550D01*
X205766Y188599D02*
X270550D01*
X205316Y188149D02*
X270550D01*
X204866Y187699D02*
X270550D01*
X204416Y187249D02*
X270550D01*
X203966Y186799D02*
X270550D01*
X203516Y186349D02*
X270547D01*
X207116Y189949D02*
X270496D01*
X207566Y190399D02*
X270399D01*
X211166Y193999D02*
X270343D01*
X208016Y190849D02*
X270303D01*
X203087Y185899D02*
X270168D01*
X210716Y193549D02*
X270147D01*
X208466Y191299D02*
X270130D01*
X210266Y193099D02*
X270021D01*
X208916Y191749D02*
X270012D01*
X209816Y192649D02*
X269959D01*
X209366Y192199D02*
X269956D01*
X202797Y185449D02*
X269718D01*
X202506Y184999D02*
X269268D01*
X202300Y184549D02*
X268818D01*
X202036Y184099D02*
X268368D01*
X201665Y183649D02*
X267918D01*
X201123Y183199D02*
X267468D01*
X200159Y182749D02*
X267018D01*
X200092Y182299D02*
X266568D01*
X200413Y181849D02*
X266118D01*
X200669Y181399D02*
X265668D01*
X200870Y180949D02*
X265218D01*
X201022Y180499D02*
X264768D01*
X201131Y180049D02*
X264318D01*
X201198Y179599D02*
X263868D01*
X201226Y179149D02*
X263418D01*
X201214Y178699D02*
X262968D01*
X201238Y178249D02*
X262518D01*
X251840Y109849D02*
X259814D01*
X252078Y130099D02*
X259575D01*
X252950Y210199D02*
X258703D01*
X253164Y110299D02*
X258490D01*
X253267Y129649D02*
X258387D01*
X253764Y210649D02*
X257889D01*
X253907Y110749D02*
X257746D01*
X253979Y129199D02*
X257675D01*
X254340Y211099D02*
X257314D01*
X254448Y111199D02*
X257206D01*
X254502Y128749D02*
X257151D01*
X254783Y211549D02*
X256871D01*
X252432Y229999D02*
X256793D01*
X254868Y111649D02*
X256786D01*
X254911Y128299D02*
X256742D01*
X255134Y211999D02*
X256519D01*
X255202Y112099D02*
X256451D01*
X255237Y127849D02*
X256417D01*
X255415Y212449D02*
X256238D01*
X253448Y229549D02*
X256195D01*
X255469Y112549D02*
X256184D01*
X255497Y127399D02*
X256157D01*
X255664Y212899D02*
X255989D01*
X254108Y229099D02*
X255863D01*
X254602Y228649D02*
X255672D01*
X254990Y228199D02*
X255586D01*
X241840Y109849D02*
X249814D01*
X242078Y130099D02*
X249575D01*
X242432Y229999D02*
X249222D01*
X242950Y210199D02*
X248703D01*
X243164Y110299D02*
X248490D01*
X243267Y129649D02*
X248387D01*
X243448Y229549D02*
X248205D01*
X243764Y210649D02*
X247889D01*
X243907Y110749D02*
X247746D01*
X243979Y129199D02*
X247675D01*
X244108Y229099D02*
X247546D01*
X244340Y211099D02*
X247314D01*
X244448Y111199D02*
X247206D01*
X244502Y128749D02*
X247151D01*
X244602Y228649D02*
X247052D01*
X244783Y211549D02*
X246871D01*
X244868Y111649D02*
X246786D01*
X244911Y128299D02*
X246742D01*
X244990Y228199D02*
X246664D01*
X245134Y211999D02*
X246519D01*
X245202Y112099D02*
X246451D01*
X245237Y127849D02*
X246417D01*
X245300Y227749D02*
X246354D01*
X245415Y212449D02*
X246238D01*
X245469Y112549D02*
X246184D01*
X245497Y127399D02*
X246157D01*
X245547Y227299D02*
X246107D01*
X245664Y212899D02*
X245989D01*
X231840Y109849D02*
X239814D01*
X232078Y130099D02*
X239575D01*
X232432Y229999D02*
X239222D01*
X232950Y210199D02*
X238703D01*
X233164Y110299D02*
X238490D01*
X233267Y129649D02*
X238387D01*
X233448Y229549D02*
X238205D01*
X233764Y210649D02*
X237889D01*
X233907Y110749D02*
X237746D01*
X233979Y129199D02*
X237675D01*
X234108Y229099D02*
X237546D01*
X234340Y211099D02*
X237314D01*
X234448Y111199D02*
X237206D01*
X234502Y128749D02*
X237151D01*
X234602Y228649D02*
X237052D01*
X234783Y211549D02*
X236871D01*
X234868Y111649D02*
X236786D01*
X234911Y128299D02*
X236742D01*
X234990Y228199D02*
X236664D01*
X235134Y211999D02*
X236519D01*
X235202Y112099D02*
X236451D01*
X235237Y127849D02*
X236417D01*
X235300Y227749D02*
X236354D01*
X235415Y212449D02*
X236238D01*
X235469Y112549D02*
X236184D01*
X235497Y127399D02*
X236157D01*
X235547Y227299D02*
X236107D01*
X235664Y212899D02*
X235989D01*
X221840Y109849D02*
X229814D01*
X222078Y130099D02*
X229575D01*
X222432Y229999D02*
X229222D01*
X223650Y210199D02*
X228703D01*
X223164Y110299D02*
X228490D01*
X223267Y129649D02*
X228387D01*
X223448Y229549D02*
X228205D01*
X223764Y210649D02*
X227889D01*
X223907Y110749D02*
X227746D01*
X223979Y129199D02*
X227675D01*
X224108Y229099D02*
X227546D01*
X224340Y211099D02*
X227314D01*
X224448Y111199D02*
X227206D01*
X224502Y128749D02*
X227151D01*
X224602Y228649D02*
X227052D01*
X224783Y211549D02*
X226871D01*
X224868Y111649D02*
X226786D01*
X224911Y128299D02*
X226742D01*
X224990Y228199D02*
X226664D01*
X225134Y211999D02*
X226519D01*
X225202Y112099D02*
X226451D01*
X225237Y127849D02*
X226417D01*
X225300Y227749D02*
X226354D01*
X225415Y212449D02*
X226238D01*
X225469Y112549D02*
X226184D01*
X225497Y127399D02*
X226157D01*
X225547Y227299D02*
X226107D01*
X225664Y212899D02*
X225989D01*
X211840Y109849D02*
X219814D01*
X212078Y130099D02*
X219575D01*
X212432Y229999D02*
X219222D01*
X213164Y110299D02*
X218490D01*
X213267Y129649D02*
X218387D01*
X213448Y229549D02*
X218205D01*
X212950Y210199D02*
X217950D01*
X150944Y209749D02*
X217950D01*
X150429Y209299D02*
X217950D01*
X149979Y208849D02*
X217930D01*
X213764Y210649D02*
X217880D01*
X213907Y110749D02*
X217746D01*
X213979Y129199D02*
X217675D01*
X214108Y229099D02*
X217546D01*
X149529Y208399D02*
X217505D01*
X214340Y211099D02*
X217314D01*
X214448Y111199D02*
X217206D01*
X214502Y128749D02*
X217151D01*
X149079Y207949D02*
X217055D01*
X214602Y228649D02*
X217052D01*
X214783Y211549D02*
X216871D01*
X214868Y111649D02*
X216786D01*
X214911Y128299D02*
X216742D01*
X214990Y228199D02*
X216664D01*
X148629Y207499D02*
X216605D01*
X215134Y211999D02*
X216519D01*
X215202Y112099D02*
X216451D01*
X215237Y127849D02*
X216417D01*
X215300Y227749D02*
X216354D01*
X215415Y212449D02*
X216238D01*
X215469Y112549D02*
X216184D01*
X215497Y127399D02*
X216157D01*
X148162Y207049D02*
X216155D01*
X215547Y227299D02*
X216107D01*
X215664Y212899D02*
X215989D01*
X147506Y206599D02*
X215705D01*
X134711Y206149D02*
X215255D01*
X134764Y205699D02*
X214805D01*
X134777Y205249D02*
X214355D01*
X134752Y204799D02*
X213905D01*
X134688Y204349D02*
X213455D01*
X134583Y203899D02*
X213005D01*
X134435Y203449D02*
X212555D01*
X134239Y202999D02*
X212105D01*
X133990Y202549D02*
X211655D01*
X133677Y202099D02*
X211205D01*
X133285Y201649D02*
X210755D01*
X132786Y201199D02*
X210305D01*
X132118Y200749D02*
X209855D01*
X201840Y109849D02*
X209814D01*
X202078Y130099D02*
X209575D01*
X131077Y200299D02*
X209405D01*
X202432Y229999D02*
X209222D01*
X102750Y199849D02*
X208955D01*
X202950Y210199D02*
X208703D01*
X102750Y199399D02*
X208505D01*
X203164Y110299D02*
X208490D01*
X203267Y129649D02*
X208387D01*
X203448Y229549D02*
X208205D01*
X102750Y198949D02*
X208055D01*
X203764Y210649D02*
X207889D01*
X203907Y110749D02*
X207746D01*
X203979Y129199D02*
X207675D01*
X102750Y198499D02*
X207605D01*
X204108Y229099D02*
X207546D01*
X204340Y211099D02*
X207314D01*
X204448Y111199D02*
X207206D01*
X102750Y198049D02*
X207155D01*
X204502Y128749D02*
X207151D01*
X204602Y228649D02*
X207052D01*
X204783Y211549D02*
X206871D01*
X204868Y111649D02*
X206786D01*
X204911Y128299D02*
X206742D01*
X102750Y197599D02*
X206705D01*
X204990Y228199D02*
X206664D01*
X205134Y211999D02*
X206519D01*
X205202Y112099D02*
X206451D01*
X205237Y127849D02*
X206417D01*
X205300Y227749D02*
X206354D01*
X102750Y197149D02*
X206255D01*
X205415Y212449D02*
X206238D01*
X205469Y112549D02*
X206184D01*
X205497Y127399D02*
X206157D01*
X205547Y227299D02*
X206107D01*
X205664Y212899D02*
X205989D01*
X102750Y196699D02*
X205805D01*
X102750Y196249D02*
X205355D01*
X102750Y195799D02*
X204905D01*
X102750Y195349D02*
X204455D01*
X102750Y194899D02*
X204005D01*
X102750Y194449D02*
X203555D01*
X102750Y193999D02*
X203105D01*
X102750Y193549D02*
X202655D01*
X102750Y193099D02*
X202205D01*
X130962Y192649D02*
X201755D01*
X132057Y192199D02*
X201305D01*
X132743Y191749D02*
X200855D01*
X133252Y191299D02*
X200405D01*
X133650Y190849D02*
X199955D01*
X191840Y109849D02*
X199814D01*
X192078Y130099D02*
X199575D01*
X133968Y190399D02*
X199505D01*
X192432Y229999D02*
X199222D01*
X134222Y189949D02*
X199033D01*
X192950Y210199D02*
X198703D01*
X193164Y110299D02*
X198490D01*
X193267Y129649D02*
X198387D01*
X134422Y189499D02*
X198337D01*
X193448Y229549D02*
X198205D01*
X193764Y210649D02*
X197889D01*
X193907Y110749D02*
X197746D01*
X193979Y129199D02*
X197675D01*
X194108Y229099D02*
X197546D01*
X134573Y189049D02*
X197471D01*
X194340Y211099D02*
X197314D01*
X194448Y111199D02*
X197206D01*
X194502Y128749D02*
X197151D01*
X194602Y228649D02*
X197052D01*
X194783Y211549D02*
X196871D01*
X134681Y188599D02*
X196861D01*
X194868Y111649D02*
X196786D01*
X194911Y128299D02*
X196742D01*
X194990Y228199D02*
X196664D01*
X195134Y211999D02*
X196519D01*
X134749Y188149D02*
X196452D01*
X195202Y112099D02*
X196451D01*
X195237Y127849D02*
X196417D01*
X195300Y227749D02*
X196354D01*
X195415Y212449D02*
X196238D01*
X195469Y112549D02*
X196184D01*
X134777Y187699D02*
X196162D01*
X195497Y127399D02*
X196157D01*
X195547Y227299D02*
X196107D01*
X133801Y184549D02*
X196089D01*
X195664Y212899D02*
X195989D01*
X134766Y187249D02*
X195960D01*
X134089Y184999D02*
X195918D01*
X134716Y186799D02*
X195829D01*
X134317Y185449D02*
X195805D01*
X134627Y186349D02*
X195762D01*
X134495Y185899D02*
X195754D01*
X102750Y166099D02*
X193336D01*
X133441Y184099D02*
X192778D01*
X102750Y166549D02*
X192080D01*
X132986Y183649D02*
X191612D01*
X102750Y166999D02*
X191354D01*
X132392Y183199D02*
X190909D01*
X102750Y167449D02*
X190824D01*
X102750Y175099D02*
X190674D01*
X102750Y174649D02*
X190570D01*
X102750Y167899D02*
X190412D01*
X131538Y182749D02*
X190391D01*
X102750Y175549D02*
X190211D01*
X102750Y174199D02*
X190211D01*
X102750Y168349D02*
X190085D01*
X102750Y182299D02*
X189987D01*
X102750Y173749D02*
X189924D01*
X102750Y175999D02*
X189845D01*
X102750Y168799D02*
X189824D01*
X181840Y109849D02*
X189814D01*
X102750Y173299D02*
X189696D01*
X102750Y181849D02*
X189666D01*
X102750Y169249D02*
X189618D01*
X182078Y130099D02*
X189575D01*
X102750Y176449D02*
X189552D01*
X102750Y172849D02*
X189521D01*
X102750Y169699D02*
X189462D01*
X102750Y181399D02*
X189410D01*
X102750Y172399D02*
X189391D01*
X102750Y170149D02*
X189350D01*
X102750Y176899D02*
X189320D01*
X102750Y171949D02*
X189303D01*
X102750Y170599D02*
X189279D01*
X102750Y171499D02*
X189256D01*
X102750Y171049D02*
X189248D01*
X182432Y229999D02*
X189222D01*
X102750Y180949D02*
X189209D01*
X102750Y177349D02*
X189140D01*
X102750Y180499D02*
X189057D01*
X102750Y177799D02*
X189006D01*
X102750Y180049D02*
X188948D01*
X102750Y178249D02*
X188915D01*
X102750Y179599D02*
X188881D01*
X102750Y178699D02*
X188865D01*
X102750Y179149D02*
X188853D01*
X182950Y210199D02*
X188703D01*
X183164Y110299D02*
X188490D01*
X183267Y129649D02*
X188387D01*
X183448Y229549D02*
X188205D01*
X183764Y210649D02*
X187889D01*
X183907Y110749D02*
X187746D01*
X183979Y129199D02*
X187675D01*
X184108Y229099D02*
X187546D01*
X184340Y211099D02*
X187314D01*
X184448Y111199D02*
X187206D01*
X184502Y128749D02*
X187151D01*
X184602Y228649D02*
X187052D01*
X184783Y211549D02*
X186871D01*
X184868Y111649D02*
X186786D01*
X184911Y128299D02*
X186742D01*
X184990Y228199D02*
X186664D01*
X185134Y211999D02*
X186519D01*
X185202Y112099D02*
X186451D01*
X185237Y127849D02*
X186417D01*
X185300Y227749D02*
X186354D01*
X185415Y212449D02*
X186238D01*
X185469Y112549D02*
X186184D01*
X185497Y127399D02*
X186157D01*
X185547Y227299D02*
X186107D01*
X185664Y212899D02*
X185989D01*
X171840Y109849D02*
X179814D01*
X172078Y130099D02*
X179575D01*
X172432Y229999D02*
X179222D01*
X172950Y210199D02*
X178703D01*
X173164Y110299D02*
X178490D01*
X173267Y129649D02*
X178387D01*
X173448Y229549D02*
X178205D01*
X173764Y210649D02*
X177889D01*
X173907Y110749D02*
X177746D01*
X173979Y129199D02*
X177675D01*
X174108Y229099D02*
X177546D01*
X174340Y211099D02*
X177314D01*
X174448Y111199D02*
X177206D01*
X174502Y128749D02*
X177151D01*
X174602Y228649D02*
X177052D01*
X174783Y211549D02*
X176871D01*
X174868Y111649D02*
X176786D01*
X174911Y128299D02*
X176742D01*
X174990Y228199D02*
X176664D01*
X175134Y211999D02*
X176519D01*
X175202Y112099D02*
X176451D01*
X175237Y127849D02*
X176417D01*
X175300Y227749D02*
X176354D01*
X175415Y212449D02*
X176238D01*
X175469Y112549D02*
X176184D01*
X175497Y127399D02*
X176157D01*
X175547Y227299D02*
X176107D01*
X175664Y212899D02*
X175989D01*
X161840Y109849D02*
X169814D01*
X162078Y130099D02*
X169575D01*
X162432Y229999D02*
X169222D01*
X162950Y210199D02*
X168703D01*
X163164Y110299D02*
X168490D01*
X163267Y129649D02*
X168387D01*
X163448Y229549D02*
X168205D01*
X163764Y210649D02*
X167889D01*
X163907Y110749D02*
X167746D01*
X163979Y129199D02*
X167675D01*
X164108Y229099D02*
X167546D01*
X164340Y211099D02*
X167314D01*
X164448Y111199D02*
X167206D01*
X164502Y128749D02*
X167151D01*
X164602Y228649D02*
X167052D01*
X164783Y211549D02*
X166871D01*
X164868Y111649D02*
X166786D01*
X164911Y128299D02*
X166742D01*
X164990Y228199D02*
X166664D01*
X165134Y211999D02*
X166519D01*
X165202Y112099D02*
X166451D01*
X165237Y127849D02*
X166417D01*
X165300Y227749D02*
X166354D01*
X165415Y212449D02*
X166238D01*
X165469Y112549D02*
X166184D01*
X165497Y127399D02*
X166157D01*
X165547Y227299D02*
X166107D01*
X165664Y212899D02*
X165989D01*
X151840Y109849D02*
X159814D01*
X152078Y130099D02*
X159575D01*
X152432Y229999D02*
X159222D01*
X152950Y210199D02*
X158703D01*
X153164Y110299D02*
X158490D01*
X153267Y129649D02*
X158387D01*
X153448Y229549D02*
X158205D01*
X153764Y210649D02*
X157889D01*
X153907Y110749D02*
X157746D01*
X153979Y129199D02*
X157675D01*
X154108Y229099D02*
X157546D01*
X154340Y211099D02*
X157314D01*
X154448Y111199D02*
X157206D01*
X154502Y128749D02*
X157151D01*
X154602Y228649D02*
X157052D01*
X154783Y211549D02*
X156871D01*
X154868Y111649D02*
X156786D01*
X154911Y128299D02*
X156742D01*
X154990Y228199D02*
X156664D01*
X155134Y211999D02*
X156519D01*
X155202Y112099D02*
X156451D01*
X155237Y127849D02*
X156417D01*
X155300Y227749D02*
X156354D01*
X155415Y212449D02*
X156238D01*
X155469Y112549D02*
X156184D01*
X155497Y127399D02*
X156157D01*
X155547Y227299D02*
X156107D01*
X155664Y212899D02*
X155989D01*
X144486Y109849D02*
X149814D01*
X142078Y130099D02*
X149575D01*
X142432Y229999D02*
X149222D01*
X145299Y110299D02*
X148490D01*
X143267Y129649D02*
X148387D01*
X143448Y229549D02*
X148205D01*
X145697Y110749D02*
X147746D01*
X143979Y129199D02*
X147675D01*
X144108Y229099D02*
X147546D01*
X145929Y111199D02*
X147206D01*
X144502Y128749D02*
X147151D01*
X144602Y228649D02*
X147052D01*
X146049Y111649D02*
X146786D01*
X144911Y128299D02*
X146742D01*
X144990Y228199D02*
X146664D01*
X145237Y127849D02*
X146417D01*
X145300Y227749D02*
X146354D01*
X145497Y127399D02*
X146157D01*
X145547Y227299D02*
X146107D01*
X102750Y130099D02*
X139575D01*
X123459Y229999D02*
X139222D01*
X132731Y220099D02*
X138765D01*
X133181Y219649D02*
X138387D01*
X102750Y129649D02*
X138387D01*
X124966Y229549D02*
X138205D01*
X132281Y220549D02*
X138043D01*
X102750Y120649D02*
X137869D01*
X133631Y219199D02*
X137675D01*
X102750Y129199D02*
X137675D01*
X125741Y229099D02*
X137546D01*
X131831Y220999D02*
X137428D01*
X121559Y120199D02*
X137349D01*
X102750Y121099D02*
X137314D01*
X121840Y109849D02*
X137168D01*
X134081Y218749D02*
X137151D01*
X102750Y128749D02*
X137151D01*
X126298Y228649D02*
X137052D01*
X131381Y221449D02*
X136960D01*
X102750Y121549D02*
X136871D01*
X134531Y218299D02*
X136742D01*
X102750Y128299D02*
X136742D01*
X126728Y228199D02*
X136664D01*
X130931Y221899D02*
X136591D01*
X102750Y121999D02*
X136519D01*
X134981Y217849D02*
X136417D01*
X102750Y127849D02*
X136417D01*
X123066Y119749D02*
X136411D01*
X123164Y110299D02*
X136354D01*
X127070Y227749D02*
X136354D01*
X130481Y222349D02*
X136295D01*
X102750Y122449D02*
X136238D01*
X135431Y217399D02*
X136157D01*
X102750Y127399D02*
X136157D01*
X127344Y227299D02*
X136107D01*
X130031Y222799D02*
X136061D01*
X102750Y122899D02*
X136016D01*
X123841Y119299D02*
X135989D01*
X123907Y110749D02*
X135957D01*
X102750Y126949D02*
X135952D01*
X127561Y226849D02*
X135913D01*
X129695Y223249D02*
X135877D01*
X134618Y206599D02*
X135848D01*
X102750Y123349D02*
X135843D01*
X102750Y126499D02*
X135795D01*
X127727Y226399D02*
X135766D01*
X124398Y118849D02*
X135743D01*
X129404Y223699D02*
X135741D01*
X124448Y111199D02*
X135724D01*
X102750Y123799D02*
X135716D01*
X102750Y126049D02*
X135683D01*
X127950Y225949D02*
X135663D01*
X129113Y224149D02*
X135646D01*
X102750Y124249D02*
X135631D01*
X124828Y118399D02*
X135612D01*
X102750Y125599D02*
X135611D01*
X124868Y111649D02*
X135604D01*
X128240Y225499D02*
X135600D01*
X128822Y224599D02*
X135592D01*
X102750Y124699D02*
X135585D01*
X102750Y125149D02*
X135579D01*
X128531Y225049D02*
X135577D01*
X125170Y117949D02*
X135577D01*
X125444Y117499D02*
X135577D01*
X125661Y117049D02*
X135577D01*
X125827Y116599D02*
X135577D01*
X125950Y116149D02*
X135577D01*
X126030Y115699D02*
X135577D01*
X126071Y115249D02*
X135577D01*
X126073Y114799D02*
X135577D01*
X126036Y114349D02*
X135577D01*
X125960Y113899D02*
X135577D01*
X125842Y113449D02*
X135577D01*
X125680Y112999D02*
X135577D01*
X125469Y112549D02*
X135577D01*
X125202Y112099D02*
X135577D01*
X134483Y207049D02*
X135191D01*
X102750Y210649D02*
X131572D01*
X102750Y211099D02*
X131125D01*
X102750Y211549D02*
X130675D01*
X102750Y211999D02*
X130225D01*
X102750Y212449D02*
X129775D01*
X102750Y212899D02*
X129325D01*
X102750Y213349D02*
X128875D01*
X102750Y213799D02*
X128425D01*
X107340Y192649D02*
X128093D01*
X107455Y200299D02*
X127978D01*
X102750Y214249D02*
X127975D01*
X107832Y210199D02*
X127601D01*
X102750Y214699D02*
X127525D01*
X107916Y182749D02*
X127517D01*
X102750Y215149D02*
X127075D01*
X108435Y192199D02*
X126998D01*
X108496Y200749D02*
X126937D01*
X108717Y209749D02*
X126716D01*
X108770Y183199D02*
X126663D01*
X102750Y215599D02*
X126625D01*
X109121Y191749D02*
X126312D01*
X109164Y201199D02*
X126269D01*
X102750Y216049D02*
X126175D01*
X109325Y209299D02*
X126108D01*
X109364Y183649D02*
X126069D01*
X109630Y191299D02*
X125803D01*
X109663Y201649D02*
X125770D01*
X102750Y216499D02*
X125725D01*
X109788Y208849D02*
X125645D01*
X109819Y184099D02*
X125614D01*
X110028Y190849D02*
X125405D01*
X110055Y202099D02*
X125378D01*
X110154Y208399D02*
X125279D01*
X102750Y216949D02*
X125275D01*
X110179Y184549D02*
X125254D01*
X110346Y190399D02*
X125087D01*
X110368Y202549D02*
X125065D01*
X110447Y207949D02*
X124986D01*
X110467Y184999D02*
X124966D01*
X110600Y189949D02*
X124833D01*
X102750Y217399D02*
X124825D01*
X110617Y202999D02*
X124816D01*
X110680Y207499D02*
X124753D01*
X110695Y185449D02*
X124738D01*
X110800Y189499D02*
X124634D01*
X110813Y203449D02*
X124620D01*
X110861Y207049D02*
X124572D01*
X110873Y185899D02*
X124560D01*
X110951Y189049D02*
X124482D01*
X110961Y203899D02*
X124472D01*
X110996Y206599D02*
X124437D01*
X111005Y186349D02*
X124428D01*
X111059Y188599D02*
X124374D01*
X111066Y204349D02*
X124367D01*
X111089Y206149D02*
X124344D01*
X111094Y186799D02*
X124339D01*
X111127Y188149D02*
X124306D01*
X111130Y204799D02*
X124303D01*
X111141Y205699D02*
X124292D01*
X111144Y187249D02*
X124289D01*
X111155Y187699D02*
X124278D01*
X111155Y205249D02*
X124278D01*
X102750Y217849D02*
X124252D01*
X102750Y218299D02*
X123556D01*
X102750Y218749D02*
X122860D01*
X102750Y219199D02*
X122164D01*
X116205Y229999D02*
X121994D01*
X116386Y219649D02*
X121468D01*
X117143Y229549D02*
X120488D01*
X117199Y220099D02*
X120390D01*
X114305Y120199D02*
X120094D01*
X114486Y109849D02*
X119814D01*
X117564Y229099D02*
X119713D01*
X117597Y220549D02*
X119646D01*
X117811Y228649D02*
X119156D01*
X117829Y220999D02*
X119106D01*
X117941Y228199D02*
X118725D01*
X117949Y221449D02*
X118686D01*
X115243Y119749D02*
X118588D01*
X115299Y110299D02*
X118490D01*
X118081Y227749D02*
X118362D01*
X115664Y119299D02*
X117813D01*
X115697Y110749D02*
X117746D01*
X115911Y118849D02*
X117256D01*
X115929Y111199D02*
X117206D01*
X116041Y118399D02*
X116825D01*
X116049Y111649D02*
X116786D01*
X116181Y117949D02*
X116462D01*
X102750Y229999D02*
X109249D01*
X102750Y219649D02*
X109068D01*
X102750Y229549D02*
X108311D01*
X102750Y220099D02*
X108254D01*
X102750Y229099D02*
X107889D01*
X102750Y220549D02*
X107857D01*
X102750Y228649D02*
X107643D01*
X102750Y220999D02*
X107624D01*
X102750Y228199D02*
X107512D01*
X102750Y221449D02*
X107504D01*
X102750Y227749D02*
X107477D01*
X102750Y227299D02*
X107477D01*
X102750Y226849D02*
X107477D01*
X102750Y226399D02*
X107477D01*
X102750Y225949D02*
X107477D01*
X102750Y225499D02*
X107477D01*
X102750Y225049D02*
X107477D01*
X102750Y224599D02*
X107477D01*
X102750Y224149D02*
X107477D01*
X102750Y223699D02*
X107477D01*
X102750Y223249D02*
X107477D01*
X102750Y222799D02*
X107477D01*
X102750Y222349D02*
X107477D01*
X102750Y221899D02*
X107477D01*
X102750Y120199D02*
X107349D01*
X102750Y109849D02*
X107168D01*
X102750Y119749D02*
X106411D01*
X102750Y110299D02*
X106354D01*
X102750Y119299D02*
X105989D01*
X102750Y110749D02*
X105957D01*
X102750Y118849D02*
X105743D01*
X102750Y111199D02*
X105724D01*
X102750Y118399D02*
X105612D01*
X102750Y111649D02*
X105604D01*
X102750Y117949D02*
X105577D01*
X102750Y117499D02*
X105577D01*
X102750Y117049D02*
X105577D01*
X102750Y116599D02*
X105577D01*
X102750Y116149D02*
X105577D01*
X102750Y115699D02*
X105577D01*
X102750Y115249D02*
X105577D01*
X102750Y114799D02*
X105577D01*
X102750Y114349D02*
X105577D01*
X102750Y113899D02*
X105577D01*
X102750Y113449D02*
X105577D01*
X102750Y112999D02*
X105577D01*
X102750Y112549D02*
X105577D01*
X102750Y112099D02*
X105577D01*
X102750Y192649D02*
X104471D01*
X102750Y200299D02*
X104356D01*
X102750Y210199D02*
X103979D01*
X102750Y182749D02*
X103895D01*
X102760Y192199D02*
X103376D01*
X102773Y200749D02*
X103315D01*
X102918Y209749D02*
X103082D01*
X451077Y230899D02*
X619327D01*
X451077Y230449D02*
X619327D01*
X451077Y229999D02*
X619327D01*
X451077Y229549D02*
X619327D01*
X451077Y229099D02*
X619327D01*
X451077Y228649D02*
X619327D01*
X451077Y228199D02*
X619327D01*
X538857Y227749D02*
X619327D01*
X539898Y227299D02*
X619327D01*
X540457Y226849D02*
X619327D01*
X540839Y226399D02*
X619327D01*
X541110Y225949D02*
X619327D01*
X541297Y225499D02*
X619327D01*
X541415Y225049D02*
X619327D01*
X541471Y224599D02*
X619327D01*
X541468Y224149D02*
X619327D01*
X541405Y223699D02*
X619327D01*
X541279Y223249D02*
X619327D01*
X541083Y222799D02*
X619327D01*
X568859Y222349D02*
X619327D01*
X569339Y221899D02*
X619327D01*
X569617Y221449D02*
X619327D01*
X569771Y220999D02*
X619327D01*
X569826Y220549D02*
X619327D01*
X569827Y220099D02*
X619327D01*
X569827Y219649D02*
X619327D01*
X569827Y219199D02*
X619327D01*
X569827Y218749D02*
X619327D01*
X569827Y218299D02*
X619327D01*
X569827Y217849D02*
X619327D01*
X569827Y217399D02*
X619327D01*
X569827Y216949D02*
X619327D01*
X569827Y216499D02*
X619327D01*
X569827Y216049D02*
X619327D01*
X569827Y215599D02*
X619327D01*
X569827Y215149D02*
X619327D01*
X569827Y214699D02*
X619327D01*
X569813Y214249D02*
X619327D01*
X569715Y213799D02*
X619327D01*
X569510Y213349D02*
X619327D01*
X569157Y212899D02*
X619327D01*
X568501Y212449D02*
X619327D01*
X564379Y211999D02*
X619327D01*
X563929Y211549D02*
X619327D01*
X563479Y211099D02*
X619327D01*
X563029Y210649D02*
X619327D01*
X562579Y210199D02*
X619327D01*
X562631Y209749D02*
X619327D01*
X563081Y209299D02*
X619327D01*
X563531Y208849D02*
X619327D01*
X563981Y208399D02*
X619327D01*
X564431Y207949D02*
X619327D01*
X564881Y207499D02*
X619327D01*
X565331Y207049D02*
X619327D01*
X565781Y206599D02*
X619327D01*
X566231Y206149D02*
X619327D01*
X566681Y205699D02*
X619327D01*
X567131Y205249D02*
X619327D01*
X567581Y204799D02*
X619327D01*
X568031Y204349D02*
X619327D01*
X568481Y203899D02*
X619327D01*
X568931Y203449D02*
X619327D01*
X569381Y202999D02*
X619327D01*
X569831Y202549D02*
X619327D01*
X570281Y202099D02*
X619327D01*
X570731Y201649D02*
X619327D01*
X571181Y201199D02*
X619327D01*
X571631Y200749D02*
X619327D01*
X572081Y200299D02*
X619327D01*
X572531Y199849D02*
X619327D01*
X572981Y199399D02*
X619327D01*
X573431Y198949D02*
X619327D01*
X573873Y198499D02*
X619327D01*
X574218Y198049D02*
X619327D01*
X574469Y197599D02*
X619327D01*
X574647Y197149D02*
X619327D01*
X574761Y196699D02*
X619327D01*
X574819Y196249D02*
X619327D01*
X574821Y195799D02*
X619327D01*
X574770Y195349D02*
X619327D01*
X574661Y194899D02*
X619327D01*
X574491Y194449D02*
X619327D01*
X574248Y193999D02*
X619327D01*
X573915Y193549D02*
X619327D01*
X573453Y193099D02*
X619327D01*
X572759Y192649D02*
X619327D01*
X507079Y192199D02*
X619327D01*
X506629Y191749D02*
X619327D01*
X506179Y191299D02*
X619327D01*
X505729Y190849D02*
X619327D01*
X505279Y190399D02*
X619327D01*
X504829Y189949D02*
X619327D01*
X504379Y189499D02*
X619327D01*
X503929Y189049D02*
X619327D01*
X503479Y188599D02*
X619327D01*
X503029Y188149D02*
X619327D01*
X502579Y187699D02*
X619327D01*
X502129Y187249D02*
X619327D01*
X501640Y186799D02*
X619327D01*
X500906Y186349D02*
X619327D01*
X492215Y185899D02*
X619327D01*
X541513Y185449D02*
X619327D01*
X543123Y184999D02*
X619327D01*
X543743Y184549D02*
X619327D01*
X544156Y184099D02*
X619327D01*
X579480Y183649D02*
X619327D01*
X580433Y183199D02*
X619327D01*
X581069Y182749D02*
X619327D01*
X581549Y182299D02*
X619327D01*
X581928Y181849D02*
X619327D01*
X582230Y181399D02*
X619327D01*
X582471Y180949D02*
X619327D01*
X582659Y180499D02*
X619327D01*
X582801Y180049D02*
X619327D01*
X582899Y179599D02*
X619327D01*
X582958Y179149D02*
X619327D01*
X582977Y178699D02*
X619327D01*
X605614Y178249D02*
X619327D01*
X606903Y177799D02*
X619327D01*
X607601Y177349D02*
X619327D01*
X608100Y176899D02*
X619327D01*
X608479Y176449D02*
X619327D01*
X608774Y175999D02*
X619327D01*
X609001Y175549D02*
X619327D01*
X609171Y175099D02*
X619327D01*
X609291Y174649D02*
X619327D01*
X609364Y174199D02*
X619327D01*
X609392Y173749D02*
X619327D01*
X609377Y173299D02*
X619327D01*
X609317Y172849D02*
X619327D01*
X609212Y172399D02*
X619327D01*
X609058Y171949D02*
X619327D01*
X608849Y171499D02*
X619327D01*
X608576Y171049D02*
X619327D01*
X608224Y170599D02*
X619327D01*
X607767Y170149D02*
X619327D01*
X607143Y169699D02*
X619327D01*
X606148Y169249D02*
X619327D01*
X582976Y168799D02*
X619327D01*
X582965Y168349D02*
X619327D01*
X582915Y167899D02*
X619327D01*
X582825Y167449D02*
X619327D01*
X582693Y166999D02*
X619327D01*
X582516Y166549D02*
X619327D01*
X582287Y166099D02*
X619327D01*
X581999Y165649D02*
X619327D01*
X581639Y165199D02*
X619327D01*
X581184Y164749D02*
X619327D01*
X580589Y164299D02*
X619327D01*
X579817Y163849D02*
X619327D01*
X580069Y163399D02*
X619327D01*
X580811Y162949D02*
X619327D01*
X581351Y162499D02*
X619327D01*
X581770Y162049D02*
X619327D01*
X582104Y161599D02*
X619327D01*
X582371Y161149D02*
X619327D01*
X606411Y160699D02*
X619327D01*
X607290Y160249D02*
X619327D01*
X607871Y159799D02*
X619327D01*
X608303Y159349D02*
X619327D01*
X608637Y158899D02*
X619327D01*
X608896Y158449D02*
X619327D01*
X609094Y157999D02*
X619327D01*
X609238Y157549D02*
X619327D01*
X609333Y157099D02*
X619327D01*
X609383Y156649D02*
X619327D01*
X609390Y156199D02*
X619327D01*
X609352Y155749D02*
X619327D01*
X609270Y155299D02*
X619327D01*
X609141Y154849D02*
X619327D01*
X608959Y154399D02*
X619327D01*
X608720Y153949D02*
X619327D01*
X608409Y153499D02*
X619327D01*
X608009Y153049D02*
X619327D01*
X607479Y152599D02*
X619327D01*
X606718Y152149D02*
X619327D01*
X582977Y151699D02*
X619327D01*
X582977Y151249D02*
X619327D01*
X582977Y150799D02*
X619327D01*
X582977Y150349D02*
X619327D01*
X582977Y149899D02*
X619327D01*
X582977Y149449D02*
X619327D01*
X582977Y148999D02*
X619327D01*
X582977Y148549D02*
X619327D01*
X582977Y148099D02*
X619327D01*
X582977Y147649D02*
X619327D01*
X582977Y147199D02*
X619327D01*
X582977Y146749D02*
X619327D01*
X582977Y146299D02*
X619327D01*
X582977Y145849D02*
X619327D01*
X582957Y145399D02*
X619327D01*
X582848Y144949D02*
X619327D01*
X582629Y144499D02*
X619327D01*
X582255Y144049D02*
X619327D01*
X581531Y143599D02*
X619327D01*
X451077Y143149D02*
X619327D01*
X451077Y142699D02*
X619327D01*
X451077Y142249D02*
X619327D01*
X451077Y141799D02*
X619327D01*
X451077Y141349D02*
X619327D01*
X451077Y140899D02*
X619327D01*
X451077Y140449D02*
X619327D01*
X451077Y139999D02*
X619327D01*
X451077Y139549D02*
X619327D01*
X451077Y139099D02*
X619327D01*
X451077Y138649D02*
X619327D01*
X451077Y138199D02*
X619327D01*
X451077Y137749D02*
X619327D01*
X451077Y137299D02*
X619327D01*
X451077Y136849D02*
X619327D01*
X451077Y136399D02*
X619327D01*
X451077Y135949D02*
X619327D01*
X451077Y135499D02*
X619327D01*
X451077Y135049D02*
X619327D01*
X451077Y134599D02*
X619327D01*
X618653Y134149D02*
X619272D01*
X451279Y231349D02*
X619125D01*
X451729Y231799D02*
X618675D01*
X452179Y232249D02*
X618225D01*
X452629Y232699D02*
X617775D01*
X453079Y233149D02*
X617325D01*
X451077Y134149D02*
X616600D01*
X534573Y123799D02*
X615484D01*
X533950Y124249D02*
X615393D01*
X451077Y133699D02*
X615285D01*
X532695Y124699D02*
X614617D01*
X451077Y133249D02*
X614543D01*
X451077Y114349D02*
X614199D01*
X451077Y125149D02*
X614059D01*
X535031Y123349D02*
X614017D01*
X451077Y132799D02*
X614003D01*
X451077Y125599D02*
X613628D01*
X451077Y132349D02*
X613583D01*
X451077Y113899D02*
X613419D01*
X451077Y114799D02*
X613330D01*
X451077Y126049D02*
X613285D01*
X451077Y131899D02*
X613250D01*
X451077Y126499D02*
X613011D01*
X452982Y104449D02*
X612997D01*
X451077Y131449D02*
X612983D01*
X451077Y113449D02*
X612905D01*
X451077Y126949D02*
X612794D01*
X451077Y130999D02*
X612772D01*
X452532Y104899D02*
X612665D01*
X451077Y127399D02*
X612627D01*
X451077Y112999D02*
X612611D01*
X451077Y130549D02*
X612610D01*
X451077Y127849D02*
X612505D01*
X451077Y130099D02*
X612493D01*
X452082Y105349D02*
X612473D01*
X451077Y112549D02*
X612445D01*
X451077Y128299D02*
X612424D01*
X451077Y129649D02*
X612417D01*
X451632Y105799D02*
X612386D01*
X451077Y128749D02*
X612383D01*
X451077Y129199D02*
X612381D01*
X451077Y112099D02*
X612379D01*
X451077Y111649D02*
X612377D01*
X451077Y111199D02*
X612377D01*
X451077Y110749D02*
X612377D01*
X451077Y110299D02*
X612377D01*
X451077Y109849D02*
X612377D01*
X451077Y109399D02*
X612377D01*
X451077Y108949D02*
X612377D01*
X451077Y108499D02*
X612377D01*
X451077Y108049D02*
X612377D01*
X451077Y107599D02*
X612377D01*
X451077Y107149D02*
X612377D01*
X451077Y106699D02*
X612377D01*
X451182Y106249D02*
X612377D01*
X535481Y122899D02*
X611921D01*
X451077Y115249D02*
X611228D01*
X582957Y178249D02*
X603871D01*
X582948Y169249D02*
X603337D01*
X582581Y160699D02*
X603074D01*
X582932Y152149D02*
X602767D01*
X582899Y177799D02*
X602582D01*
X582881Y169699D02*
X602342D01*
X582743Y160249D02*
X602195D01*
X582790Y152599D02*
X602006D01*
X582800Y177349D02*
X601884D01*
X582773Y170149D02*
X601718D01*
X582861Y159799D02*
X601614D01*
X582528Y153049D02*
X601476D01*
X582658Y176899D02*
X601385D01*
X582621Y170599D02*
X601261D01*
X582937Y159349D02*
X601182D01*
X582079Y153499D02*
X601076D01*
X582470Y176449D02*
X601006D01*
X582422Y171049D02*
X600909D01*
X582973Y158899D02*
X600848D01*
X580841Y153949D02*
X600766D01*
X582229Y175999D02*
X600711D01*
X582169Y171499D02*
X600636D01*
X582971Y158449D02*
X600589D01*
X580737Y154399D02*
X600526D01*
X581926Y175549D02*
X600484D01*
X581851Y171949D02*
X600427D01*
X582930Y157999D02*
X600391D01*
X581295Y154849D02*
X600344D01*
X581547Y175099D02*
X600314D01*
X581453Y172399D02*
X600273D01*
X582849Y157549D02*
X600247D01*
X581726Y155299D02*
X600215D01*
X581066Y174649D02*
X600194D01*
X580944Y172849D02*
X600168D01*
X582727Y157099D02*
X600152D01*
X582069Y155749D02*
X600133D01*
X580429Y174199D02*
X600121D01*
X580260Y173299D02*
X600108D01*
X582559Y156649D02*
X600102D01*
X582343Y156199D02*
X600095D01*
X579773Y173749D02*
X600093D01*
X544448Y183649D02*
X575974D01*
X523715Y173749D02*
X575681D01*
X513815Y163849D02*
X575636D01*
X513365Y163399D02*
X575385D01*
X523265Y173299D02*
X575194D01*
X524165Y174199D02*
X575025D01*
X544652Y183199D02*
X575020D01*
X514265Y164299D02*
X574865D01*
X472365Y154399D02*
X574717D01*
X512908Y162949D02*
X574643D01*
X471915Y153949D02*
X574613D01*
X522815Y172849D02*
X574509D01*
X524615Y174649D02*
X574388D01*
X544785Y182749D02*
X574384D01*
X514715Y164749D02*
X574270D01*
X472815Y154849D02*
X574159D01*
X512220Y162499D02*
X574103D01*
X522365Y172399D02*
X574001D01*
X451077Y143599D02*
X573922D01*
X525065Y175099D02*
X573907D01*
X544854Y182299D02*
X573904D01*
X515165Y165199D02*
X573815D01*
X473265Y155299D02*
X573728D01*
X480015Y162049D02*
X573683D01*
X521915Y171949D02*
X573603D01*
X525515Y175549D02*
X573528D01*
X544864Y181849D02*
X573526D01*
X515615Y165649D02*
X573455D01*
X473715Y155749D02*
X573385D01*
X471465Y153499D02*
X573375D01*
X479565Y161599D02*
X573350D01*
X521465Y171499D02*
X573285D01*
X539778Y175999D02*
X573225D01*
X544815Y181399D02*
X573223D01*
X451077Y144049D02*
X573198D01*
X516065Y166099D02*
X573167D01*
X474165Y156199D02*
X573111D01*
X479115Y161149D02*
X573083D01*
X521015Y171049D02*
X573031D01*
X540399Y176449D02*
X572984D01*
X544703Y180949D02*
X572983D01*
X516515Y166549D02*
X572938D01*
X471015Y153049D02*
X572926D01*
X474615Y156649D02*
X572894D01*
X478665Y160699D02*
X572872D01*
X520565Y170599D02*
X572832D01*
X451077Y144499D02*
X572824D01*
X540813Y176899D02*
X572795D01*
X544524Y180499D02*
X572794D01*
X516965Y166999D02*
X572760D01*
X475065Y157099D02*
X572727D01*
X478215Y160249D02*
X572710D01*
X520115Y170149D02*
X572681D01*
X470417Y152599D02*
X572664D01*
X541106Y177349D02*
X572654D01*
X544262Y180049D02*
X572653D01*
X517415Y167449D02*
X572628D01*
X466632Y144949D02*
X572606D01*
X475515Y157549D02*
X572605D01*
X477765Y159799D02*
X572593D01*
X519665Y169699D02*
X572573D01*
X541311Y177799D02*
X572555D01*
X543894Y179599D02*
X572554D01*
X517865Y167899D02*
X572538D01*
X475965Y157999D02*
X572524D01*
X469993Y152149D02*
X572522D01*
X477315Y159349D02*
X572517D01*
X519215Y169249D02*
X572506D01*
X467730Y145399D02*
X572497D01*
X541444Y178249D02*
X572496D01*
X543360Y179149D02*
X572496D01*
X518315Y168349D02*
X572489D01*
X476415Y158449D02*
X572483D01*
X476865Y158899D02*
X572481D01*
X518765Y168799D02*
X572478D01*
X542419Y178699D02*
X572477D01*
X470169Y151699D02*
X572477D01*
X470301Y151249D02*
X572477D01*
X470391Y150799D02*
X572477D01*
X470440Y150349D02*
X572477D01*
X470451Y149899D02*
X572477D01*
X470423Y149449D02*
X572477D01*
X470355Y148999D02*
X572477D01*
X470247Y148549D02*
X572477D01*
X470095Y148099D02*
X572477D01*
X469896Y147649D02*
X572477D01*
X469642Y147199D02*
X572477D01*
X469324Y146749D02*
X572477D01*
X468925Y146299D02*
X572477D01*
X468416Y145849D02*
X572477D01*
X507529Y192649D02*
X569394D01*
X507979Y193099D02*
X568701D01*
X508429Y193549D02*
X568225D01*
X508879Y193999D02*
X567775D01*
X509329Y194449D02*
X567325D01*
X509779Y194899D02*
X566875D01*
X510229Y195349D02*
X566425D01*
X510679Y195799D02*
X565975D01*
X511129Y196249D02*
X565525D01*
X511579Y196699D02*
X565075D01*
X512029Y197149D02*
X564625D01*
X512479Y197599D02*
X564175D01*
X512929Y198049D02*
X563725D01*
X513379Y198499D02*
X563275D01*
X513829Y198949D02*
X562825D01*
X514279Y199399D02*
X562375D01*
X514729Y199849D02*
X561925D01*
X515179Y200299D02*
X561475D01*
X515629Y200749D02*
X561025D01*
X516079Y201199D02*
X560575D01*
X556590Y222349D02*
X560294D01*
X516529Y201649D02*
X560125D01*
X557443Y221899D02*
X559814D01*
X516979Y202099D02*
X559675D01*
X558037Y221449D02*
X559537D01*
X558491Y220999D02*
X559383D01*
X558851Y220549D02*
X559308D01*
X517429Y202549D02*
X559225D01*
X517879Y202999D02*
X558775D01*
X518329Y203449D02*
X558325D01*
X518779Y203899D02*
X557875D01*
X519229Y204349D02*
X557425D01*
X519679Y204799D02*
X556975D01*
X520129Y205249D02*
X556525D01*
X520579Y205699D02*
X556075D01*
X521029Y206149D02*
X555625D01*
X546590Y222349D02*
X552564D01*
X547443Y221899D02*
X551711D01*
X548037Y221449D02*
X551117D01*
X548491Y220999D02*
X550662D01*
X548851Y220549D02*
X550303D01*
X549139Y220099D02*
X550015D01*
X549371Y219649D02*
X549782D01*
X540801Y222349D02*
X542564D01*
X540403Y221899D02*
X541711D01*
X491765Y185449D02*
X541322D01*
X539814Y221449D02*
X541117D01*
X538858Y220999D02*
X540662D01*
X538851Y220549D02*
X540303D01*
X539139Y220099D02*
X540015D01*
X539371Y219649D02*
X539782D01*
X491315Y184999D02*
X539623D01*
X451077Y227749D02*
X537197D01*
X525965Y175999D02*
X536293D01*
X451077Y227299D02*
X536156D01*
X451077Y226849D02*
X535596D01*
X451077Y226399D02*
X535215D01*
X451077Y225949D02*
X534944D01*
X451077Y225499D02*
X534756D01*
X451077Y225049D02*
X534518D01*
X451077Y224599D02*
X534254D01*
X451077Y224149D02*
X533886D01*
X451077Y223699D02*
X533436D01*
X451077Y223249D02*
X532986D01*
X451077Y222799D02*
X532541D01*
X451077Y115699D02*
X532298D01*
X526590Y222349D02*
X532209D01*
X527443Y221899D02*
X531711D01*
X451077Y116149D02*
X531641D01*
X451077Y116599D02*
X531175D01*
X528037Y221449D02*
X531117D01*
X451077Y117049D02*
X530725D01*
X528491Y220999D02*
X530662D01*
X528851Y220549D02*
X530303D01*
X529139Y220099D02*
X530015D01*
X529371Y219649D02*
X529782D01*
X490865Y184549D02*
X524044D01*
X490415Y184099D02*
X523300D01*
X489965Y183649D02*
X522836D01*
X451077Y222349D02*
X522564D01*
X489515Y183199D02*
X522386D01*
X489046Y182749D02*
X521936D01*
X451077Y221899D02*
X521711D01*
X488264Y182299D02*
X521486D01*
X451077Y221449D02*
X521117D01*
X470124Y181849D02*
X521036D01*
X451077Y220999D02*
X520662D01*
X470262Y181399D02*
X520586D01*
X451077Y213799D02*
X520482D01*
X451077Y214249D02*
X520455D01*
X451077Y220549D02*
X520303D01*
X451077Y214699D02*
X520137D01*
X470365Y180949D02*
X520136D01*
X451077Y220099D02*
X520015D01*
X451077Y215149D02*
X519883D01*
X451077Y219649D02*
X519787D01*
X470428Y180499D02*
X519686D01*
X451077Y215599D02*
X519683D01*
X451077Y219199D02*
X519609D01*
X451077Y216049D02*
X519531D01*
X451077Y218749D02*
X519477D01*
X451077Y216499D02*
X519423D01*
X451077Y218299D02*
X519388D01*
X451077Y216949D02*
X519356D01*
X451077Y217849D02*
X519338D01*
X451077Y217399D02*
X519328D01*
X470452Y180049D02*
X519236D01*
X470436Y179599D02*
X518786D01*
X470382Y179149D02*
X518336D01*
X451077Y213349D02*
X517889D01*
X470288Y178699D02*
X517886D01*
X470151Y178249D02*
X517436D01*
X451077Y212899D02*
X517198D01*
X469968Y177799D02*
X516986D01*
X451077Y212449D02*
X516722D01*
X469733Y177349D02*
X516536D01*
X451077Y211999D02*
X516272D01*
X469438Y176899D02*
X516086D01*
X511888Y211549D02*
X515822D01*
X469068Y176449D02*
X515636D01*
X512744Y211099D02*
X515372D01*
X468601Y175999D02*
X515186D01*
X513254Y210649D02*
X514922D01*
X467985Y175549D02*
X514736D01*
X513607Y210199D02*
X514472D01*
X467263Y175099D02*
X514286D01*
X467642Y174649D02*
X513836D01*
X468354Y174199D02*
X513386D01*
X451077Y117499D02*
X513174D01*
X468877Y173749D02*
X512936D01*
X469286Y173299D02*
X512486D01*
X451077Y124699D02*
X512427D01*
X469612Y172849D02*
X512036D01*
X451077Y117949D02*
X511908D01*
X451077Y124249D02*
X511593D01*
X469872Y172399D02*
X511586D01*
X451077Y118399D02*
X511284D01*
X470077Y171949D02*
X511136D01*
X451077Y123799D02*
X511073D01*
X451077Y118849D02*
X510855D01*
X451077Y123349D02*
X510703D01*
X470233Y171499D02*
X510686D01*
X451077Y119299D02*
X510544D01*
X451077Y122899D02*
X510434D01*
X451077Y119749D02*
X510319D01*
X451077Y122449D02*
X510241D01*
X470346Y171049D02*
X510236D01*
X451077Y120199D02*
X510163D01*
X451077Y121999D02*
X510113D01*
X451077Y120649D02*
X510067D01*
X451077Y121549D02*
X510043D01*
X451077Y121099D02*
X510028D01*
X470418Y170599D02*
X509786D01*
X451077Y211549D02*
X509565D01*
X470450Y170149D02*
X509336D01*
X451077Y211099D02*
X508709D01*
X451077Y210649D02*
X508200D01*
X451077Y210199D02*
X507846D01*
X451077Y209749D02*
X507596D01*
X451077Y209299D02*
X507422D01*
X451077Y208849D02*
X507160D01*
X451077Y208399D02*
X506895D01*
X451077Y207949D02*
X506486D01*
X451077Y207499D02*
X506036D01*
X451077Y207049D02*
X505586D01*
X451077Y206599D02*
X505136D01*
X451077Y206149D02*
X504686D01*
X451077Y205699D02*
X504236D01*
X451077Y205249D02*
X503786D01*
X451077Y204799D02*
X503336D01*
X451077Y204349D02*
X502886D01*
X451077Y203899D02*
X502436D01*
X451077Y203449D02*
X501986D01*
X451077Y202999D02*
X501536D01*
X451077Y202549D02*
X501086D01*
X451077Y202099D02*
X500636D01*
X451077Y201649D02*
X500186D01*
X451077Y201199D02*
X499736D01*
X451077Y200749D02*
X499286D01*
X451077Y200299D02*
X498836D01*
X451077Y199849D02*
X498386D01*
X451077Y199399D02*
X497936D01*
X492665Y186349D02*
X497748D01*
X451077Y198949D02*
X497486D01*
X451077Y198499D02*
X497036D01*
X493115Y186799D02*
X497013D01*
X451077Y198049D02*
X496586D01*
X493565Y187249D02*
X496533D01*
X494015Y187699D02*
X496188D01*
X451077Y197599D02*
X496136D01*
X494465Y188149D02*
X495936D01*
X494915Y188599D02*
X495758D01*
X451077Y197149D02*
X495686D01*
X451077Y196699D02*
X495236D01*
X451077Y196249D02*
X494786D01*
X451077Y195799D02*
X494336D01*
X451077Y195349D02*
X493886D01*
X467090Y194899D02*
X493436D01*
X467990Y194449D02*
X492986D01*
X468604Y193999D02*
X492536D01*
X469071Y193549D02*
X492086D01*
X469440Y193099D02*
X491636D01*
X469735Y192649D02*
X491186D01*
X469969Y192199D02*
X490736D01*
X470152Y191749D02*
X490286D01*
X470289Y191299D02*
X489836D01*
X470383Y190849D02*
X489386D01*
X470437Y190399D02*
X488936D01*
X470452Y189949D02*
X488486D01*
X470428Y189499D02*
X488036D01*
X470365Y189049D02*
X487586D01*
X470261Y188599D02*
X487136D01*
X470115Y188149D02*
X486686D01*
X470097Y187699D02*
X486236D01*
X470443Y169699D02*
X473548D01*
X470398Y169249D02*
X472494D01*
X470313Y168799D02*
X471986D01*
X470185Y168349D02*
X471536D01*
X470097Y167899D02*
X471086D01*
X456632Y144949D02*
X463771D01*
X459409Y194899D02*
X463314D01*
X457730Y145399D02*
X462674D01*
X459923Y194449D02*
X462414D01*
X458416Y145849D02*
X461988D01*
X460218Y193999D02*
X461800D01*
X458925Y146299D02*
X461478D01*
X460384Y193549D02*
X461333D01*
X459324Y146749D02*
X461080D01*
X460453Y193099D02*
X460964D01*
X459642Y147199D02*
X460762D01*
X459896Y147649D02*
X460508D01*
X451077Y144949D02*
X453771D01*
X451077Y145399D02*
X452674D01*
X451077Y145849D02*
X451988D01*
X451179Y146299D02*
X451474D01*
G54D18*
X458079Y110225D02*
X459176Y108528D01*
X458503Y109800*
X459776Y109128*
X458079Y110225*
X458483Y109600D02*
X458609D01*
X458882D02*
X459045D01*
X458800Y109109D02*
Y109239D01*
Y109643D02*
Y109758D01*
X440069Y120757D02*
X438227Y125000D01*
X438372Y122454*
X435827Y122600*
X440069Y120757*
X438129Y121600D02*
X439703D01*
X438353Y122800D02*
X439182D01*
X438284Y124000D02*
X438661D01*
X436000Y122525D02*
Y122590D01*
X437200Y122004D02*
Y122521D01*
X438400Y121482D02*
Y124601D01*
X439600Y120961D02*
Y121838D01*
X441827Y125000D02*
X437524Y126697D01*
X439427Y125000*
X437524Y123303*
X441827Y125000*
X438305Y124000D02*
X439291D01*
X439203Y125200D02*
X441320D01*
X437857Y126400D02*
X438277D01*
X438400Y123649D02*
Y124084D01*
Y125916D02*
Y126351D01*
X439600Y124122D02*
Y125878D01*
X440800Y124595D02*
Y125405D01*
X455918Y126029D02*
X457893Y125605D01*
X457893D02*
X456518Y126029D01*
X457893Y126453*
X455918Y126029*
X457646Y126400D02*
X457721D01*
X456400Y125925D02*
Y126132D01*
X457600Y125667D02*
Y125695D01*
Y126363D02*
Y126390D01*
X441827Y125000D02*
X437524Y126697D01*
X439427Y125000*
X437524Y123303*
X441827Y125000*
X438305Y124000D02*
X439291D01*
X439203Y125200D02*
X441320D01*
X437857Y126400D02*
X438277D01*
X438400Y123649D02*
Y124084D01*
Y125916D02*
Y126351D01*
X439600Y124122D02*
Y125878D01*
X440800Y124595D02*
Y125405D01*
X200897Y187760D02*
X199200Y186663D01*
X200473Y187336*
X199800Y186063*
X200897Y187760*
X199978Y186400D02*
X200018D01*
X200649Y187600D02*
X200794D01*
X199600Y186874D02*
Y186922D01*
X200800Y187610D02*
Y187697D01*
X276100Y194200D02*
X276524Y196176D01*
X276100Y194800*
X275676Y196176*
X276100Y194200*
X275971Y194800D02*
X276100D01*
X276229*
X275713Y196000D02*
X275730D01*
X276470D02*
X276487D01*
X276400Y195597D02*
Y195773D01*
X273400Y190000D02*
X273824Y191976D01*
X273400Y190600*
X272976Y191976*
X273400Y190000*
X273400*
X273142Y191200D02*
X273215D01*
X273585D02*
X273658D01*
X459776Y108528D02*
X453304Y115000D01*
X445827*
X435827Y125000*
X451500*
X452529Y126029*
X458318*
X435827Y125000D02*
X451500D01*
X199200Y186063D02*
X220800Y207663D01*
Y214973*
X220827Y215000*
X195433Y171181D02*
X197252Y173000D01*
X264800*
X276100Y184300*
Y196600*
X263600Y175300D02*
X198794D01*
X195039Y179055*
X263600Y175300D02*
X273400Y185100D01*
Y192400*
G54D22*
X398100Y119300D02*
X399864Y118664D01*
X399000Y119300*
X399864Y119936*
X398100Y119300*
X398377Y119200D02*
X399136D01*
X399486Y119800D02*
X399679D01*
X398200Y119264D02*
Y119336D01*
X398800Y119047D02*
Y119553D01*
X399400Y118831D02*
Y119005D01*
Y119595D02*
Y119769D01*
X390069Y120757D02*
X388527Y125000D01*
X388160Y122667*
X385827Y122300*
X390069Y120757*
X389402Y121000D02*
X389981D01*
X387752Y121600D02*
X389763D01*
X386102Y122200D02*
X389545D01*
X388181Y122800D02*
X389327D01*
X388275Y123400D02*
X389109D01*
X388370Y124000D02*
X388890D01*
X388464Y124600D02*
X388672D01*
X386200Y122164D02*
Y122359D01*
X386800Y121946D02*
Y122453D01*
X387400Y121728D02*
Y122547D01*
X388000Y121510D02*
Y122641D01*
X388600Y121292D02*
Y124799D01*
X389200Y121073D02*
Y123148D01*
X389800Y120855D02*
Y121498D01*
X442090Y163764D02*
X438327Y162700D01*
X440660Y162333*
X441027Y160000*
X442090Y163764*
X440933Y160600D02*
X441196D01*
X440838Y161200D02*
X441366D01*
X440744Y161800D02*
X441535D01*
X440237Y162400D02*
X441705D01*
X439388Y163000D02*
X441875D01*
X441511Y163600D02*
X442044D01*
X438400Y162688D02*
Y162721D01*
X439000Y162594D02*
Y162890D01*
X439600Y162500D02*
Y163060D01*
X440200Y162406D02*
Y163229D01*
X440800Y161444D02*
Y163399D01*
X441400Y161321D02*
Y163569D01*
X442000Y163444D02*
Y163738D01*
X284997Y201897D02*
X283300Y201100D01*
X284361Y201261*
X284200Y200200*
X284997Y201897*
X284291Y200800D02*
X284482D01*
X283939Y201400D02*
X284764D01*
X283600Y201145D02*
Y201241D01*
X284200Y201236D02*
Y201523D01*
X284800Y201477D02*
Y201805D01*
X288300Y207800D02*
X288936Y209564D01*
X288300Y208700*
X287664Y209564*
X288300Y207800*
X288228Y208000D02*
X288372D01*
X288011Y208600D02*
X288589D01*
X287795Y209200D02*
X287932D01*
X288668D02*
X288805D01*
X287800Y209186D02*
Y209379D01*
X288400Y208077D02*
Y208836D01*
X350069Y229243D02*
X345827Y227700D01*
X348160Y227333*
X348527Y225000*
X350069Y229243*
X348464Y225400D02*
X348672D01*
X348370Y226000D02*
X348890D01*
X348275Y226600D02*
X349109D01*
X348181Y227200D02*
X349327D01*
X346102Y227800D02*
X349545D01*
X347752Y228400D02*
X349763D01*
X349402Y229000D02*
X349981D01*
X346000Y227673D02*
Y227763D01*
X346600Y227579D02*
Y227981D01*
X347200Y227484D02*
Y228199D01*
X347800Y227390D02*
Y228417D01*
X348400Y225807D02*
Y228636D01*
X349000Y226301D02*
Y228854D01*
X349600Y227952D02*
Y229072D01*
X400500Y119300D02*
X391527D01*
X385827Y125000*
X438327Y160000D02*
X442727Y164400D01*
Y199500*
X440800Y201427*
Y228000*
X437800Y231000*
X351827*
X283300Y200200D02*
X288300Y205200D01*
Y210200*
X345827Y225000D02*
X351827Y231000D01*
G54D32*
X465202Y190000D03*
X455202Y180000D03*
X465202D03*
X455202Y170000D03*
X465202D03*
X455202Y160000D03*
X465202D03*
X455202Y150000D03*
X465202D03*
X554577Y217500D03*
X544577D03*
X534577D03*
X524577D03*
X129528Y187598D03*
Y205315D03*
X105906Y187598D03*
Y205315D03*
X122727Y224800D03*
X120827Y115000D03*
X438327Y190000D03*
X428327Y180000D03*
X438327D03*
X428327Y170000D03*
X438327D03*
X428327Y160000D03*
X438327D03*
X428327Y150000D03*
X438327D03*
X577727Y158700D03*
Y168700D03*
Y178700D03*
X617627Y119000D03*
Y129000D03*
X260827Y215000D03*
X250827Y225000D03*
Y215000D03*
X240827Y225000D03*
Y215000D03*
X230827Y225000D03*
Y215000D03*
X220827Y225000D03*
Y215000D03*
X210827Y225000D03*
Y215000D03*
X200827Y225000D03*
Y215000D03*
X190827Y225000D03*
Y215000D03*
X180827Y225000D03*
Y215000D03*
X170827Y225000D03*
Y215000D03*
X160827Y225000D03*
Y215000D03*
X150827Y225000D03*
Y215000D03*
X140827Y225000D03*
Y215000D03*
X435827D03*
X425827Y225000D03*
Y215000D03*
X415827Y225000D03*
Y215000D03*
X405827Y225000D03*
Y215000D03*
X395827Y225000D03*
Y215000D03*
X385827Y225000D03*
Y215000D03*
X375827Y225000D03*
Y215000D03*
X365827Y225000D03*
Y215000D03*
X355827Y225000D03*
Y215000D03*
X345827Y225000D03*
Y215000D03*
X335827Y225000D03*
Y215000D03*
X325827Y225000D03*
Y215000D03*
X315827Y225000D03*
Y215000D03*
Y125000D03*
X325827Y115000D03*
Y125000D03*
X335827Y115000D03*
Y125000D03*
X345827Y115000D03*
Y125000D03*
X355827Y115000D03*
Y125000D03*
X365827Y115000D03*
Y125000D03*
X375827Y115000D03*
Y125000D03*
X385827Y115000D03*
Y125000D03*
X395827Y115000D03*
Y125000D03*
X405827Y115000D03*
Y125000D03*
X415827Y115000D03*
Y125000D03*
X425827Y115000D03*
Y125000D03*
X435827Y115000D03*
Y125000D03*
X140827D03*
X150827Y115000D03*
Y125000D03*
X160827Y115000D03*
Y125000D03*
X170827Y115000D03*
Y125000D03*
X180827Y115000D03*
Y125000D03*
X190827Y115000D03*
Y125000D03*
X200827Y115000D03*
Y125000D03*
X210827Y115000D03*
Y125000D03*
X220827Y115000D03*
Y125000D03*
X230827Y115000D03*
Y125000D03*
X240827Y115000D03*
Y125000D03*
X250827Y115000D03*
Y125000D03*
X260827Y115000D03*
Y125000D03*
G54D33*
X455202Y190000D03*
X564577Y217500D03*
X112727Y224800D03*
X110827Y115000D03*
X428327Y190000D03*
X577727Y148700D03*
X617627Y109000D03*
X260827Y225000D03*
X435827D03*
X315827Y115000D03*
X140827D03*
G54D36*
X339079Y221748D02*
X337816Y224790D01*
X338655Y222172*
X336036Y223011*
X339079Y221748*
X338472Y222000D02*
X338974D01*
X338069Y224000D02*
X338144D01*
X338000Y222196D02*
Y222382D01*
Y224216D02*
Y224347D01*
X340000Y210500D02*
X341200Y211700D01*
Y219627*
X335827Y225000*
G54D37*
X312114Y211288D02*
X313705Y212879D01*
X319539Y211288D02*
X317948Y212879D01*
X312114Y218712D02*
X313705Y217121D01*
X264539Y128712D02*
X262948Y127121D01*
X257114Y128712D02*
X258705Y127121D01*
X264539Y121288D02*
X262948Y122879D01*
X137114Y221288D02*
X138705Y222879D01*
X144539Y228712D02*
X142948Y227121D01*
X137114Y228712D02*
X138705Y227121D01*
X137114Y218712D02*
X138705Y217121D01*
X322114Y211288D02*
X323705Y212879D01*
X329539Y211288D02*
X327948Y212879D01*
X349539Y211288D02*
X347948Y212879D01*
X125815Y191311D02*
X127406Y189720D01*
X125815Y183886D02*
X127406Y185477D01*
X133240Y183886D02*
X131649Y185477D01*
X133240Y191311D02*
X131649Y189720D01*
X115418Y119591D02*
X112948Y117121D01*
X115418Y110409D02*
X112948Y112879D01*
X106236Y110409D02*
X108705Y112879D01*
X106236Y119591D02*
X108705Y117121D01*
X124539Y118712D02*
X122948Y117121D01*
X117114Y118712D02*
X118705Y117121D01*
X117114Y111288D02*
X118705Y112879D01*
X124539Y111288D02*
X122948Y112879D01*
X402114Y111288D02*
X403705Y112879D01*
X409539Y111288D02*
X407948Y112879D01*
X409539Y118712D02*
X407948Y117121D01*
X257114Y121288D02*
X258705Y122879D01*
X144539Y221288D02*
X142948Y222879D01*
X144539Y218712D02*
X142948Y217121D01*
X349539Y218712D02*
X347948Y217121D01*
X329539Y218712D02*
X327948Y217121D01*
X319539Y218712D02*
X317948Y217121D01*
X322114Y218712D02*
X323705Y217121D01*
X528289Y221212D02*
X526698Y219621D01*
X520864Y221212D02*
X522455Y219621D01*
X574014Y182412D02*
X575605Y180821D01*
X574014Y174988D02*
X575605Y176579D01*
X581439Y174988D02*
X579848Y176579D01*
X581439Y182412D02*
X579848Y180821D01*
G54D49*
G54D51*
X128019Y107258D03*
X157654Y108619D03*
X197210Y108125D03*
X236767Y108454D03*
X271747Y108107D03*
X306014Y107197D03*
X459776Y108528D03*
X516689Y107797D03*
X564327Y106745D03*
X542085Y106342D03*
X112200Y142000D03*
X116717Y134499D03*
X106864Y125660D03*
X114543Y122617D03*
X149829Y141125D03*
X146500Y135800D03*
X140045Y136962D03*
X191584Y139955D03*
X201086Y139000D03*
X208631Y136660D03*
X216272Y134606D03*
X281127Y114783D03*
X288123Y125392D03*
X285493Y140628D03*
X400500Y119300D03*
X398974Y143181D03*
X454527Y143100D03*
X428227Y139900D03*
X420495Y143875D03*
X478527Y144900D03*
X469402Y133029D03*
X463201Y126900D03*
X478152Y123404D03*
X481361Y112611D03*
X486778Y135083D03*
X458318Y126029D03*
X457765Y135671D03*
X513777Y121200D03*
X532077Y121000D03*
X517477D03*
X514440Y113749D03*
X506446Y110278D03*
X499077Y140800D03*
X498417Y110814D03*
X500852Y127595D03*
X501845Y134903D03*
X565727Y128800D03*
X556327Y127163D03*
X557573Y108855D03*
X548459Y144745D03*
X614965Y139674D03*
X587056Y143113D03*
X605309Y141790D03*
X607293Y112823D03*
X609939Y125521D03*
X602928Y125918D03*
X122100Y169500D03*
X110100Y170300D03*
X113674Y157682D03*
X117695Y188217D03*
X134465Y180059D03*
X142500Y157000D03*
X153800Y180400D03*
X158400Y172100D03*
X167600Y170000D03*
X172200Y180700D03*
X163681Y187261D03*
X199200Y186063D03*
X184974Y168955D03*
X177459Y177337D03*
X216500Y165300D03*
X216254Y170527D03*
X240200Y178400D03*
X240000Y166600D03*
X217700Y181600D03*
X267572Y158084D03*
X291545Y167161D03*
X293500Y177300D03*
X281140Y186700D03*
X264200Y180900D03*
X333626Y180664D03*
X314100Y162700D03*
X304346Y156455D03*
X307286Y174379D03*
X354900Y180400D03*
Y173800D03*
X348817Y149776D03*
X359056Y149950D03*
X366817Y179704D03*
X364358Y174071D03*
X338514Y174501D03*
X396718Y187958D03*
X396100Y170500D03*
X395156Y153074D03*
X384110Y177482D03*
X383555Y160030D03*
X377288Y171295D03*
X418412Y172685D03*
X483700Y155668D03*
X473682Y170245D03*
X471628Y179341D03*
X493633Y170245D03*
X483657Y175087D03*
X498379Y149335D03*
X498955Y155668D03*
X518328Y162934D03*
X520324Y157113D03*
X519659Y181728D03*
X527309Y176406D03*
X533796Y173246D03*
X533463Y161604D03*
X517127Y153545D03*
X532299Y152456D03*
X504474Y186175D03*
X496801Y178413D03*
X538077Y179000D03*
X541417Y182000D03*
X566062Y186385D03*
X561528Y180809D03*
X567613Y172344D03*
X558883Y164805D03*
X545438Y170086D03*
X541945Y152290D03*
X610468Y165731D03*
X106063Y218734D03*
X116487Y207705D03*
X108631Y195770D03*
X122832Y198187D03*
X129479Y196526D03*
X175243Y195547D03*
X161562Y195451D03*
X154914Y204507D03*
X194898Y188803D03*
X273400Y192400D03*
X276100Y196600D03*
X288300Y210200D03*
X283300Y200200D03*
X275252Y226978D03*
X281800Y218600D03*
X286302Y194620D03*
X292100Y198400D03*
X297363Y226047D03*
X299500Y212500D03*
X453527Y227000D03*
X417718Y196115D03*
X494240Y211111D03*
X488257Y192251D03*
X482662Y194514D03*
X488757Y227689D03*
X487609Y216594D03*
X477506Y211112D03*
X468400Y200319D03*
X473095Y190050D03*
X533077Y210000D03*
X526077D03*
X499327Y189750D03*
X510727Y208300D03*
X514503Y197196D03*
X505207Y211493D03*
X521227Y227100D03*
X571077Y196000D03*
X548327Y210000D03*
X538027Y224400D03*
X548598Y188880D03*
X573354Y213087D03*
X560744Y224426D03*
X549030Y224320D03*
X583654Y208929D03*
X610901Y211998D03*
X606623Y189400D03*
X597008Y194877D03*
X582691Y190200D03*
X106214Y229762D03*
X471286Y231259D03*
X536471Y230231D03*
X502785Y230622D03*
X554095Y231075D03*
X580957Y229573D03*
X611924Y229109D03*
G54D52*
X434084Y145757D02*
X438327Y148500D01*
X435145Y146818*
X436827Y150000*
X434084Y145757*
X435534Y148000D02*
X435770D01*
X437381D02*
X437553D01*
X436000Y146996D02*
Y147270D01*
Y148436D02*
Y148721D01*
X438327Y144000D02*
X439387Y148939D01*
X438327Y145500*
X437266Y148939*
X438327Y144000*
X438112Y145000D02*
X438542D01*
X437468Y148000D02*
X437556D01*
X439098D02*
X439186D01*
X439000Y147135D02*
Y147683D01*
X611627Y119000D02*
X616566Y117939D01*
X613127Y119000*
X616566Y120061*
X611627Y119000*
X616284Y118000D02*
X616369D01*
X613000Y118705D02*
Y119295D01*
X616000Y118061D02*
Y118114D01*
Y119886D02*
Y119939D01*
X126969Y220557D02*
X124227Y224800D01*
X125909Y221618*
X122727Y223300*
X126969Y220557*
X123191Y223000D02*
X123294D01*
X125178D02*
X125390D01*
X124000Y222477D02*
Y222627D01*
X428227Y139900D02*
X438327Y150000D01*
X435827Y125000D02*
X438327Y127500D01*
Y150000*
X463201Y126899D02*
Y126900D01*
X532077Y121000D02*
X517477D01*
X517277Y121200*
X513777*
X617627Y119000D02*
X534077D01*
X534077*
X532077Y121000*
X532077*
X354900Y176700D02*
X340000Y191600D01*
Y210500*
X354900Y180400D02*
Y176700D01*
Y173800*
Y176700D02*
X340000Y191600D01*
Y210500*
X140827Y209900D02*
X145727D01*
X150827Y215000*
X140827Y209900D02*
X137627D01*
X122727Y224800*
X548327Y210000D02*
X533077D01*
X526077*
X499327Y189750D02*
X519577Y210000D01*
X526077*
X571077Y196000D02*
X557077Y210000D01*
X548327*
X557077*
X564577Y217500*
G54D69*
X604743Y173681D03*
Y156358D03*
G54D87*
X195433Y171181D03*
X195039Y179055D03*
G54D90*
X447077Y120000D03*
Y110000D03*
Y107500D03*
Y102500D03*
Y140000D03*
Y150000D03*
Y160000D03*
Y170000D03*
Y180000D03*
Y190000D03*
Y200000D03*
Y210000D03*
Y220000D03*
Y230000D03*
Y235000D03*
Y237500D03*
Y130000D03*
G74*
X0Y0D02*
M02*
