*
*
G04 PADS 9.3 Build Number: 433611 generated Gerber (RS-274-X) file*
G04 PC Version=2.1*
*
%IN "NU-TINY-SDK-200-100_061"*%
*
%MOIN*%
*
%FSLAX35Y35*%
*
*
*
*
G04 PC Standard Apertures*
*
*
G04 Thermal Relief Aperture macro.*
%AMTER*
1,1,$1,0,0*
1,0,$1-$2,0,0*
21,0,$3,$4,0,0,45*
21,0,$3,$4,0,0,135*
%
*
*
G04 Annular Aperture macro.*
%AMANN*
1,1,$1,0,0*
1,0,$2,0,0*
%
*
*
G04 Odd Aperture macro.*
%AMODD*
1,1,$1,0,0*
1,0,$1-0.005,0,0*
%
*
*
G04 PC Custom Aperture Macros*
*
*
*
*
*
*
G04 PC Aperture Table*
*
%ADD016C,0.01*%
%ADD049C,0.001*%
*
*
*
*
G04 PC Circuitry*
G04 Layer Name NU-TINY-SDK-200-100_061 - circuitry*
%LPD*%
*
*
G04 PC Custom Flashes*
G04 Layer Name NU-TINY-SDK-200-100_061 - flashes*
%LPD*%
*
*
G04 PC Circuitry*
G04 Layer Name NU-TINY-SDK-200-100_061 - circuitry*
%LPD*%
*
G54D16*
G01X443077Y114000D02*
X451077D01*
Y122000*
X443077*
Y114000*
X447077Y118000D02*
Y122000D01*
X443077Y118000D02*
X451077D01*
Y126000*
X443077*
Y118000*
X447077Y122000D02*
Y126000D01*
X445577Y118000D02*
G75*
G03X448577I1500J0D01*
G01Y122000*
G03X445577I-1500J0*
G01Y118000*
X443077Y104000D02*
X451077D01*
Y112000*
X443077*
Y104000*
X447077Y108000D02*
Y112000D01*
X443077Y108000D02*
X451077D01*
Y116000*
X443077*
Y108000*
X447077Y112000D02*
Y116000D01*
X445577Y108000D02*
G03X448577I1500J0D01*
G01Y112000*
G03X445577I-1500J0*
G01Y108000*
X443077Y101500D02*
X451077D01*
Y109500*
X443077*
Y101500*
X447077Y105500D02*
Y109500D01*
X443077Y105500D02*
X451077D01*
Y113500*
X443077*
Y105500*
X447077Y109500D02*
Y113500D01*
X445577Y105500D02*
G03X448577I1500J0D01*
G01Y109500*
G03X445577I-1500J0*
G01Y105500*
X443077Y96500D02*
X451077D01*
Y104500*
X443077*
Y96500*
X447077Y100500D02*
Y104500D01*
X443077Y100500D02*
X451077D01*
Y108500*
X443077*
Y100500*
X447077Y104500D02*
Y108500D01*
X445577Y100500D02*
G03X448577I1500J0D01*
G01Y104500*
G03X445577I-1500J0*
G01Y100500*
X443077Y134000D02*
X451077D01*
Y142000*
X443077*
Y134000*
X447077Y138000D02*
Y142000D01*
X443077Y138000D02*
X451077D01*
Y146000*
X443077*
Y138000*
X447077Y142000D02*
Y146000D01*
X445577Y138000D02*
G03X448577I1500J0D01*
G01Y142000*
G03X445577I-1500J0*
G01Y138000*
X443077Y144000D02*
X451077D01*
Y152000*
X443077*
Y144000*
X447077Y148000D02*
Y152000D01*
X443077Y148000D02*
X451077D01*
Y156000*
X443077*
Y148000*
X447077Y152000D02*
Y156000D01*
X445577Y148000D02*
G03X448577I1500J0D01*
G01Y152000*
G03X445577I-1500J0*
G01Y148000*
X443077Y154000D02*
X451077D01*
Y162000*
X443077*
Y154000*
X447077Y158000D02*
Y162000D01*
X443077Y158000D02*
X451077D01*
Y166000*
X443077*
Y158000*
X447077Y162000D02*
Y166000D01*
X445577Y158000D02*
G03X448577I1500J0D01*
G01Y162000*
G03X445577I-1500J0*
G01Y158000*
X443077Y164000D02*
X451077D01*
Y172000*
X443077*
Y164000*
X447077Y168000D02*
Y172000D01*
X443077Y168000D02*
X451077D01*
Y176000*
X443077*
Y168000*
X447077Y172000D02*
Y176000D01*
X445577Y168000D02*
G03X448577I1500J0D01*
G01Y172000*
G03X445577I-1500J0*
G01Y168000*
X443077Y174000D02*
X451077D01*
Y182000*
X443077*
Y174000*
X447077Y178000D02*
Y182000D01*
X443077Y178000D02*
X451077D01*
Y186000*
X443077*
Y178000*
X447077Y182000D02*
Y186000D01*
X445577Y178000D02*
G03X448577I1500J0D01*
G01Y182000*
G03X445577I-1500J0*
G01Y178000*
X443077Y184000D02*
X451077D01*
Y192000*
X443077*
Y184000*
X447077Y188000D02*
Y192000D01*
X443077Y188000D02*
X451077D01*
Y196000*
X443077*
Y188000*
X447077Y192000D02*
Y196000D01*
X445577Y188000D02*
G03X448577I1500J0D01*
G01Y192000*
G03X445577I-1500J0*
G01Y188000*
X443077Y194000D02*
X451077D01*
Y202000*
X443077*
Y194000*
X447077Y198000D02*
Y202000D01*
X443077Y198000D02*
X451077D01*
Y206000*
X443077*
Y198000*
X447077Y202000D02*
Y206000D01*
X445577Y198000D02*
G03X448577I1500J0D01*
G01Y202000*
G03X445577I-1500J0*
G01Y198000*
X443077Y204000D02*
X451077D01*
Y212000*
X443077*
Y204000*
X447077Y208000D02*
Y212000D01*
X443077Y208000D02*
X451077D01*
Y216000*
X443077*
Y208000*
X447077Y212000D02*
Y216000D01*
X445577Y208000D02*
G03X448577I1500J0D01*
G01Y212000*
G03X445577I-1500J0*
G01Y208000*
X443077Y214000D02*
X451077D01*
Y222000*
X443077*
Y214000*
X447077Y218000D02*
Y222000D01*
X443077Y218000D02*
X451077D01*
Y226000*
X443077*
Y218000*
X447077Y222000D02*
Y226000D01*
X445577Y218000D02*
G03X448577I1500J0D01*
G01Y222000*
G03X445577I-1500J0*
G01Y218000*
X443077Y224000D02*
X451077D01*
Y232000*
X443077*
Y224000*
X447077Y228000D02*
Y232000D01*
X443077Y228000D02*
X451077D01*
Y236000*
X443077*
Y228000*
X447077Y232000D02*
Y236000D01*
X445577Y228000D02*
G03X448577I1500J0D01*
G01Y232000*
G03X445577I-1500J0*
G01Y228000*
X443077Y229000D02*
X451077D01*
Y237000*
X443077*
Y229000*
X447077Y233000D02*
Y237000D01*
X443077Y233000D02*
X451077D01*
Y241000*
X443077*
Y233000*
X447077Y237000D02*
Y241000D01*
X445577Y233000D02*
G03X448577I1500J0D01*
G01Y237000*
G03X445577I-1500J0*
G01Y233000*
X443077Y231500D02*
X451077D01*
Y239500*
X443077*
Y231500*
X447077Y235500D02*
Y239500D01*
X443077Y235500D02*
X451077D01*
Y243500*
X443077*
Y235500*
X447077Y239500D02*
Y243500D01*
X445577Y235500D02*
G03X448577I1500J0D01*
G01Y239500*
G03X445577I-1500J0*
G01Y235500*
X443077Y124000D02*
X451077D01*
Y132000*
X443077*
Y124000*
X447077Y128000D02*
Y132000D01*
X443077Y128000D02*
X451077D01*
Y136000*
X443077*
Y128000*
X447077Y132000D02*
Y136000D01*
X445577Y128000D02*
G03X448577I1500J0D01*
G01Y132000*
G03X445577I-1500J0*
G01Y128000*
X451202Y190000D02*
X459202D01*
X455202Y186000D02*
Y194000D01*
X461202Y190000D02*
X469202D01*
X465202Y186000D02*
Y194000D01*
X451202Y180000D02*
X459202D01*
X455202Y176000D02*
Y184000D01*
X461202Y180000D02*
X469202D01*
X465202Y176000D02*
Y184000D01*
X451202Y170000D02*
X459202D01*
X455202Y166000D02*
Y174000D01*
X461202Y170000D02*
X469202D01*
X465202Y166000D02*
Y174000D01*
X451202Y160000D02*
X459202D01*
X455202Y156000D02*
Y164000D01*
X461202Y160000D02*
X469202D01*
X465202Y156000D02*
Y164000D01*
X451202Y150000D02*
X459202D01*
X455202Y146000D02*
Y154000D01*
X461202Y150000D02*
X469202D01*
X465202Y146000D02*
Y154000D01*
X191433Y167181D02*
X199433Y175181D01*
X191433D02*
X199433Y167181D01*
X191039Y175055D02*
X199039Y183055D01*
X191039D02*
X199039Y175055D01*
X560577Y217500D02*
X568577D01*
X564577Y213500D02*
Y221500D01*
X550577Y217500D02*
X558577D01*
X554577Y213500D02*
Y221500D01*
X540577Y217500D02*
X548577D01*
X544577Y213500D02*
Y221500D01*
X530577Y217500D02*
X538577D01*
X534577Y213500D02*
Y221500D01*
X520577Y217500D02*
X528577D01*
X524577Y213500D02*
Y221500D01*
X125528Y187598D02*
X133528D01*
X129528Y183598D02*
Y191598D01*
X125528Y205315D02*
X133528D01*
X129528Y201315D02*
Y209315D01*
X101906Y187598D02*
X109906D01*
X105906Y183598D02*
Y191598D01*
X101906Y205315D02*
X109906D01*
X105906Y201315D02*
Y209315D01*
X112727Y220800D02*
X116727Y224800D01*
X112727Y228800*
X108727Y224800*
X112727Y220800*
Y224800D02*
Y228800D01*
X122727Y220800D02*
X126727Y224800D01*
X122727Y228800*
X118727Y224800*
X122727Y220800*
Y224800D02*
Y228800D01*
X110827Y111000D02*
X114827Y115000D01*
X110827Y119000*
X106827Y115000*
X110827Y111000*
Y115000D02*
Y119000D01*
X120827Y111000D02*
X124827Y115000D01*
X120827Y119000*
X116827Y115000*
X120827Y111000*
Y115000D02*
Y119000D01*
X424327Y190000D02*
X432327D01*
X428327Y186000D02*
Y194000D01*
X434327Y190000D02*
X442327D01*
X438327Y186000D02*
Y194000D01*
X424327Y180000D02*
X432327D01*
X428327Y176000D02*
Y184000D01*
X434327Y180000D02*
X442327D01*
X438327Y176000D02*
Y184000D01*
X424327Y170000D02*
X432327D01*
X428327Y166000D02*
Y174000D01*
X434327Y170000D02*
X442327D01*
X438327Y166000D02*
Y174000D01*
X424327Y160000D02*
X432327D01*
X428327Y156000D02*
Y164000D01*
X434327Y160000D02*
X442327D01*
X438327Y156000D02*
Y164000D01*
X424327Y150000D02*
X432327D01*
X428327Y146000D02*
Y154000D01*
X434327Y150000D02*
X442327D01*
X438327Y146000D02*
Y154000D01*
X600743Y169681D02*
X608743D01*
X600743Y177681*
X608743*
X600743Y169681*
Y152358D02*
X608743D01*
X600743Y160358*
X608743*
X600743Y152358*
X577727Y144700D02*
X581727Y148700D01*
X577727Y152700*
X573727Y148700*
X577727Y144700*
Y148700D02*
Y152700D01*
Y154700D02*
X581727Y158700D01*
X577727Y162700*
X573727Y158700*
X577727Y154700*
Y158700D02*
Y162700D01*
Y164700D02*
X581727Y168700D01*
X577727Y172700*
X573727Y168700*
X577727Y164700*
Y168700D02*
Y172700D01*
Y174700D02*
X581727Y178700D01*
X577727Y182700*
X573727Y178700*
X577727Y174700*
Y178700D02*
Y182700D01*
X617627Y105000D02*
X621627Y109000D01*
X617627Y113000*
X613627Y109000*
X617627Y105000*
Y109000D02*
Y113000D01*
Y115000D02*
X621627Y119000D01*
X617627Y123000*
X613627Y119000*
X617627Y115000*
Y119000D02*
Y123000D01*
Y125000D02*
X621627Y129000D01*
X617627Y133000*
X613627Y129000*
X617627Y125000*
Y129000D02*
Y133000D01*
X256827Y225000D02*
X264827D01*
X260827Y221000D02*
Y229000D01*
X256827Y215000D02*
X264827D01*
X260827Y211000D02*
Y219000D01*
X246827Y225000D02*
X254827D01*
X250827Y221000D02*
Y229000D01*
X246827Y215000D02*
X254827D01*
X250827Y211000D02*
Y219000D01*
X236827Y225000D02*
X244827D01*
X240827Y221000D02*
Y229000D01*
X236827Y215000D02*
X244827D01*
X240827Y211000D02*
Y219000D01*
X226827Y225000D02*
X234827D01*
X230827Y221000D02*
Y229000D01*
X226827Y215000D02*
X234827D01*
X230827Y211000D02*
Y219000D01*
X216827Y225000D02*
X224827D01*
X220827Y221000D02*
Y229000D01*
X216827Y215000D02*
X224827D01*
X220827Y211000D02*
Y219000D01*
X206827Y225000D02*
X214827D01*
X210827Y221000D02*
Y229000D01*
X206827Y215000D02*
X214827D01*
X210827Y211000D02*
Y219000D01*
X196827Y225000D02*
X204827D01*
X200827Y221000D02*
Y229000D01*
X196827Y215000D02*
X204827D01*
X200827Y211000D02*
Y219000D01*
X186827Y225000D02*
X194827D01*
X190827Y221000D02*
Y229000D01*
X186827Y215000D02*
X194827D01*
X190827Y211000D02*
Y219000D01*
X176827Y225000D02*
X184827D01*
X180827Y221000D02*
Y229000D01*
X176827Y215000D02*
X184827D01*
X180827Y211000D02*
Y219000D01*
X166827Y225000D02*
X174827D01*
X170827Y221000D02*
Y229000D01*
X166827Y215000D02*
X174827D01*
X170827Y211000D02*
Y219000D01*
X156827Y225000D02*
X164827D01*
X160827Y221000D02*
Y229000D01*
X156827Y215000D02*
X164827D01*
X160827Y211000D02*
Y219000D01*
X146827Y225000D02*
X154827D01*
X150827Y221000D02*
Y229000D01*
X146827Y215000D02*
X154827D01*
X150827Y211000D02*
Y219000D01*
X136827Y225000D02*
X144827D01*
X140827Y221000D02*
Y229000D01*
X136827Y215000D02*
X144827D01*
X140827Y211000D02*
Y219000D01*
X431827Y225000D02*
X439827D01*
X435827Y221000D02*
Y229000D01*
X431827Y215000D02*
X439827D01*
X435827Y211000D02*
Y219000D01*
X421827Y225000D02*
X429827D01*
X425827Y221000D02*
Y229000D01*
X421827Y215000D02*
X429827D01*
X425827Y211000D02*
Y219000D01*
X411827Y225000D02*
X419827D01*
X415827Y221000D02*
Y229000D01*
X411827Y215000D02*
X419827D01*
X415827Y211000D02*
Y219000D01*
X401827Y225000D02*
X409827D01*
X405827Y221000D02*
Y229000D01*
X401827Y215000D02*
X409827D01*
X405827Y211000D02*
Y219000D01*
X391827Y225000D02*
X399827D01*
X395827Y221000D02*
Y229000D01*
X391827Y215000D02*
X399827D01*
X395827Y211000D02*
Y219000D01*
X381827Y225000D02*
X389827D01*
X385827Y221000D02*
Y229000D01*
X381827Y215000D02*
X389827D01*
X385827Y211000D02*
Y219000D01*
X371827Y225000D02*
X379827D01*
X375827Y221000D02*
Y229000D01*
X371827Y215000D02*
X379827D01*
X375827Y211000D02*
Y219000D01*
X361827Y225000D02*
X369827D01*
X365827Y221000D02*
Y229000D01*
X361827Y215000D02*
X369827D01*
X365827Y211000D02*
Y219000D01*
X351827Y225000D02*
X359827D01*
X355827Y221000D02*
Y229000D01*
X351827Y215000D02*
X359827D01*
X355827Y211000D02*
Y219000D01*
X341827Y225000D02*
X349827D01*
X345827Y221000D02*
Y229000D01*
X341827Y215000D02*
X349827D01*
X345827Y211000D02*
Y219000D01*
X331827Y225000D02*
X339827D01*
X335827Y221000D02*
Y229000D01*
X331827Y215000D02*
X339827D01*
X335827Y211000D02*
Y219000D01*
X321827Y225000D02*
X329827D01*
X325827Y221000D02*
Y229000D01*
X321827Y215000D02*
X329827D01*
X325827Y211000D02*
Y219000D01*
X311827Y225000D02*
X319827D01*
X315827Y221000D02*
Y229000D01*
X311827Y215000D02*
X319827D01*
X315827Y211000D02*
Y219000D01*
X311827Y115000D02*
X319827D01*
X315827Y111000D02*
Y119000D01*
X311827Y125000D02*
X319827D01*
X315827Y121000D02*
Y129000D01*
X321827Y115000D02*
X329827D01*
X325827Y111000D02*
Y119000D01*
X321827Y125000D02*
X329827D01*
X325827Y121000D02*
Y129000D01*
X331827Y115000D02*
X339827D01*
X335827Y111000D02*
Y119000D01*
X331827Y125000D02*
X339827D01*
X335827Y121000D02*
Y129000D01*
X341827Y115000D02*
X349827D01*
X345827Y111000D02*
Y119000D01*
X341827Y125000D02*
X349827D01*
X345827Y121000D02*
Y129000D01*
X351827Y115000D02*
X359827D01*
X355827Y111000D02*
Y119000D01*
X351827Y125000D02*
X359827D01*
X355827Y121000D02*
Y129000D01*
X361827Y115000D02*
X369827D01*
X365827Y111000D02*
Y119000D01*
X361827Y125000D02*
X369827D01*
X365827Y121000D02*
Y129000D01*
X371827Y115000D02*
X379827D01*
X375827Y111000D02*
Y119000D01*
X371827Y125000D02*
X379827D01*
X375827Y121000D02*
Y129000D01*
X381827Y115000D02*
X389827D01*
X385827Y111000D02*
Y119000D01*
X381827Y125000D02*
X389827D01*
X385827Y121000D02*
Y129000D01*
X391827Y115000D02*
X399827D01*
X395827Y111000D02*
Y119000D01*
X391827Y125000D02*
X399827D01*
X395827Y121000D02*
Y129000D01*
X401827Y115000D02*
X409827D01*
X405827Y111000D02*
Y119000D01*
X401827Y125000D02*
X409827D01*
X405827Y121000D02*
Y129000D01*
X411827Y115000D02*
X419827D01*
X415827Y111000D02*
Y119000D01*
X411827Y125000D02*
X419827D01*
X415827Y121000D02*
Y129000D01*
X421827Y115000D02*
X429827D01*
X425827Y111000D02*
Y119000D01*
X421827Y125000D02*
X429827D01*
X425827Y121000D02*
Y129000D01*
X431827Y115000D02*
X439827D01*
X435827Y111000D02*
Y119000D01*
X431827Y125000D02*
X439827D01*
X435827Y121000D02*
Y129000D01*
X136827Y115000D02*
X144827D01*
X140827Y111000D02*
Y119000D01*
X136827Y125000D02*
X144827D01*
X140827Y121000D02*
Y129000D01*
X146827Y115000D02*
X154827D01*
X150827Y111000D02*
Y119000D01*
X146827Y125000D02*
X154827D01*
X150827Y121000D02*
Y129000D01*
X156827Y115000D02*
X164827D01*
X160827Y111000D02*
Y119000D01*
X156827Y125000D02*
X164827D01*
X160827Y121000D02*
Y129000D01*
X166827Y115000D02*
X174827D01*
X170827Y111000D02*
Y119000D01*
X166827Y125000D02*
X174827D01*
X170827Y121000D02*
Y129000D01*
X176827Y115000D02*
X184827D01*
X180827Y111000D02*
Y119000D01*
X176827Y125000D02*
X184827D01*
X180827Y121000D02*
Y129000D01*
X186827Y115000D02*
X194827D01*
X190827Y111000D02*
Y119000D01*
X186827Y125000D02*
X194827D01*
X190827Y121000D02*
Y129000D01*
X196827Y115000D02*
X204827D01*
X200827Y111000D02*
Y119000D01*
X196827Y125000D02*
X204827D01*
X200827Y121000D02*
Y129000D01*
X206827Y115000D02*
X214827D01*
X210827Y111000D02*
Y119000D01*
X206827Y125000D02*
X214827D01*
X210827Y121000D02*
Y129000D01*
X216827Y115000D02*
X224827D01*
X220827Y111000D02*
Y119000D01*
X216827Y125000D02*
X224827D01*
X220827Y121000D02*
Y129000D01*
X226827Y115000D02*
X234827D01*
X230827Y111000D02*
Y119000D01*
X226827Y125000D02*
X234827D01*
X230827Y121000D02*
Y129000D01*
X236827Y115000D02*
X244827D01*
X240827Y111000D02*
Y119000D01*
X236827Y125000D02*
X244827D01*
X240827Y121000D02*
Y129000D01*
X246827Y115000D02*
X254827D01*
X250827Y111000D02*
Y119000D01*
X246827Y125000D02*
X254827D01*
X250827Y121000D02*
Y129000D01*
X256827Y115000D02*
X264827D01*
X260827Y111000D02*
Y119000D01*
X256827Y125000D02*
X264827D01*
X260827Y121000D02*
Y129000D01*
X124019Y103258D02*
X132019Y111258D01*
Y103258*
X124019Y111258*
Y103258*
X153654Y104619D02*
X161654Y112619D01*
Y104619*
X153654Y112619*
Y104619*
X193210Y104125D02*
X201210Y112125D01*
Y104125*
X193210Y112125*
Y104125*
X232767Y104454D02*
X240767Y112454D01*
Y104454*
X232767Y112454*
Y104454*
X267747Y104107D02*
X275747Y112107D01*
Y104107*
X267747Y112107*
Y104107*
X302014Y103197D02*
X310014Y111197D01*
X310014D02*
Y103197D01*
X310014D02*
X302014Y111197D01*
X302014D02*
Y103197D01*
X455776Y104528D02*
X463776Y112528D01*
Y104528*
X455776Y112528*
Y104528*
X512689Y103797D02*
X520689Y111797D01*
Y103797*
X512689Y111797*
Y103797*
X560327Y102745D02*
X568327Y110745D01*
Y102745*
X560327Y110745*
Y102745*
X538085Y102342D02*
X546085Y110342D01*
Y102342*
X538085Y110342*
Y102342*
X108200Y138000D02*
X116200Y146000D01*
Y138000*
X108200Y146000*
Y138000*
X112717Y130499D02*
X120717Y138499D01*
Y130499*
X112717Y138499*
Y130499*
X102864Y121660D02*
X110864Y129660D01*
Y121660*
X102864Y129660*
Y121660*
X110543Y118617D02*
X118543Y126617D01*
Y118617*
X110543Y126617*
Y118617*
X145829Y137125D02*
X153829Y145125D01*
Y137125*
X145829Y145125*
Y137125*
X142500Y131800D02*
X150500Y139800D01*
Y131800*
X142500Y139800*
Y131800*
X136045Y132962D02*
X144045Y140962D01*
Y132962*
X136045Y140962*
Y132962*
X187584Y135955D02*
X195584Y143955D01*
Y135955*
X187584Y143955*
Y135955*
X197086Y135000D02*
X205086Y143000D01*
Y135000*
X197086Y143000*
Y135000*
X204631Y132660D02*
X212631Y140660D01*
Y132660*
X204631Y140660*
Y132660*
X212272Y130606D02*
X220272Y138606D01*
Y130606*
X212272Y138606*
Y130606*
X277127Y110783D02*
X285127Y118783D01*
Y110783*
X277127Y118783*
Y110783*
X284123Y121392D02*
X292123Y129392D01*
Y121392*
X284123Y129392*
Y121392*
X281493Y136628D02*
X289493Y144628D01*
Y136628*
X281493Y144628*
Y136628*
X396500Y115300D02*
X404500Y123300D01*
Y115300*
X396500Y123300*
Y115300*
X394974Y139181D02*
X402974Y147181D01*
Y139181*
X394974Y147181*
Y139181*
X450527Y139100D02*
X458527Y147100D01*
Y139100*
X450527Y147100*
Y139100*
X424227Y135900D02*
X432227Y143900D01*
Y135900*
X424227Y143900*
Y135900*
X416495Y139875D02*
X424495Y147875D01*
Y139875*
X416495Y147875*
Y139875*
X474527Y140900D02*
X482527Y148900D01*
Y140900*
X474527Y148900*
Y140900*
X465402Y129029D02*
X473402Y137029D01*
Y129029*
X465402Y137029*
Y129029*
X459201Y122900D02*
X467201Y130900D01*
Y122900*
X459201Y130900*
Y122900*
X474152Y119404D02*
X482152Y127404D01*
Y119404*
X474152Y127404*
Y119404*
X477361Y108611D02*
X485361Y116611D01*
Y108611*
X477361Y116611*
Y108611*
X482778Y131083D02*
X490778Y139083D01*
Y131083*
X482778Y139083*
Y131083*
X454318Y122029D02*
X462318Y130029D01*
Y122029*
X454318Y130029*
Y122029*
X453765Y131671D02*
X461765Y139671D01*
Y131671*
X453765Y139671*
Y131671*
X509777Y117200D02*
X517777Y125200D01*
Y117200*
X509777Y125200*
Y117200*
X528077Y117000D02*
X536077Y125000D01*
Y117000*
X528077Y125000*
Y117000*
X513477D02*
X521477Y125000D01*
Y117000*
X513477Y125000*
Y117000*
X510440Y109749D02*
X518440Y117749D01*
Y109749*
X510440Y117749*
Y109749*
X502446Y106278D02*
X510446Y114278D01*
Y106278*
X502446Y114278*
Y106278*
X495077Y136800D02*
X503077Y144800D01*
Y136800*
X495077Y144800*
Y136800*
X494417Y106814D02*
X502417Y114814D01*
Y106814*
X494417Y114814*
Y106814*
X496852Y123595D02*
X504852Y131595D01*
Y123595*
X496852Y131595*
Y123595*
X497845Y130903D02*
X505845Y138903D01*
Y130903*
X497845Y138903*
Y130903*
X561727Y124800D02*
X569727Y132800D01*
Y124800*
X561727Y132800*
Y124800*
X552327Y123163D02*
X560327Y131163D01*
Y123163*
X552327Y131163*
Y123163*
X553573Y104855D02*
X561573Y112855D01*
Y104855*
X553573Y112855*
Y104855*
X544459Y140745D02*
X552459Y148745D01*
Y140745*
X544459Y148745*
Y140745*
X610965Y135674D02*
X618965Y143674D01*
Y135674*
X610965Y143674*
Y135674*
X583056Y139113D02*
X591056Y147113D01*
Y139113*
X583056Y147113*
Y139113*
X601309Y137790D02*
X609309Y145790D01*
Y137790*
X601309Y145790*
Y137790*
X603293Y108823D02*
X611293Y116823D01*
Y108823*
X603293Y116823*
Y108823*
X605939Y121521D02*
X613939Y129521D01*
Y121521*
X605939Y129521*
Y121521*
X598928Y121918D02*
X606928Y129918D01*
Y121918*
X598928Y129918*
Y121918*
X118100Y165500D02*
X126100Y173500D01*
Y165500*
X118100Y173500*
Y165500*
X106100Y166300D02*
X114100Y174300D01*
Y166300*
X106100Y174300*
Y166300*
X109674Y153682D02*
X117674Y161682D01*
Y153682*
X109674Y161682*
Y153682*
X113695Y184217D02*
X121695Y192217D01*
Y184217*
X113695Y192217*
Y184217*
X130465Y176059D02*
X138465Y184059D01*
Y176059*
X130465Y184059*
Y176059*
X138500Y153000D02*
X146500Y161000D01*
Y153000*
X138500Y161000*
Y153000*
X149800Y176400D02*
X157800Y184400D01*
Y176400*
X149800Y184400*
Y176400*
X154400Y168100D02*
X162400Y176100D01*
Y168100*
X154400Y176100*
Y168100*
X163600Y166000D02*
X171600Y174000D01*
Y166000*
X163600Y174000*
Y166000*
X168200Y176700D02*
X176200Y184700D01*
Y176700*
X168200Y184700*
Y176700*
X159681Y183261D02*
X167681Y191261D01*
Y183261*
X159681Y191261*
Y183261*
X195200Y182063D02*
X203200Y190063D01*
Y182063*
X195200Y190063*
Y182063*
X180974Y164955D02*
X188974Y172955D01*
Y164955*
X180974Y172955*
Y164955*
X173459Y173337D02*
X181459Y181337D01*
Y173337*
X173459Y181337*
Y173337*
X212500Y161300D02*
X220500Y169300D01*
Y161300*
X212500Y169300*
Y161300*
X212254Y166527D02*
X220254Y174527D01*
Y166527*
X212254Y174527*
Y166527*
X236200Y174400D02*
X244200Y182400D01*
Y174400*
X236200Y182400*
Y174400*
X236000Y162600D02*
X244000Y170600D01*
Y162600*
X236000Y170600*
Y162600*
X213700Y177600D02*
X221700Y185600D01*
Y177600*
X213700Y185600*
Y177600*
X263572Y154084D02*
X271572Y162084D01*
Y154084*
X263572Y162084*
Y154084*
X287545Y163161D02*
X295545Y171161D01*
Y163161*
X287545Y171161*
Y163161*
X289500Y173300D02*
X297500Y181300D01*
Y173300*
X289500Y181300*
Y173300*
X277140Y182700D02*
X285140Y190700D01*
Y182700*
X277140Y190700*
Y182700*
X260200Y176900D02*
X268200Y184900D01*
Y176900*
X260200Y184900*
Y176900*
X329626Y176664D02*
X337626Y184664D01*
Y176664*
X329626Y184664*
Y176664*
X310100Y158700D02*
X318100Y166700D01*
Y158700*
X310100Y166700*
Y158700*
X300346Y152455D02*
X308346Y160455D01*
Y152455*
X300346Y160455*
Y152455*
X303286Y170379D02*
X311286Y178379D01*
Y170379*
X303286Y178379*
Y170379*
X350900Y176400D02*
X358900Y184400D01*
Y176400*
X350900Y184400*
Y176400*
Y169800D02*
X358900Y177800D01*
Y169800*
X350900Y177800*
Y169800*
X344817Y145776D02*
X352817Y153776D01*
Y145776*
X344817Y153776*
Y145776*
X355056Y145950D02*
X363056Y153950D01*
Y145950*
X355056Y153950*
Y145950*
X362817Y175704D02*
X370817Y183704D01*
Y175704*
X362817Y183704*
Y175704*
X360358Y170071D02*
X368358Y178071D01*
Y170071*
X360358Y178071*
Y170071*
X334514Y170501D02*
X342514Y178501D01*
Y170501*
X334514Y178501*
Y170501*
X392718Y183958D02*
X400718Y191958D01*
Y183958*
X392718Y191958*
Y183958*
X392100Y166500D02*
X400100Y174500D01*
Y166500*
X392100Y174500*
Y166500*
X391156Y149074D02*
X399156Y157074D01*
Y149074*
X391156Y157074*
Y149074*
X380110Y173482D02*
X388110Y181482D01*
Y173482*
X380110Y181482*
Y173482*
X379555Y156030D02*
X387555Y164030D01*
Y156030*
X379555Y164030*
Y156030*
X373288Y167295D02*
X381288Y175295D01*
Y167295*
X373288Y175295*
Y167295*
X414412Y168685D02*
X422412Y176685D01*
Y168685*
X414412Y176685*
Y168685*
X479700Y151668D02*
X487700Y159668D01*
Y151668*
X479700Y159668*
Y151668*
X469682Y166245D02*
X477682Y174245D01*
Y166245*
X469682Y174245*
Y166245*
X467628Y175341D02*
X475628Y183341D01*
Y175341*
X467628Y183341*
Y175341*
X489633Y166245D02*
X497633Y174245D01*
Y166245*
X489633Y174245*
Y166245*
X479657Y171087D02*
X487657Y179087D01*
Y171087*
X479657Y179087*
Y171087*
X494379Y145335D02*
X502379Y153335D01*
Y145335*
X494379Y153335*
Y145335*
X494955Y151668D02*
X502955Y159668D01*
Y151668*
X494955Y159668*
Y151668*
X514328Y158934D02*
X522328Y166934D01*
Y158934*
X514328Y166934*
Y158934*
X516324Y153113D02*
X524324Y161113D01*
Y153113*
X516324Y161113*
Y153113*
X515659Y177728D02*
X523659Y185728D01*
Y177728*
X515659Y185728*
Y177728*
X523309Y172406D02*
X531309Y180406D01*
Y172406*
X523309Y180406*
Y172406*
X529796Y169246D02*
X537796Y177246D01*
Y169246*
X529796Y177246*
Y169246*
X529463Y157604D02*
X537463Y165604D01*
Y157604*
X529463Y165604*
Y157604*
X513127Y149545D02*
X521127Y157545D01*
Y149545*
X513127Y157545*
Y149545*
X528299Y148456D02*
X536299Y156456D01*
Y148456*
X528299Y156456*
Y148456*
X500474Y182175D02*
X508474Y190175D01*
Y182175*
X500474Y190175*
Y182175*
X492801Y174413D02*
X500801Y182413D01*
Y174413*
X492801Y182413*
Y174413*
X534077Y175000D02*
X542077Y183000D01*
Y175000*
X534077Y183000*
Y175000*
X537417Y178000D02*
X545417Y186000D01*
Y178000*
X537417Y186000*
Y178000*
X562062Y182385D02*
X570062Y190385D01*
Y182385*
X562062Y190385*
Y182385*
X557528Y176809D02*
X565528Y184809D01*
Y176809*
X557528Y184809*
Y176809*
X563613Y168344D02*
X571613Y176344D01*
Y168344*
X563613Y176344*
Y168344*
X554883Y160805D02*
X562883Y168805D01*
Y160805*
X554883Y168805*
Y160805*
X541438Y166086D02*
X549438Y174086D01*
Y166086*
X541438Y174086*
Y166086*
X537945Y148290D02*
X545945Y156290D01*
Y148290*
X537945Y156290*
Y148290*
X606468Y161731D02*
X614468Y169731D01*
Y161731*
X606468Y169731*
Y161731*
X102063Y214734D02*
X110063Y222734D01*
X110063D02*
Y214734D01*
X110063D02*
X102063Y222734D01*
X102063D02*
Y214734D01*
X112487Y203705D02*
X120487Y211705D01*
Y203705*
X112487Y211705*
Y203705*
X104631Y191770D02*
X112631Y199770D01*
Y191770*
X104631Y199770*
Y191770*
X118832Y194187D02*
X126832Y202187D01*
Y194187*
X118832Y202187*
Y194187*
X125479Y192526D02*
X133479Y200526D01*
Y192526*
X125479Y200526*
Y192526*
X171243Y191547D02*
X179243Y199547D01*
Y191547*
X171243Y199547*
Y191547*
X157562Y191451D02*
X165562Y199451D01*
Y191451*
X157562Y199451*
Y191451*
X150914Y200507D02*
X158914Y208507D01*
Y200507*
X150914Y208507*
Y200507*
X190898Y184803D02*
X198898Y192803D01*
Y184803*
X190898Y192803*
Y184803*
X269400Y188400D02*
X277400Y196400D01*
Y188400*
X269400Y196400*
Y188400*
X272100Y192600D02*
X280100Y200600D01*
Y192600*
X272100Y200600*
Y192600*
X284300Y206200D02*
X292300Y214200D01*
Y206200*
X284300Y214200*
Y206200*
X279300Y196200D02*
X287300Y204200D01*
Y196200*
X279300Y204200*
Y196200*
X271252Y222978D02*
X279252Y230978D01*
Y222978*
X271252Y230978*
Y222978*
X277800Y214600D02*
X285800Y222600D01*
Y214600*
X277800Y222600*
Y214600*
X282302Y190620D02*
X290302Y198620D01*
Y190620*
X282302Y198620*
Y190620*
X288100Y194400D02*
X296100Y202400D01*
Y194400*
X288100Y202400*
Y194400*
X293363Y222047D02*
X301363Y230047D01*
X301363D02*
Y222047D01*
X301363D02*
X293363Y230047D01*
X293363D02*
Y222047D01*
X295500Y208500D02*
X303500Y216500D01*
Y208500*
X295500Y216500*
Y208500*
X449527Y223000D02*
X457527Y231000D01*
Y223000*
X449527Y231000*
Y223000*
X413718Y192115D02*
X421718Y200115D01*
Y192115*
X413718Y200115*
Y192115*
X490240Y207111D02*
X498240Y215111D01*
Y207111*
X490240Y215111*
Y207111*
X484257Y188251D02*
X492257Y196251D01*
Y188251*
X484257Y196251*
Y188251*
X478662Y190514D02*
X486662Y198514D01*
Y190514*
X478662Y198514*
Y190514*
X484757Y223689D02*
X492757Y231689D01*
Y223689*
X484757Y231689*
Y223689*
X483609Y212594D02*
X491609Y220594D01*
Y212594*
X483609Y220594*
Y212594*
X473506Y207112D02*
X481506Y215112D01*
Y207112*
X473506Y215112*
Y207112*
X464400Y196319D02*
X472400Y204319D01*
Y196319*
X464400Y204319*
Y196319*
X469095Y186050D02*
X477095Y194050D01*
Y186050*
X469095Y194050*
Y186050*
X529077Y206000D02*
X537077Y214000D01*
Y206000*
X529077Y214000*
Y206000*
X522077D02*
X530077Y214000D01*
Y206000*
X522077Y214000*
Y206000*
X495327Y185750D02*
X503327Y193750D01*
Y185750*
X495327Y193750*
Y185750*
X506727Y204300D02*
X514727Y212300D01*
Y204300*
X506727Y212300*
Y204300*
X510503Y193196D02*
X518503Y201196D01*
Y193196*
X510503Y201196*
Y193196*
X501207Y207493D02*
X509207Y215493D01*
Y207493*
X501207Y215493*
Y207493*
X517227Y223100D02*
X525227Y231100D01*
Y223100*
X517227Y231100*
Y223100*
X567077Y192000D02*
X575077Y200000D01*
Y192000*
X567077Y200000*
Y192000*
X544327Y206000D02*
X552327Y214000D01*
Y206000*
X544327Y214000*
Y206000*
X534027Y220400D02*
X542027Y228400D01*
Y220400*
X534027Y228400*
Y220400*
X544598Y184880D02*
X552598Y192880D01*
Y184880*
X544598Y192880*
Y184880*
X569354Y209087D02*
X577354Y217087D01*
Y209087*
X569354Y217087*
Y209087*
X556744Y220426D02*
X564744Y228426D01*
Y220426*
X556744Y228426*
Y220426*
X545030Y220320D02*
X553030Y228320D01*
Y220320*
X545030Y228320*
Y220320*
X579654Y204929D02*
X587654Y212929D01*
Y204929*
X579654Y212929*
Y204929*
X606901Y207998D02*
X614901Y215998D01*
Y207998*
X606901Y215998*
Y207998*
X602623Y185400D02*
X610623Y193400D01*
Y185400*
X602623Y193400*
Y185400*
X593008Y190877D02*
X601008Y198877D01*
Y190877*
X593008Y198877*
Y190877*
X578691Y186200D02*
X586691Y194200D01*
Y186200*
X578691Y194200*
Y186200*
X102214Y225762D02*
X110214Y233762D01*
Y225762*
X102214Y233762*
Y225762*
X467286Y227259D02*
X475286Y235259D01*
Y227259*
X467286Y235259*
Y227259*
X532471Y226231D02*
X540471Y234231D01*
Y226231*
X532471Y234231*
Y226231*
X498785Y226622D02*
X506785Y234622D01*
Y226622*
X498785Y234622*
Y226622*
X550095Y227075D02*
X558095Y235075D01*
Y227075*
X550095Y235075*
Y227075*
X576957Y225573D02*
X584957Y233573D01*
Y225573*
X576957Y233573*
Y225573*
X607924Y225109D02*
X615924Y233109D01*
Y225109*
X607924Y233109*
Y225109*
X100000Y100000D02*
X623597D01*
Y237795*
X100000*
Y100000*
X644077D02*
Y162148D01*
Y100000D02*
X641577Y110000D01*
X646577*
X644077Y100000*
Y237795D02*
Y175648D01*
Y237795D02*
X646577Y227795D01*
X641577*
X644077Y237795*
X628597Y100000D02*
X649077D01*
X628597Y237795D02*
X649077D01*
X628850Y171710D02*
X631350D01*
X631350D02*
X629986Y169210D01*
X630668*
X631122Y168898*
X631350Y168585*
X631350D02*
X631577Y167648D01*
Y167023*
X631350Y166085*
X631350D02*
X630895Y165460D01*
X630213Y165148*
X629531*
X628850Y165460*
X628850D02*
X628622Y165773D01*
X628395Y166398*
X636577Y171710D02*
X634304D01*
X634077Y168898*
X634304Y169210*
X634986Y169523*
X635668*
X636350Y169210*
X636350D02*
X636804Y168585D01*
X637031Y167648*
X636804Y167023*
X636577Y166085*
X636122Y165460*
X635440Y165148*
X634759*
X634077Y165460*
X633850Y165773*
X633850D02*
X633622Y166398D01*
X639304Y165773D02*
X639077Y165460D01*
X639304Y165148*
X639531Y165460*
X639304Y165773*
X642940Y171710D02*
X642259Y171398D01*
X641804Y170460*
X641577Y168898*
Y167960*
X641804Y166398*
X642259Y165460*
X642940Y165148*
X643395*
X644077Y165460*
X644531Y166398*
X644759Y167960*
Y168898*
X644531Y170460*
X644077Y171398*
X643395Y171710*
X642940*
X646804Y169523D02*
Y165148D01*
Y168273D02*
X647486Y169210D01*
X647940Y169523*
X648622*
X649077Y169210*
X649304Y168273*
Y165148*
Y168273D02*
X649986Y169210D01*
X650440Y169523*
X651122*
X651577Y169210*
X651804Y168273*
Y165148*
X653850Y169523D02*
Y165148D01*
Y168273D02*
X654531Y169210D01*
X654986Y169523*
X655668*
X656122Y169210*
X656350Y168273*
X656350D02*
Y165148D01*
Y168273D02*
X657031Y169210D01*
X657486Y169523*
X658168*
X658622Y169210*
X658850Y168273*
X658850D02*
Y165148D01*
X623597Y255512D02*
X381957D01*
X623597D02*
X613597Y253012D01*
Y258012*
X623597Y255512*
X100000D02*
X341639D01*
X100000D02*
X110000Y258012D01*
Y253012*
X100000Y255512*
X623597Y242795D02*
Y260512D01*
X100000Y242795D02*
Y260512D01*
X344639Y257074D02*
X345094Y257387D01*
X345776Y258324*
Y251762*
X348276Y258324D02*
X350776D01*
X349412Y255824*
X350094*
X350548Y255512*
X350776Y255199*
X351003Y254262*
Y253637*
X350776Y252699*
X350321Y252074*
X349639Y251762*
X348957*
X348276Y252074*
X348048Y252387*
X347821Y253012*
X353503Y258324D02*
X356003D01*
X354639Y255824*
X355321*
X355776Y255512*
X356003Y255199*
X356230Y254262*
Y253637*
X356003Y252699*
X355548Y252074*
X354867Y251762*
X354185*
X353503Y252074*
X353276Y252387*
X353048Y253012*
X358503Y252387D02*
X358276Y252074D01*
X358503Y251762*
X358730Y252074*
X358503Y252387*
X362139Y258324D02*
X361457Y258012D01*
X361003Y257074*
X360776Y255512*
Y254574*
X361003Y253012*
X361457Y252074*
X362139Y251762*
X362594*
X363276Y252074*
X363730Y253012*
X363957Y254574*
Y255512*
X363730Y257074*
X363276Y258012*
X362594Y258324*
X362139*
X366003Y256137D02*
Y251762D01*
Y254887D02*
X366685Y255824D01*
X367139Y256137*
X367821*
X368276Y255824*
X368503Y254887*
Y251762*
Y254887D02*
X369185Y255824D01*
X369639Y256137*
X370321*
X370776Y255824*
X371003Y254887*
Y251762*
X373048Y256137D02*
Y251762D01*
Y254887D02*
X373730Y255824D01*
X374185Y256137*
X374867*
X375321Y255824*
X375548Y254887*
Y251762*
Y254887D02*
X376230Y255824D01*
X376685Y256137*
X377367*
X377821Y255824*
X378048Y254887*
Y251762*
X100000Y518000D02*
X358000D01*
X100000Y494000D02*
X358000D01*
X100000Y470000D02*
X358000D01*
X100000Y446000D02*
X358000D01*
X100000Y422000D02*
X358000D01*
X100000Y398000D02*
X358000D01*
X100000Y374000D02*
X358000D01*
X100000Y350000D02*
X358000D01*
X100000Y518000D02*
Y350000D01*
X184000Y518000D02*
Y350000D01*
X220000Y518000D02*
Y350000D01*
X256000Y518000D02*
Y350000D01*
X310000Y518000D02*
Y350000D01*
X358000Y518000D02*
Y350000D01*
X135500Y506750D02*
X134955Y507500D01*
X134136Y507875*
X133045*
X132227Y507500*
X131682Y506750*
Y506000*
X131955Y505250*
X132227Y504875*
X132773Y504500*
X134409Y503750*
X134955Y503375*
X135227Y503000*
X135500Y502250*
Y501125*
X134955Y500375*
X134136Y500000*
X133045*
X132227Y500375*
X131682Y501125*
X137955Y507875D02*
Y500000D01*
X144227Y507875D02*
X140409Y500000D01*
Y507875D02*
X144227D01*
X140409Y500000D02*
X144227D01*
X146682Y507875D02*
Y500000D01*
Y507875D02*
X150227D01*
X146682Y504125D02*
X148864D01*
X146682Y500000D02*
X150227D01*
X193864Y507875D02*
X193318Y507500D01*
X192773Y506750*
X192500Y506000*
X192227Y504875*
Y503000*
X192500Y501875*
X192773Y501125*
X193318Y500375*
X193864Y500000*
X194955*
X195500Y500375*
X196045Y501125*
X196318Y501875*
X196591Y503000*
Y504875*
X196318Y506000*
X196045Y506750*
X195500Y507500*
X194955Y507875*
X193864*
X194682Y501500D02*
X196318Y499250D01*
X200955Y507875D02*
Y500000D01*
X199045Y507875D02*
X202864D01*
X205318D02*
X207500Y504125D01*
Y500000*
X209682Y507875D02*
X207500Y504125D01*
X232045Y506750D02*
X231500Y507500D01*
X230682Y507875*
X229591*
X228773Y507500*
X228227Y506750*
Y506000*
X228500Y505250*
X228773Y504875*
X229318Y504500*
X230955Y503750*
X231500Y503375*
X231773Y503000*
X232045Y502250*
Y501125*
X231500Y500375*
X230682Y500000*
X229591*
X228773Y500375*
X228227Y501125*
X234500Y507875D02*
X236682Y504125D01*
Y500000*
X238864Y507875D02*
X236682Y504125D01*
X241318Y507875D02*
Y500000D01*
Y507875D02*
X243500Y500000D01*
X245682Y507875D02*
X243500Y500000D01*
X245682Y507875D02*
Y500000D01*
X267500Y507875D02*
Y500000D01*
Y507875D02*
X269955D01*
X270773Y507500*
X271045Y507125*
X271318Y506375*
Y505250*
X271045Y504500*
X270773Y504125*
X269955Y503750*
X267500*
X273773Y507875D02*
Y500000D01*
X277045*
X281682Y507875D02*
X279500Y500000D01*
X281682Y507875D02*
X283864Y500000D01*
X280318Y502625D02*
X283045D01*
X288227Y507875D02*
Y500000D01*
X286318Y507875D02*
X290136D01*
X292591D02*
Y500000D01*
Y507875D02*
X296136D01*
X292591Y504125D02*
X294773D01*
X292591Y500000D02*
X296136D01*
X298591Y507875D02*
Y500000D01*
Y507875D02*
X300500D01*
X301318Y507500*
X301864Y506750*
X302136Y506000*
X302409Y504875*
Y503000*
X302136Y501875*
X301864Y501125*
X301318Y500375*
X300500Y500000*
X298591*
X326682Y507875D02*
Y500000D01*
X324773Y507875D02*
X328591D01*
X332682D02*
X332136Y507500D01*
X331591Y506750*
X331318Y506000*
X331045Y504875*
Y503000*
X331318Y501875*
X331591Y501125*
X332136Y500375*
X332682Y500000*
X333773*
X334318Y500375*
X334864Y501125*
X335136Y501875*
X335409Y503000*
Y504875*
X335136Y506000*
X334864Y506750*
X334318Y507500*
X333773Y507875*
X332682*
X337864D02*
Y500000D01*
X341136*
X108727Y483875D02*
X106000Y478625D01*
X110091*
X108727Y483875D02*
Y476000D01*
X114182Y483875D02*
X113364Y483500D01*
X112818Y482375*
X112545Y480500*
Y479375*
X112818Y477500*
X113364Y476375*
X114182Y476000*
X114727*
X115545Y476375*
X116091Y477500*
X116364Y479375*
Y480500*
X116091Y482375*
X115545Y483500*
X114727Y483875*
X114182*
X194000Y482375D02*
X194545Y482750D01*
X195364Y483875*
Y476000*
X198364Y483875D02*
X201364D01*
X199727Y480875*
X200545*
X201091Y480500*
X201364Y480125*
X201636Y479000*
Y478250*
X201364Y477125*
X200818Y476375*
X200000Y476000*
X199182*
X198364Y476375*
X198091Y476750*
X197818Y477500*
X204636Y483875D02*
X207636D01*
X206000Y480875*
X206818*
X207364Y480500*
X207636Y480125*
X207909Y479000*
Y478250*
X207636Y477125*
X207091Y476375*
X206273Y476000*
X205455*
X204636Y476375*
X204364Y476750*
X204091Y477500*
X232000Y482000D02*
X244000D01*
X238000Y476000D02*
Y488000D01*
X264636Y483875D02*
X266818Y480125D01*
Y476000*
X269000Y483875D02*
X266818Y480125D01*
X271455Y483875D02*
Y476000D01*
Y483875D02*
X275000D01*
X271455Y480125D02*
X273636D01*
X271455Y476000D02*
X275000D01*
X281273Y482750D02*
X280727Y483500D01*
X279909Y483875*
X278818*
X278000Y483500*
X277455Y482750*
Y482000*
X277727Y481250*
X278000Y480875*
X278545Y480500*
X280182Y479750*
X280727Y479375*
X281000Y479000*
X281273Y478250*
Y477125*
X280727Y476375*
X279909Y476000*
X278818*
X278000Y476375*
X277455Y477125*
X317818Y482750D02*
Y476000D01*
X315364Y479375D02*
X320273D01*
X327636Y485375D02*
X322727Y473375D01*
X330091Y479375D02*
X335000D01*
X339091Y483875D02*
X338273Y483500D01*
X337727Y482375*
X337455Y480500*
Y479375*
X337727Y477500*
X338273Y476375*
X339091Y476000*
X339636*
X340455Y476375*
X341000Y477500*
X341273Y479375*
Y480500*
X341000Y482375*
X340455Y483500*
X339636Y483875*
X339091*
X344000Y476750D02*
X343727Y476375D01*
X344000Y476000*
X344273Y476375*
X344000Y476750*
X348364Y483875D02*
X347545Y483500D01*
X347000Y482375*
X346727Y480500*
Y479375*
X347000Y477500*
X347545Y476375*
X348364Y476000*
X348909*
X349727Y476375*
X350273Y477500*
X350545Y479375*
Y480500*
X350273Y482375*
X349727Y483500*
X348909Y483875*
X348364*
X106545Y459875D02*
X109545D01*
X107909Y456875*
X108727*
X109273Y456500*
X109545Y456125*
X109818Y455000*
Y454250*
X109545Y453125*
X109000Y452375*
X108182Y452000*
X107364*
X106545Y452375*
X106273Y452750*
X106000Y453500*
X115818Y457250D02*
X115545Y456125D01*
X115000Y455375*
X114182Y455000*
X113909*
X113091Y455375*
X112545Y456125*
X112273Y457250*
Y457625*
X112545Y458750*
X113091Y459500*
X113909Y459875*
X114182*
X115000Y459500*
X115545Y458750*
X115818Y457250*
Y455375*
X115545Y453500*
X115000Y452375*
X114182Y452000*
X113636*
X112818Y452375*
X112545Y453125*
X118545Y452750D02*
X118273Y452375D01*
X118545Y452000*
X118818Y452375*
X118545Y452750*
X121818Y459875D02*
X124818D01*
X123182Y456875*
X124000*
X124545Y456500*
X124818Y456125*
X125091Y455000*
Y454250*
X124818Y453125*
X124273Y452375*
X123455Y452000*
X122636*
X121818Y452375*
X121545Y452750*
X121273Y453500*
X131364Y459875D02*
X128636Y452000D01*
X127545Y459875D02*
X131364D01*
X199318Y458000D02*
Y458375D01*
X199591Y459125*
X199864Y459500*
X200409Y459875*
X201500*
X202045Y459500*
X202318Y459125*
X202591Y458375*
Y457625*
X202318Y456875*
X201773Y455750*
X199045Y452000*
X202864*
X232000D02*
X244000Y464000D01*
X232000D02*
X244000Y452000D01*
X264636Y459875D02*
X266818Y456125D01*
Y452000*
X269000Y459875D02*
X266818Y456125D01*
X271455Y459875D02*
Y452000D01*
Y459875D02*
X275000D01*
X271455Y456125D02*
X273636D01*
X271455Y452000D02*
X275000D01*
X281273Y458750D02*
X280727Y459500D01*
X279909Y459875*
X278818*
X278000Y459500*
X277455Y458750*
Y458000*
X277727Y457250*
X278000Y456875*
X278545Y456500*
X280182Y455750*
X280727Y455375*
X281000Y455000*
X281273Y454250*
Y453125*
X280727Y452375*
X279909Y452000*
X278818*
X278000Y452375*
X277455Y453125*
X317818Y458750D02*
Y452000D01*
X315364Y455375D02*
X320273D01*
X327636Y461375D02*
X322727Y449375D01*
X330091Y455375D02*
X335000D01*
X339091Y459875D02*
X338273Y459500D01*
X337727Y458375*
X337455Y456500*
Y455375*
X337727Y453500*
X338273Y452375*
X339091Y452000*
X339636*
X340455Y452375*
X341000Y453500*
X341273Y455375*
Y456500*
X341000Y458375*
X340455Y459500*
X339636Y459875*
X339091*
X344000Y452750D02*
X343727Y452375D01*
X344000Y452000*
X344273Y452375*
X344000Y452750*
X348364Y459875D02*
X347545Y459500D01*
X347000Y458375*
X346727Y456500*
Y455375*
X347000Y453500*
X347545Y452375*
X348364Y452000*
X348909*
X349727Y452375*
X350273Y453500*
X350545Y455375*
Y456500*
X350273Y458375*
X349727Y459500*
X348909Y459875*
X348364*
X106545Y435875D02*
X109545D01*
X107909Y432875*
X108727*
X109273Y432500*
X109545Y432125*
X109818Y431000*
Y430250*
X109545Y429125*
X109000Y428375*
X108182Y428000*
X107364*
X106545Y428375*
X106273Y428750*
X106000Y429500*
X113909Y435875D02*
X113091Y435500D01*
X112545Y434375*
X112273Y432500*
Y431375*
X112545Y429500*
X113091Y428375*
X113909Y428000*
X114455*
X115273Y428375*
X115818Y429500*
X116091Y431375*
Y432500*
X115818Y434375*
X115273Y435500*
X114455Y435875*
X113909*
X124818Y433250D02*
X127818Y428000D01*
Y433250D02*
X124818Y428000D01*
X140364Y435875D02*
X137636Y428000D01*
X136545Y435875D02*
X140364D01*
X144455D02*
X143636Y435500D01*
X143091Y434375*
X142818Y432500*
Y431375*
X143091Y429500*
X143636Y428375*
X144455Y428000*
X145000*
X145818Y428375*
X146364Y429500*
X146636Y431375*
Y432500*
X146364Y434375*
X145818Y435500*
X145000Y435875*
X144455*
X197136Y434375D02*
X197682Y434750D01*
X198500Y435875*
Y428000*
X204773Y435875D02*
X202045Y428000D01*
X200955Y435875D02*
X204773D01*
X232000Y428000D02*
X244000D01*
Y440000*
X232000*
Y428000*
X238000Y434000D02*
Y440000D01*
X267636Y435875D02*
Y428000D01*
Y435875D02*
X271455Y428000D01*
Y435875D02*
Y428000D01*
X275545Y435875D02*
X275000Y435500D01*
X274455Y434750*
X274182Y434000*
X273909Y432875*
Y431000*
X274182Y429875*
X274455Y429125*
X275000Y428375*
X275545Y428000*
X276636*
X277182Y428375*
X277727Y429125*
X278000Y429875*
X278273Y431000*
Y432875*
X278000Y434000*
X277727Y434750*
X277182Y435500*
X276636Y435875*
X275545*
X317818Y434750D02*
Y428000D01*
X315364Y431375D02*
X320273D01*
X327636Y437375D02*
X322727Y425375D01*
X330091Y431375D02*
X335000D01*
X339091Y435875D02*
X338273Y435500D01*
X337727Y434375*
X337455Y432500*
Y431375*
X337727Y429500*
X338273Y428375*
X339091Y428000*
X339636*
X340455Y428375*
X341000Y429500*
X341273Y431375*
Y432500*
X341000Y434375*
X340455Y435500*
X339636Y435875*
X339091*
X344000Y428750D02*
X343727Y428375D01*
X344000Y428000*
X344273Y428375*
X344000Y428750*
X348364Y435875D02*
X347545Y435500D01*
X347000Y434375*
X346727Y432500*
Y431375*
X347000Y429500*
X347545Y428375*
X348364Y428000*
X348909*
X349727Y428375*
X350273Y429500*
X350545Y431375*
Y432500*
X350273Y434375*
X349727Y435500*
X348909Y435875*
X348364*
X106545Y411875D02*
X109545D01*
X107909Y408875*
X108727*
X109273Y408500*
X109545Y408125*
X109818Y407000*
Y406250*
X109545Y405125*
X109000Y404375*
X108182Y404000*
X107364*
X106545Y404375*
X106273Y404750*
X106000Y405500*
X115818Y411875D02*
X113091D01*
X112818Y408500*
X113091Y408875*
X113909Y409250*
X114727*
X115545Y408875*
X116091Y408125*
X116364Y407000*
X116091Y406250*
X115818Y405125*
X115273Y404375*
X114455Y404000*
X113636*
X112818Y404375*
X112545Y404750*
X112273Y405500*
X198364Y410375D02*
X198909Y410750D01*
X199727Y411875*
Y404000*
X202182Y410375D02*
X202727Y410750D01*
X203545Y411875*
Y404000*
X238000D02*
X244000Y410000D01*
X238000Y416000*
X232000Y410000*
X238000Y404000*
Y410000D02*
Y416000D01*
X264636Y411875D02*
X266818Y408125D01*
Y404000*
X269000Y411875D02*
X266818Y408125D01*
X271455Y411875D02*
Y404000D01*
Y411875D02*
X275000D01*
X271455Y408125D02*
X273636D01*
X271455Y404000D02*
X275000D01*
X281273Y410750D02*
X280727Y411500D01*
X279909Y411875*
X278818*
X278000Y411500*
X277455Y410750*
Y410000*
X277727Y409250*
X278000Y408875*
X278545Y408500*
X280182Y407750*
X280727Y407375*
X281000Y407000*
X281273Y406250*
Y405125*
X280727Y404375*
X279909Y404000*
X278818*
X278000Y404375*
X277455Y405125*
X317818Y410750D02*
Y404000D01*
X315364Y407375D02*
X320273D01*
X327636Y413375D02*
X322727Y401375D01*
X330091Y407375D02*
X335000D01*
X339091Y411875D02*
X338273Y411500D01*
X337727Y410375*
X337455Y408500*
Y407375*
X337727Y405500*
X338273Y404375*
X339091Y404000*
X339636*
X340455Y404375*
X341000Y405500*
X341273Y407375*
Y408500*
X341000Y410375*
X340455Y411500*
X339636Y411875*
X339091*
X344000Y404750D02*
X343727Y404375D01*
X344000Y404000*
X344273Y404375*
X344000Y404750*
X348364Y411875D02*
X347545Y411500D01*
X347000Y410375*
X346727Y408500*
Y407375*
X347000Y405500*
X347545Y404375*
X348364Y404000*
X348909*
X349727Y404375*
X350273Y405500*
X350545Y407375*
Y408500*
X350273Y410375*
X349727Y411500*
X348909Y411875*
X348364*
X106545Y387875D02*
X109545D01*
X107909Y384875*
X108727*
X109273Y384500*
X109545Y384125*
X109818Y383000*
Y382250*
X109545Y381125*
X109000Y380375*
X108182Y380000*
X107364*
X106545Y380375*
X106273Y380750*
X106000Y381500*
X112545Y386000D02*
Y386375D01*
X112818Y387125*
X113091Y387500*
X113636Y387875*
X114727*
X115273Y387500*
X115545Y387125*
X115818Y386375*
Y385625*
X115545Y384875*
X115000Y383750*
X112273Y380000*
X116091*
X199318Y386000D02*
Y386375D01*
X199591Y387125*
X199864Y387500*
X200409Y387875*
X201500*
X202045Y387500*
X202318Y387125*
X202591Y386375*
Y385625*
X202318Y384875*
X201773Y383750*
X199045Y380000*
X202864*
X232000D02*
X244000D01*
X232000Y392000*
X244000*
X232000Y380000*
X264636Y387875D02*
X266818Y384125D01*
Y380000*
X269000Y387875D02*
X266818Y384125D01*
X271455Y387875D02*
Y380000D01*
Y387875D02*
X275000D01*
X271455Y384125D02*
X273636D01*
X271455Y380000D02*
X275000D01*
X281273Y386750D02*
X280727Y387500D01*
X279909Y387875*
X278818*
X278000Y387500*
X277455Y386750*
Y386000*
X277727Y385250*
X278000Y384875*
X278545Y384500*
X280182Y383750*
X280727Y383375*
X281000Y383000*
X281273Y382250*
Y381125*
X280727Y380375*
X279909Y380000*
X278818*
X278000Y380375*
X277455Y381125*
X317818Y386750D02*
Y380000D01*
X315364Y383375D02*
X320273D01*
X327636Y389375D02*
X322727Y377375D01*
X330091Y383375D02*
X335000D01*
X339091Y387875D02*
X338273Y387500D01*
X337727Y386375*
X337455Y384500*
Y383375*
X337727Y381500*
X338273Y380375*
X339091Y380000*
X339636*
X340455Y380375*
X341000Y381500*
X341273Y383375*
Y384500*
X341000Y386375*
X340455Y387500*
X339636Y387875*
X339091*
X344000Y380750D02*
X343727Y380375D01*
X344000Y380000*
X344273Y380375*
X344000Y380750*
X348364Y387875D02*
X347545Y387500D01*
X347000Y386375*
X346727Y384500*
Y383375*
X347000Y381500*
X347545Y380375*
X348364Y380000*
X348909*
X349727Y380375*
X350273Y381500*
X350545Y383375*
Y384500*
X350273Y386375*
X349727Y387500*
X348909Y387875*
X348364*
X106000Y362375D02*
X106545Y362750D01*
X107364Y363875*
Y356000*
X110091Y362000D02*
Y362375D01*
X110364Y363125*
X110636Y363500*
X111182Y363875*
X112273*
X112818Y363500*
X113091Y363125*
X113364Y362375*
Y361625*
X113091Y360875*
X112545Y359750*
X109818Y356000*
X113636*
X194136Y362375D02*
X194682Y362750D01*
X195500Y363875*
Y356000*
X201773Y363875D02*
X199045Y356000D01*
X197955Y363875D02*
X201773D01*
X207773Y361250D02*
X207500Y360125D01*
X206955Y359375*
X206136Y359000*
X205864*
X205045Y359375*
X204500Y360125*
X204227Y361250*
Y361625*
X204500Y362750*
X205045Y363500*
X205864Y363875*
X206136*
X206955Y363500*
X207500Y362750*
X207773Y361250*
Y359375*
X207500Y357500*
X206955Y356375*
X206136Y356000*
X205591*
X204773Y356375*
X204500Y357125*
X232000Y356000D02*
X244000Y368000D01*
Y356000*
X232000Y368000*
Y356000*
X264636Y363875D02*
X266818Y360125D01*
Y356000*
X269000Y363875D02*
X266818Y360125D01*
X271455Y363875D02*
Y356000D01*
Y363875D02*
X275000D01*
X271455Y360125D02*
X273636D01*
X271455Y356000D02*
X275000D01*
X281273Y362750D02*
X280727Y363500D01*
X279909Y363875*
X278818*
X278000Y363500*
X277455Y362750*
Y362000*
X277727Y361250*
X278000Y360875*
X278545Y360500*
X280182Y359750*
X280727Y359375*
X281000Y359000*
X281273Y358250*
Y357125*
X280727Y356375*
X279909Y356000*
X278818*
X278000Y356375*
X277455Y357125*
X317818Y362750D02*
Y356000D01*
X315364Y359375D02*
X320273D01*
X327636Y365375D02*
X322727Y353375D01*
X330091Y359375D02*
X335000D01*
X339091Y363875D02*
X338273Y363500D01*
X337727Y362375*
X337455Y360500*
Y359375*
X337727Y357500*
X338273Y356375*
X339091Y356000*
X339636*
X340455Y356375*
X341000Y357500*
X341273Y359375*
Y360500*
X341000Y362375*
X340455Y363500*
X339636Y363875*
X339091*
X344000Y356750D02*
X343727Y356375D01*
X344000Y356000*
X344273Y356375*
X344000Y356750*
X348364Y363875D02*
X347545Y363500D01*
X347000Y362375*
X346727Y360500*
Y359375*
X347000Y357500*
X347545Y356375*
X348364Y356000*
X348909*
X349727Y356375*
X350273Y357500*
X350545Y359375*
Y360500*
X350273Y362375*
X349727Y363500*
X348909Y363875*
X348364*
G54D49*
X623597Y100000D02*
X623599D01*
X623597Y237795D02*
X623599D01*
X623597D02*
X623599D01*
X100000D02*
X100003D01*
G74*
X0Y0D02*
M02*
