%
T1C.012F095S3
X011454Y012262
X012802Y010726
X015765Y010862
X019721Y010812
X023677Y010845
X027175Y010811
X028113Y011478
X028812Y012539
X030601Y01072
X04005Y01193
X045978Y010853
X047815Y01234
X048136Y011261
X049842Y011081
X050645Y011028
X051378Y01212
X051444Y011375
X051669Y01078
X051748Y0121
X053208Y0121
X054208Y010634
X055757Y010885
X056433Y010674
X060729Y011282
X061496Y013967
X060994Y012552
X060531Y014179
X060293Y012592
X058706Y014311
X056573Y01288
X055633Y012716
X054846Y014474
X050184Y01349
X050085Y01276
X049908Y01408
X049838Y014934
X048678Y013508
X047853Y01449
X04694Y013303
X04632Y01269
X045832Y012603
X045777Y013567
X045453Y01431
X042823Y01399
X042049Y014388
X039897Y014318
X035906Y014995
X034882Y014978
X028549Y014063
X021627Y013461
X020863Y013666
X020109Y0139
X019158Y013995
X014983Y014112
X01465Y01358
X014005Y013696
X011672Y01345
X01122Y0142
X010686Y012566
X01101Y01703
X011367Y015768
X01221Y01695
X01425Y0157
X01584Y01721
X01676Y017
X018497Y016896
X021625Y017053
X02165Y01653
X024Y01666
X026757Y015808
X029154Y016716
X030435Y015646
X030729Y017438
X03141Y01627
X033851Y01745
X03549Y01738
X036436Y017407
X037729Y017129
X038356Y016003
X039516Y015307
X03961Y01705
X041841Y017269
X047368Y017025
X048366Y017509
X04837Y015567
X049363Y017025
X049896Y015567
X051713Y015355
X051833Y016293
X052032Y015711
X05323Y015246
X053346Y01616
X05338Y017325
X054195Y015229
X054544Y017009
X055888Y01648
X056761Y017234
X061047Y016573
X060662Y01894
X059701Y019488
X058269Y01902
X057108Y0196
X056606Y018639
X056153Y018081
X05486Y018888
X054142Y0182
X053808Y0179
X052731Y017641
X051966Y018173
X05145Y01972
X050447Y018617
X049933Y018975
X04968Y017841
X048826Y019225
X048266Y019451
X047309Y019005
X047163Y017934
X04684Y020032
X041772Y019612
X039672Y018796
X038411Y017748
X036682Y01797
X03549Y01804
X033363Y018066
X02935Y01773
X02921Y01984
X02863Y019462
X02833Y02002
X028114Y01867
X02761Y01966
X02734Y01924
X02642Y01809
X02402Y01784
X02177Y01816
X01992Y018606
X01949Y01888
X017746Y017734
X017524Y019555
X01722Y01807
X016368Y018726
X016156Y019545
X01538Y01804
X013446Y018006
X012948Y019653
X012283Y019819
X01177Y018822
X010863Y019577
X010606Y021873
X010621Y022976
X011649Y020771
X015491Y020451
X027525Y022698
X02818Y02186
X02883Y02102
X029736Y022605
X02995Y02125
X045353Y0227
X047129Y023126
X047751Y021111
X048761Y021659
X048876Y022769
X049424Y021111
X050278Y023062
X050521Y021149
X051073Y02083
X052123Y02271
X052608Y021
X053308Y021
X053647Y023023
X053803Y02244
X054833Y021
X054903Y022432
X05541Y023107
X056074Y022443
X057335Y021309
X058096Y022957
X058365Y020893
X06109Y0212
X061192Y022911
T2C.03F197S55
X044708Y0118G85X044708Y0122
X044708Y0108G85X044708Y0112
X044708Y01055G85X044708Y01095
X044708Y01005G85X044708Y01045
X044708Y0138G85X044708Y0142
X044708Y0148G85X044708Y0152
X044708Y0158G85X044708Y0162
X044708Y0168G85X044708Y0172
X044708Y0178G85X044708Y0182
X044708Y0188G85X044708Y0192
X044708Y0198G85X044708Y0202
X044708Y0208G85X044708Y0212
X044708Y0218G85X044708Y0222
X044708Y0228G85X044708Y0232
X044708Y0233G85X044708Y0237
X044708Y02355G85X044708Y02395
X044708Y0128G85X044708Y0132
T3C.032F197S55
X060474Y017368
X060474Y015636
T4C.035F197S55
X011083Y0115
X012083Y0115
X057773Y01487
X057773Y01687
X057773Y01587
X061763Y0129
X061763Y0119
X061763Y0109
X057773Y01787
X012273Y02248
X011273Y02248
T5C.03937F197S55
X019504Y017906
X019543Y017118
T6C.04F139S55
X014083Y0115
X014083Y0125
X015083Y0115
X015083Y0125
X016083Y0115
X016083Y0125
X017083Y0115
X017083Y0125
X018083Y0115
X018083Y0125
X019083Y0115
X019083Y0125
X020083Y0115
X020083Y0125
X021083Y0115
X021083Y0125
X022083Y0115
X022083Y0125
X023083Y0115
X023083Y0125
X024083Y0115
X024083Y0125
X025083Y0115
X025083Y0125
X026083Y0115
X026083Y0125
X031583Y0115
X031583Y0125
X032583Y0115
X032583Y0125
X033583Y0115
X033583Y0125
X034583Y0115
X034583Y0125
X035583Y0115
X035583Y0125
X036583Y0115
X036583Y0125
X037583Y0115
X037583Y0125
X038583Y0115
X038583Y0125
X039583Y0115
X039583Y0125
X040583Y0115
X040583Y0125
X041583Y0115
X041583Y0125
X042583Y0115
X042583Y0125
X043583Y0115
X043583Y0125
X04652Y015
X04652Y017
X04652Y016
X04552Y017
X04552Y015
X04552Y016
X043833Y015
X043833Y017
X043833Y016
X042833Y015
X042833Y016
X042833Y017
X010591Y01876
X010591Y020531
X012953Y01876
X012953Y020531
X014083Y0225
X014083Y0215
X015083Y0215
X015083Y0225
X016083Y0225
X016083Y0215
X017083Y0225
X017083Y0215
X018083Y0225
X018083Y0215
X019083Y0225
X019083Y0215
X020083Y0225
X020083Y0215
X021083Y0225
X021083Y0215
X022083Y0225
X022083Y0215
X023083Y0225
X023083Y0215
X024083Y0225
X024083Y0215
X025083Y0225
X025083Y0215
X026083Y0225
X026083Y0215
X031583Y0215
X031583Y0225
X032583Y0215
X032583Y0225
X033583Y0215
X033583Y0225
X034583Y0225
X034583Y0215
X035583Y0215
X035583Y0225
X036583Y0225
X036583Y0215
X037583Y0225
X037583Y0215
X038583Y0225
X038583Y0215
X039583Y0215
X039583Y0225
X040583Y0215
X040583Y0225
X041583Y0225
X041583Y0215
X042583Y0225
X042583Y0215
X042833Y019
X042833Y018
X043583Y0225
X043583Y0215
X043833Y018
X043833Y019
X04552Y018
X04552Y019
X04652Y018
X04652Y019
X052458Y02175
X053458Y02175
X054458Y02175
X055458Y02175
X056458Y02175
M30
