*
*
G04 PADS 9.3 Build Number: 433611 generated Gerber (RS-274-X) file*
G04 PC Version=2.1*
*
%IN "NU-TINY-SDK-200-100_061"*%
*
%MOIN*%
*
%FSLAX35Y35*%
*
*
*
*
G04 PC Standard Apertures*
*
*
G04 Thermal Relief Aperture macro.*
%AMTER*
1,1,$1,0,0*
1,0,$1-$2,0,0*
21,0,$3,$4,0,0,45*
21,0,$3,$4,0,0,135*
%
*
*
G04 Annular Aperture macro.*
%AMANN*
1,1,$1,0,0*
1,0,$2,0,0*
%
*
*
G04 Odd Aperture macro.*
%AMODD*
1,1,$1,0,0*
1,0,$1-0.005,0,0*
%
*
*
G04 PC Custom Aperture Macros*
*
*
*
*
*
*
G04 PC Aperture Table*
*
%ADD016C,0.01*%
%ADD017C,0.005*%
%ADD021C,0.008*%
%ADD022C,0.006*%
%ADD049C,0.001*%
*
*
*
*
G04 PC Circuitry*
G04 Layer Name NU-TINY-SDK-200-100_061 - circuitry*
%LPD*%
*
*
G04 PC Custom Flashes*
G04 Layer Name NU-TINY-SDK-200-100_061 - flashes*
%LPD*%
*
*
G04 PC Circuitry*
G04 Layer Name NU-TINY-SDK-200-100_061 - circuitry*
%LPD*%
*
G54D16*
G01X466519Y145118D02*
X466676Y144891D01*
X467144Y144550*
X463863*
X467144Y142845D02*
X466988Y143186D01*
X466519Y143414*
X465738Y143527*
X465269*
X464488Y143414*
X464019Y143186*
X463863Y142845*
Y142618*
X464019Y142277*
X464488Y142050*
X465269Y141936*
X465738*
X466519Y142050*
X466988Y142277*
X467144Y142618*
Y142845*
X455814Y142853D02*
X455346Y142967D01*
X455033Y143194*
X454877Y143535*
Y143649*
X455033Y143990*
X455346Y144217*
X455814Y144331*
X455971*
X456439Y144217*
X456752Y143990*
X456908Y143649*
Y143535*
X456752Y143194*
X456439Y142967*
X455814Y142853*
X455033*
X454252Y142967*
X453783Y143194*
X453627Y143535*
Y143763*
X453783Y144103*
X454096Y144217*
X465969Y198154D02*
X466126D01*
X466438Y198040*
X466594Y197927*
X466751Y197700*
Y197245*
X466594Y197018*
X466438Y196904*
X466126Y196790*
X465813*
X465501Y196904*
X465032Y197131*
X463469Y198268*
Y196677*
X456283Y198268D02*
X456439Y198040D01*
X456908Y197700*
X453627*
X470202Y195000D02*
X452702D01*
X450202Y192500*
Y145000*
X470202*
Y195000*
X460202D02*
Y185000D01*
X450202*
X439644Y145118D02*
X439801Y144891D01*
X440269Y144550*
X436988*
X440269Y142845D02*
X440113Y143186D01*
X439644Y143414*
X438863Y143527*
X438394*
X437613Y143414*
X437144Y143186*
X436988Y142845*
Y142618*
X437144Y142277*
X437613Y142050*
X438394Y141936*
X438863*
X439644Y142050*
X440113Y142277*
X440269Y142618*
Y142845*
X428939Y142853D02*
X428471Y142967D01*
X428158Y143194*
X428002Y143535*
Y143649*
X428158Y143990*
X428471Y144217*
X428939Y144331*
X429096*
X429564Y144217*
X429877Y143990*
X430033Y143649*
Y143535*
X429877Y143194*
X429564Y142967*
X428939Y142853*
X428158*
X427377Y142967*
X426908Y143194*
X426752Y143535*
Y143763*
X426908Y144103*
X427221Y144217*
X439094Y198154D02*
X439251D01*
X439563Y198040*
X439719Y197927*
X439876Y197700*
Y197245*
X439719Y197018*
X439563Y196904*
X439251Y196790*
X438938*
X438626Y196904*
X438157Y197131*
X436594Y198268*
Y196677*
X429408Y198268D02*
X429564Y198040D01*
X430033Y197700*
X426752*
X443327Y195000D02*
X425827D01*
X423327Y192500*
Y145000*
X443327*
Y195000*
X433327D02*
Y185000D01*
X423327*
X572727Y143700D02*
Y183700D01*
X582727*
Y143700*
X572727*
X612627Y104000D02*
Y134000D01*
X622627*
Y104000*
X612627*
X568021Y104745D02*
Y126745D01*
X556210*
Y104745*
X568021*
X290281Y198952D02*
X281373D01*
X285827Y203407D02*
X252420Y170000D01*
X285827Y136593*
X319233Y170000*
X285827Y203407*
X158805Y200400D02*
X158691Y200713D01*
X158691D02*
X158464Y201025D01*
X158236Y201181*
X157782*
X157555Y201025*
X157327Y200713*
X157327D02*
X157214Y200400D01*
X157100Y199931*
Y199150*
X157214Y198681*
X157327Y198369*
X157555Y198056*
X157782Y197900*
X158236*
X158464Y198056*
X158691Y198369*
X158805Y198681*
X159827Y200556D02*
X160055Y200713D01*
X160055D02*
X160395Y201181D01*
Y197900*
X204905Y164800D02*
X204791Y165113D01*
X204791D02*
X204564Y165425D01*
X204336Y165581*
X203882*
X203655Y165425*
X203427Y165113*
X203427D02*
X203314Y164800D01*
X203200Y164331*
Y163550*
X203314Y163081*
X203427Y162769*
X203655Y162456*
X203882Y162300*
X204336*
X204564Y162456*
X204791Y162769*
X204905Y163081*
X206041Y164800D02*
Y164956D01*
X206155Y165269*
X206268Y165425*
X206495Y165581*
X206950*
X207177Y165425*
X207291Y165269*
X207405Y164956*
Y164644*
X207291Y164331*
X207064Y163863*
X207064D02*
X205927Y162300D01*
X207518*
X205505Y186600D02*
X205391Y186913D01*
X205391D02*
X205164Y187225D01*
X204936Y187381*
X204482*
X204255Y187225*
X204027Y186913*
X204027D02*
X203914Y186600D01*
X203800Y186131*
Y185350*
X203914Y184881*
X204027Y184569*
X204255Y184256*
X204482Y184100*
X204936*
X205164Y184256*
X205391Y184569*
X205505Y184881*
X207664Y187381D02*
X206527Y185194D01*
X208232*
X207664Y187381D02*
Y184100D01*
X388905Y187100D02*
X388791Y187412D01*
X388791D02*
X388564Y187725D01*
X388336Y187881*
X387882*
X387655Y187725*
X387427Y187412*
X387427D02*
X387314Y187100D01*
X387200Y186631*
Y185850*
X387314Y185381*
X387427Y185069*
X387655Y184756*
X387882Y184600*
X388336*
X388564Y184756*
X388791Y185069*
X388905Y185381*
X390155Y187881D02*
X391405D01*
X390723Y186631*
X391064*
X391291Y186475*
X391405Y186319*
X391518Y185850*
Y185537*
X391518D02*
X391405Y185069D01*
X391177Y184756*
X390836Y184600*
X390495*
X390155Y184756*
X390041Y184912*
X390041D02*
X389927Y185225D01*
X388505Y157400D02*
X388391Y157713D01*
X388391D02*
X388164Y158025D01*
X387936Y158181*
X387482*
X387255Y158025*
X387027Y157713*
X387027D02*
X386914Y157400D01*
X386800Y156931*
Y156150*
X386914Y155681*
X387027Y155369*
X387255Y155056*
X387482Y154900*
X387936*
X388164Y155056*
X388391Y155369*
X388505Y155681*
X391005Y158181D02*
X389868D01*
X389755Y156775*
X389868Y156931*
X390209Y157088*
X390209D02*
X390550D01*
X390550D02*
X390891Y156931D01*
X391118Y156619*
X391232Y156150*
X391118Y155838*
X391118D02*
X391005Y155369D01*
X390777Y155056*
X390436Y154900*
X390095*
X389755Y155056*
X389641Y155213*
X389641D02*
X389527Y155525D01*
X452531Y222500D02*
X452418Y222813D01*
X452418D02*
X452190Y223125D01*
X451963Y223281*
X451509*
X451281Y223125*
X451054Y222813*
X451054D02*
X450940Y222500D01*
X450827Y222031*
Y221250*
X450940Y220781*
X451054Y220469*
X451281Y220156*
X451509Y220000*
X451963*
X452190Y220156*
X452418Y220469*
X452531Y220781*
X454122Y223281D02*
X453781Y223125D01*
X453668Y222813*
X453668D02*
Y222500D01*
X453781Y222188*
X453781D02*
X454009Y222031D01*
X454463Y221875*
X454804Y221719*
X455031Y221406*
X455145Y221094*
Y220625*
X455031Y220313*
X455031D02*
X454918Y220156D01*
X454577Y220000*
X454122*
X453781Y220156*
X453668Y220313*
X453668D02*
X453554Y220625D01*
Y221094*
X453668Y221406*
X453895Y221719*
X454236Y221875*
X454690Y222031*
X454918Y222188*
X454918D02*
X455031Y222500D01*
Y222813*
X455031D02*
X454918Y223125D01*
X454577Y223281*
X454122*
X524405Y228500D02*
X524291Y228813D01*
X524291D02*
X524064Y229125D01*
X523836Y229281*
X523382*
X523155Y229125*
X522927Y228813*
X522927D02*
X522814Y228500D01*
X522700Y228031*
Y227250*
X522814Y226781*
X522927Y226469*
X523155Y226156*
X523382Y226000*
X523836*
X524064Y226156*
X524291Y226469*
X524405Y226781*
X526905Y228188D02*
X526791Y227719D01*
X526564Y227406*
X526223Y227250*
X526109*
X525768Y227406*
X525541Y227719*
X525427Y228188*
X525427D02*
Y228344D01*
X525541Y228813*
X525541D02*
X525768Y229125D01*
X526109Y229281*
X526223*
X526564Y229125*
X526791Y228813*
X526791D02*
X526905Y228188D01*
X526905D02*
Y227406D01*
X526791Y226625*
X526564Y226156*
X526223Y226000*
X525995*
X525655Y226156*
X525541Y226469*
X222605Y167400D02*
X222491Y167713D01*
X222491D02*
X222264Y168025D01*
X222036Y168181*
X221582*
X221355Y168025*
X221127Y167713*
X221127D02*
X221014Y167400D01*
X220900Y166931*
Y166150*
X221014Y165681*
X221127Y165369*
X221355Y165056*
X221582Y164900*
X222036*
X222264Y165056*
X222491Y165369*
X222605Y165681*
X223627Y168181D02*
Y164900D01*
Y168181D02*
X224650D01*
X224991Y168025*
X225105Y167869*
X225218Y167556*
Y167244*
X225105Y166931*
X224991Y166775*
X224650Y166619*
X223627D02*
X224650D01*
X224991Y166463*
X224991D02*
X225105Y166306D01*
X225218Y165994*
Y165525*
X225105Y165213*
X225105D02*
X224991Y165056D01*
X224650Y164900*
X223627*
X226241Y167556D02*
X226468Y167713D01*
X226468D02*
X226809Y168181D01*
Y164900*
X559827Y149795D02*
X560139Y149909D01*
X560452Y150136*
X560608Y150364*
Y150818*
X560452Y151045*
X560139Y151273*
X559827Y151386*
X559358Y151500*
X558577*
X558108Y151386*
X557796Y151273*
X557483Y151045*
X557327Y150818*
Y150364*
X557483Y150136*
X557796Y149909*
X558108Y149795*
X560608Y148773D02*
X557327D01*
X560608D02*
Y147750D01*
X560452Y147409*
X560296Y147295*
X559983Y147182*
X559671*
X559358Y147295*
X559202Y147409*
X559046Y147750*
Y148773D02*
Y147750D01*
X558889Y147409*
X558733Y147295*
X558421Y147182*
X557952*
X557639Y147295*
X557483Y147409*
X557327Y147750*
Y148773*
X560608Y145932D02*
Y144682D01*
X559358Y145364*
Y145023*
X559202Y144795*
X559046Y144682*
X558577Y144568*
X558264*
X557796Y144682*
X557483Y144909*
X557327Y145250*
Y145591*
X557483Y145932*
X557639Y146045*
X557952Y146159*
X490231Y130700D02*
X490118Y131013D01*
X490118D02*
X489890Y131325D01*
X489663Y131481*
X489209*
X488981Y131325*
X488754Y131013*
X488754D02*
X488640Y130700D01*
X488527Y130231*
Y129450*
X488640Y128981*
X488754Y128669*
X488981Y128356*
X489209Y128200*
X489663*
X489890Y128356*
X490118Y128669*
X490231Y128981*
X491254Y131481D02*
Y128200D01*
Y131481D02*
X492277D01*
X492618Y131325*
X492731Y131169*
X492845Y130856*
Y130544*
X492731Y130231*
X492618Y130075*
X492277Y129919*
X491254D02*
X492277D01*
X492618Y129763*
X492618D02*
X492731Y129606D01*
X492845Y129294*
Y128825*
X492731Y128513*
X492731D02*
X492618Y128356D01*
X492277Y128200*
X491254*
X493981Y130700D02*
Y130856D01*
X494095Y131169*
X494209Y131325*
X494436Y131481*
X494890*
X495118Y131325*
X495231Y131169*
X495345Y130856*
Y130544*
X495231Y130231*
X495004Y129763*
X495004D02*
X493868Y128200D01*
X495459*
X555831Y130100D02*
X555718Y130413D01*
X555490Y130725*
X555263Y130881*
X554809*
X554581Y130725*
X554354Y130413*
X554240Y130100*
X554127Y129631*
Y128850*
X554240Y128381*
X554354Y128069*
X554581Y127756*
X554809Y127600*
X555263*
X555490Y127756*
X555718Y128069*
X555831Y128381*
X557649Y130881D02*
Y127600D01*
X556854Y130881D02*
X558445D01*
X559581Y130100D02*
Y130256D01*
X559695Y130569*
X559809Y130725*
X560036Y130881*
X560490*
X560718Y130725*
X560831Y130569*
X560945Y130256*
Y129944*
X560831Y129631*
X560604Y129163*
X559468Y127600*
X561059*
X599527Y138881D02*
Y135600D01*
Y138881D02*
X600549D01*
X600549D02*
X600890Y138725D01*
X601004Y138569*
X601118Y138256*
Y137788*
X601118D02*
X601004Y137475D01*
X600890Y137319*
X600549Y137163*
X600549D02*
X599527D01*
X602140Y138881D02*
Y135600D01*
Y138881D02*
X602936D01*
X603277Y138725*
X603504Y138413*
X603504D02*
X603618Y138100D01*
X603731Y137631*
Y136850*
X603618Y136381*
X603504Y136069*
X603277Y135756*
X602936Y135600*
X602140*
X604754Y138256D02*
X604981Y138413D01*
X604981D02*
X605322Y138881D01*
Y135600*
X478858Y195500D02*
X475577D01*
X478858D02*
Y194705D01*
X478702Y194364*
X478389Y194136*
X478077Y194023*
X477608Y193909*
X476827*
X476358Y194023*
X476046Y194136*
X475733Y194364*
X475577Y194705*
Y195500*
X478077Y192773D02*
X478233D01*
X478546Y192659*
X478702Y192545*
X478858Y192318*
Y191864*
X478702Y191636*
X478546Y191523*
X478233Y191409*
X477921*
X477608Y191523*
X477139Y191750*
X475577Y192886*
Y191295*
X185000Y183681D02*
Y180400D01*
X186705Y183681D02*
X186477Y183525D01*
X186250Y183213*
X186250D02*
X186136Y182900D01*
X186023Y182431*
Y181650*
X186136Y181181*
X186250Y180869*
X186477Y180556*
X186705Y180400*
X187159*
X187386Y180556*
X187614Y180869*
X187727Y181181*
X187841Y181650*
Y182431*
X187727Y182900*
X187614Y183213*
X187614D02*
X187386Y183525D01*
X187159Y183681*
X186705*
X188864Y183056D02*
X189091Y183213D01*
X189091D02*
X189432Y183681D01*
Y180400*
X544808Y121500D02*
X541527D01*
X544808D02*
Y120477D01*
X544652Y120136*
X544496Y120023*
X544183Y119909*
X543871*
X543558Y120023*
X543402Y120136*
X543246Y120477*
Y121500D02*
Y120477D01*
X543089Y120136*
X542933Y120023*
X542621Y119909*
X542152*
X541839Y120023*
X541683Y120136*
X541527Y120477*
Y121500*
X544808Y118886D02*
X542464D01*
X541996Y118773*
X541683Y118545*
X541527Y118205*
Y117977*
X541683Y117636*
X541996Y117409*
X542464Y117295*
X544808*
X544339Y114682D02*
X544652Y114909D01*
X544808Y115250*
Y115705*
X544652Y116045*
X544339Y116273*
X544027*
X543714Y116159*
X543558Y116045*
X543402Y115818*
X543089Y115136*
X542933Y114909*
X542777Y114795*
X542464Y114682*
X541996*
X541683Y114909*
X541527Y115250*
Y115705*
X541683Y116045*
X541996Y116273*
X544808Y113659D02*
X543246Y112750D01*
X541527*
X544808Y111841D02*
X543246Y112750D01*
X544183Y110818D02*
X544339Y110591D01*
X544808Y110250*
X541527*
X510758Y132400D02*
X507477D01*
X509977Y129673D02*
X510289Y129786D01*
X510602Y130014*
X510758Y130241*
Y130695*
X510602Y130923*
X510289Y131150*
X509977Y131264*
X509508Y131377*
X508727*
X508258Y131264*
X507946Y131150*
X507633Y130923*
X507477Y130695*
Y130241*
X507633Y130014*
X507946Y129786*
X508258Y129673*
X510758Y128650D02*
X507477D01*
X510758D02*
Y127173D01*
X509196Y128650D02*
Y127741D01*
X507477Y128650D02*
Y127173D01*
X510133Y126150D02*
X510289Y125923D01*
X510758Y125582*
X507477*
X515558Y132400D02*
X512277D01*
X514777Y129673D02*
X515089Y129786D01*
X515402Y130014*
X515558Y130241*
Y130695*
X515402Y130923*
X515089Y131150*
X514777Y131264*
X514308Y131377*
X513527*
X513058Y131264*
X512746Y131150*
X512433Y130923*
X512277Y130695*
Y130241*
X512433Y130014*
X512746Y129786*
X513058Y129673*
X515558Y128650D02*
X512277D01*
X515558D02*
Y127627D01*
X515402Y127286*
X515246Y127173*
X514933Y127059*
X514464*
X514152Y127173*
X513996Y127286*
X513839Y127627*
Y128650*
X514933Y126036D02*
X515089Y125809D01*
X515558Y125468*
X512277*
X460263Y140381D02*
Y137881D01*
X460149Y137413*
X460149D02*
X460036Y137256D01*
X459809Y137100*
X459581*
X459354Y137256*
X459240Y137413*
X459240D02*
X459127Y137881D01*
Y138194*
X461286Y140381D02*
Y137100D01*
Y140381D02*
X462309D01*
X462649Y140225*
X462649D02*
X462763Y140069D01*
X462877Y139756*
Y139288*
X462877D02*
X462763Y138975D01*
X462649Y138819*
X462649D02*
X462309Y138663D01*
X462309D02*
X461286D01*
X465377Y139288D02*
X465263Y138819D01*
X465036Y138506*
X464695Y138350*
X464581*
X464240Y138506*
X464013Y138819*
X463899Y139288*
X463899D02*
Y139444D01*
X463899D02*
X464013Y139913D01*
X464013D02*
X464240Y140225D01*
X464581Y140381*
X464695*
X465036Y140225*
X465263Y139913*
X465263D02*
X465377Y139288D01*
X465377D02*
Y138506D01*
X465263Y137725*
X465036Y137256*
X464695Y137100*
X464468*
X464127Y137256*
X464013Y137569*
X354573Y182881D02*
Y179600D01*
X355937*
X356960Y182256D02*
X357187Y182413D01*
X357528Y182881*
Y179600*
X354773Y175581D02*
Y172300D01*
X356137*
X357273Y174800D02*
Y174956D01*
X357387Y175269*
X357501Y175425*
X357501D02*
X357728Y175581D01*
X358182*
X358410Y175425*
X358523Y175269*
X358637Y174956*
Y174644*
X358523Y174331*
X358296Y173863*
X358296D02*
X357160Y172300D01*
X358751*
X489727Y191281D02*
Y188000D01*
X491090*
X493590Y191281D02*
X492454D01*
X492340Y189875*
X492454Y190031*
X492795Y190188*
X492795D02*
X493136D01*
X493136D02*
X493477Y190031D01*
X493704Y189719*
X493818Y189250*
X493704Y188938*
X493704D02*
X493590Y188469D01*
X493363Y188156*
X493022Y188000*
X492681*
X492340Y188156*
X492227Y188313*
X492227D02*
X492113Y188625D01*
X510827Y208281D02*
Y205000D01*
X512190*
X514577Y207812D02*
X514463Y208125D01*
X514122Y208281*
X513895*
X513554Y208125*
X513327Y207656*
X513213Y206875*
Y206094*
X513327Y205469*
X513554Y205156*
X513895Y205000*
X514009*
X514349Y205156*
X514349D02*
X514577Y205469D01*
X514690Y205937*
X514690D02*
Y206094D01*
X514577Y206562*
X514577D02*
X514349Y206875D01*
X514349D02*
X514009Y207031D01*
X513895*
X513554Y206875*
X513327Y206562*
X513327D02*
X513213Y206094D01*
X136781Y192900D02*
X133500D01*
X136781D02*
Y191877D01*
X136625Y191536*
X136469Y191423*
X136156Y191309*
X135844*
X135531Y191423*
X135375Y191536*
X135219Y191877*
Y192900*
Y192105D02*
X133500Y191309D01*
X136156Y190286D02*
X136313Y190059D01*
X136313D02*
X136781Y189718D01*
X133500*
X176800Y183081D02*
Y179800D01*
Y183081D02*
X177823D01*
X178164Y182925*
X178277Y182769*
X178391Y182456*
Y182144*
X178277Y181831*
X178164Y181675*
X177823Y181519*
X176800*
X177595D02*
X178391Y179800D01*
X179527Y182300D02*
Y182456D01*
X179641Y182769*
X179755Y182925*
X179982Y183081*
X180436*
X180664Y182925*
X180777Y182769*
X180891Y182456*
Y182144*
X180777Y181831*
X180550Y181363*
X180550D02*
X179414Y179800D01*
X181005*
X486308Y204500D02*
X483027D01*
X486308D02*
Y203477D01*
X486152Y203136*
X485996Y203023*
X485683Y202909*
X485371*
X485058Y203023*
X484902Y203136*
X484746Y203477*
Y204500*
Y203705D02*
X483027Y202909D01*
X485839Y200523D02*
X486152Y200636D01*
X486308Y200977*
Y201205*
X486152Y201545*
X485683Y201773*
X484902Y201886*
X484121*
X483496Y201773*
X483183Y201545*
X483027Y201205*
Y201091*
X483183Y200750*
X483496Y200523*
X483964Y200409*
X484121*
X484589Y200523*
X484902Y200750*
X485058Y201091*
Y201205*
X484902Y201545*
X484589Y201773*
X484121Y201886*
X100800Y217281D02*
Y214000D01*
Y217281D02*
X101823D01*
X102164Y217125*
X102277Y216969*
X102391Y216656*
Y216188*
X102391D02*
X102277Y215875D01*
X102164Y215719*
X101823Y215563*
X101823D02*
X100800D01*
X103414Y217281D02*
Y214000D01*
Y217281D02*
X104436D01*
X104777Y217125*
X104891Y216969*
X105005Y216656*
Y216344*
X104891Y216031*
X104777Y215875*
X104436Y215719*
X103414*
X104209D02*
X105005Y214000D01*
X106027Y216656D02*
X106255Y216813D01*
X106255D02*
X106595Y217281D01*
Y214000*
X562427Y169081D02*
Y165800D01*
Y169081D02*
X563449D01*
X563449D02*
X563790Y168925D01*
X563904Y168769*
X564018Y168456*
Y168144*
X563904Y167831*
X563790Y167675*
X563449Y167519*
X563449D02*
X562427D01*
X563222D02*
X564018Y165800D01*
X566518Y167988D02*
X566404Y167519D01*
X566177Y167206*
X565836Y167050*
X565722*
X565381Y167206*
X565154Y167519*
X565040Y167988*
X565040D02*
Y168144D01*
X565154Y168613*
X565154D02*
X565381Y168925D01*
X565722Y169081*
X565836*
X566177Y168925*
X566404Y168613*
X566404D02*
X566518Y167988D01*
X566518D02*
Y167206D01*
X566404Y166425*
X566177Y165956*
X565836Y165800*
X565609*
X565268Y165956*
X565154Y166269*
X541408Y122800D02*
X538127D01*
X541408Y121777D02*
X538127D01*
X541408D02*
Y120982D01*
X541252Y120641*
X540939Y120414*
X540627Y120300*
X540158Y120186*
X539377*
X538908Y120300*
X538596Y120414*
X538283Y120641*
X538127Y120982*
Y121777*
X541408Y119164D02*
X538127D01*
Y117800*
X541408Y116777D02*
X538127D01*
X541408D02*
Y115300D01*
X539846Y116777D02*
Y115868D01*
X538127Y116777D02*
Y115300D01*
X540783Y114277D02*
X540939Y114050D01*
X541408Y113709*
X538127*
X590358Y233750D02*
X587077D01*
X590358D02*
Y232727D01*
X590202Y232386*
X590046Y232273*
X589733Y232159*
X589421*
X589108Y232273*
X588952Y232386*
X588796Y232727*
Y233750*
Y232955D02*
X587077Y232159D01*
X590358Y231136D02*
X587077D01*
X589577Y228409D02*
X589889Y228523D01*
X590202Y228750*
X590358Y228977*
Y229432*
X590202Y229659*
X589889Y229886*
X589577Y230000*
X589108Y230114*
X588327*
X587858Y230000*
X587546Y229886*
X587233Y229659*
X587077Y229432*
Y228977*
X587233Y228750*
X587546Y228523*
X587858Y228409*
X590358Y227386D02*
X587077D01*
X590358Y225795D02*
X588171Y227386D01*
X588952Y226818D02*
X587077Y225795D01*
X589733Y224773D02*
X589889Y224545D01*
X590358Y224205*
X587077*
X514677Y114081D02*
Y110800D01*
Y114081D02*
X515699D01*
X515699D02*
X516040Y113925D01*
X516154Y113769*
X516268Y113456*
Y113144*
X516154Y112831*
X516040Y112675*
X515699Y112519*
X515699D02*
X514677D01*
X515472D02*
X516268Y110800D01*
X517290Y114081D02*
Y110800D01*
Y114081D02*
X518313D01*
X518654Y113925*
X518768Y113769*
X518881Y113456*
Y112988*
X518881D02*
X518768Y112675D01*
X518654Y112519*
X518313Y112363*
X518313D02*
X517290D01*
X519904Y113456D02*
X520131Y113613D01*
X520131D02*
X520472Y114081D01*
Y110800*
X600358Y233750D02*
X597077D01*
X600358D02*
Y232727D01*
X600202Y232386*
X600046Y232273*
X599733Y232159*
X599421*
X599108Y232273*
X598952Y232386*
X598796Y232727*
Y233750*
Y232955D02*
X597077Y232159D01*
X600358Y231136D02*
X597077D01*
X600358D02*
Y230114D01*
X600202Y229773*
X600046Y229659*
X599733Y229545*
X599421*
X599108Y229659*
X598952Y229773*
X598796Y230114*
Y231136*
Y230341D02*
X597077Y229545D01*
X599889Y226932D02*
X600202Y227159D01*
X600358Y227500*
Y227955*
X600202Y228295*
X599889Y228523*
X599577*
X599264Y228409*
X599108Y228295*
X598952Y228068*
X598639Y227386*
X598483Y227159*
X598327Y227045*
X598014Y226932*
X597546*
X597233Y227159*
X597077Y227500*
Y227955*
X597233Y228295*
X597546Y228523*
X600358Y225909D02*
X597077D01*
X600358D02*
Y224432D01*
X598796Y225909D02*
Y225000D01*
X597077Y225909D02*
Y224432D01*
X600358Y222614D02*
X597077D01*
X600358Y223409D02*
Y221818D01*
X599733Y220795D02*
X599889Y220568D01*
X600358Y220227*
X597077*
X605358Y233750D02*
X602077D01*
X605358D02*
Y232727D01*
X605202Y232386*
X605046Y232273*
X604733Y232159*
X604421*
X604108Y232273*
X603952Y232386*
X603796Y232727*
Y233750*
Y232955D02*
X602077Y232159D01*
X605358Y230341D02*
X602077D01*
X605358Y231136D02*
Y229545D01*
X604577Y226818D02*
X604889Y226932D01*
X605202Y227159*
X605358Y227386*
Y227841*
X605202Y228068*
X604889Y228295*
X604577Y228409*
X604108Y228523*
X603327*
X602858Y228409*
X602546Y228295*
X602233Y228068*
X602077Y227841*
Y227386*
X602233Y227159*
X602546Y226932*
X602858Y226818*
X605358Y225795D02*
X602077D01*
X605358Y224205D02*
X603171Y225795D01*
X603952Y225227D02*
X602077Y224205D01*
X604733Y223182D02*
X604889Y222955D01*
X605358Y222614*
X602077*
X620358Y233750D02*
X617077D01*
X620358D02*
Y232727D01*
X620202Y232386*
X620046Y232273*
X619733Y232159*
X619421*
X619108Y232273*
X618952Y232386*
X618796Y232727*
Y233750*
Y232955D02*
X617077Y232159D01*
X620358Y230341D02*
X617077D01*
X620358Y231136D02*
Y229545D01*
Y228523D02*
X617077D01*
X620358D02*
Y227727D01*
X620202Y227386*
X619889Y227159*
X619577Y227045*
X619108Y226932*
X618327*
X617858Y227045*
X617546Y227159*
X617233Y227386*
X617077Y227727*
Y228523*
X620358Y225000D02*
X617077Y225909D01*
X620358Y225000D02*
X617077Y224091D01*
X618171Y225568D02*
Y224432D01*
X619733Y223068D02*
X619889Y222841D01*
X620358Y222500*
X617077*
X610358Y233750D02*
X607077D01*
X610358D02*
Y232727D01*
X610202Y232386*
X610046Y232273*
X609733Y232159*
X609421*
X609108Y232273*
X608952Y232386*
X608796Y232727*
Y233750*
Y232955D02*
X607077Y232159D01*
X610358Y230341D02*
X607077D01*
X610358Y231136D02*
Y229545D01*
Y228523D02*
X607077D01*
X610358D02*
Y227727D01*
X610202Y227386*
X609889Y227159*
X609577Y227045*
X609108Y226932*
X608327*
X607858Y227045*
X607546Y227159*
X607233Y227386*
X607077Y227727*
Y228523*
X610358Y225000D02*
X607077Y225909D01*
X610358Y225000D02*
X607077Y224091D01*
X608171Y225568D02*
Y224432D01*
X609577Y222955D02*
X609733D01*
X610046Y222841*
X610202Y222727*
X610358Y222500*
Y222045*
X610202Y221818*
X610046Y221705*
X609733Y221591*
X609421*
X609108Y221705*
X608639Y221932*
X607077Y223068*
Y221477*
X615358Y233750D02*
X612077D01*
X615358D02*
Y232727D01*
X615202Y232386*
X615046Y232273*
X614733Y232159*
X614421*
X614108Y232273*
X613952Y232386*
X613796Y232727*
Y233750*
Y232955D02*
X612077Y232159D01*
X615358Y230341D02*
X612077D01*
X615358Y231136D02*
Y229545D01*
Y228523D02*
X612077D01*
X615358D02*
Y227727D01*
X615202Y227386*
X614889Y227159*
X614577Y227045*
X614108Y226932*
X613327*
X612858Y227045*
X612546Y227159*
X612233Y227386*
X612077Y227727*
Y228523*
X615358Y225000D02*
X612077Y225909D01*
X615358Y225000D02*
X612077Y224091D01*
X613171Y225568D02*
Y224432D01*
X615358Y222841D02*
Y221591D01*
X614108Y222273*
Y221932*
X613952Y221705*
X613796Y221591*
X613327Y221477*
X613014*
X612546Y221591*
X612233Y221818*
X612077Y222159*
Y222500*
X612233Y222841*
X612389Y222955*
X612702Y223068*
X595358Y233750D02*
X592077D01*
X595358D02*
Y232727D01*
X595202Y232386*
X595046Y232273*
X594733Y232159*
X594421*
X594108Y232273*
X593952Y232386*
X593796Y232727*
Y233750*
Y232955D02*
X592077Y232159D01*
X595358Y230341D02*
X592077D01*
X595358Y231136D02*
Y229545D01*
Y228523D02*
X592077D01*
X595358Y227500D02*
X592077D01*
X595358D02*
Y226705D01*
X595202Y226364*
X594889Y226136*
X594577Y226023*
X594108Y225909*
X593327*
X592858Y226023*
X592546Y226136*
X592233Y226364*
X592077Y226705*
Y227500*
X595358Y223977D02*
X592077Y224886D01*
X595358Y223977D02*
X592077Y223068D01*
X593171Y224545D02*
Y223409D01*
X594733Y222045D02*
X594889Y221818D01*
X595358Y221477*
X592077*
X506277Y139281D02*
Y136938D01*
X506277D02*
X506390Y136469D01*
X506618Y136156*
X506959Y136000*
X507186*
X507527Y136156*
X507754Y136469*
X507868Y136938*
X507868D02*
Y139281D01*
X509004Y138500D02*
Y138656D01*
X509118Y138969*
X509231Y139125*
X509459Y139281*
X509913*
X510140Y139125*
X510254Y138969*
X510368Y138656*
Y138344*
X510254Y138031*
X510027Y137563*
X510027D02*
X508890Y136000D01*
X510481*
X172000Y169981D02*
X173591Y166700D01*
Y169981D02*
X172000Y166700D01*
X174614Y169356D02*
X174841Y169513D01*
X174841D02*
X175182Y169981D01*
Y166700*
X402400Y192719D02*
X400809Y196000D01*
Y192719D02*
X402400Y196000D01*
X399673Y193500D02*
Y193344D01*
X399559Y193031*
X399445Y192875*
X399218Y192719*
X398764*
X398536Y192875*
X398423Y193031*
X398309Y193344*
Y193656*
X398423Y193969*
X398650Y194437*
X398650D02*
X399786Y196000D01*
X398195*
X458577Y213531D02*
X460168Y210250D01*
Y213531D02*
X458577Y210250D01*
X461418Y213531D02*
X462668D01*
X461986Y212281*
X462327*
X462554Y212125*
X462668Y211969*
X462781Y211500*
Y211188*
X462781D02*
X462668Y210719D01*
X462440Y210406*
X462099Y210250*
X462099D02*
X461759D01*
X461418Y210406*
X461304Y210563*
X461304D02*
X461190Y210875D01*
X560713Y232031D02*
Y229531D01*
X560599Y229063*
X560599D02*
X560486Y228906D01*
X560259Y228750*
X560031*
X559804Y228906*
X559690Y229063*
X559690D02*
X559577Y229531D01*
Y229844*
X561736Y232031D02*
Y228750D01*
Y232031D02*
X562759D01*
X563099Y231875*
X563099D02*
X563213Y231719D01*
X563327Y231406*
Y230938*
X563327D02*
X563213Y230625D01*
X563099Y230469*
X563099D02*
X562759Y230313D01*
X562759D02*
X561736D01*
X564349Y231406D02*
X564577Y231563D01*
X564577D02*
X564918Y232031D01*
Y228750*
X566622Y232031D02*
X566281Y231875D01*
X566054Y231406*
X565940Y230625*
Y230156*
X566054Y229375*
X566281Y228906*
X566622Y228750*
X566849*
X566849D02*
X567190Y228906D01*
X567418Y229375*
X567531Y230156*
Y230625*
X567418Y231406*
X567190Y231875*
X566849Y232031*
X566849D02*
X566622D01*
X133081Y237800D02*
X129800D01*
X133081D02*
Y236777D01*
X132925Y236436*
X132769Y236323*
X132456Y236209*
X131988*
X131988D02*
X131675Y236323D01*
X131519Y236436*
X131363Y236777*
X131363D02*
Y237800D01*
X133081Y234505D02*
X132925Y234732D01*
X132613Y234959*
X132613D02*
X132300Y235073D01*
X131831Y235186*
X131050*
X130581Y235073*
X130269Y234959*
X129956Y234732*
X129800Y234505*
Y234050*
X129956Y233823*
X130269Y233595*
X130581Y233482*
X131050Y233368*
X131831*
X132300Y233482*
X132613Y233595*
X132613D02*
X132925Y233823D01*
X133081Y234050*
Y234505*
Y232345D02*
X129800Y231777D01*
X133081Y231209D02*
X129800Y231777D01*
X133081Y231209D02*
X129800Y230641D01*
X133081Y230073D02*
X129800Y230641D01*
X133081Y229050D02*
X129800D01*
X133081D02*
Y227573D01*
X131519Y229050D02*
Y228141D01*
X129800Y229050D02*
Y227573D01*
X133081Y226550D02*
X129800D01*
X133081D02*
Y225527D01*
X132925Y225186*
X132769Y225073*
X132456Y224959*
X132144*
X131831Y225073*
X131675Y225186*
X131519Y225527*
Y226550*
Y225755D02*
X129800Y224959D01*
X132456Y223936D02*
X132613Y223709D01*
X132613D02*
X133081Y223368D01*
X129800*
X113291Y181613D02*
X113064Y181925D01*
X112723Y182081*
X112268*
X111927Y181925*
X111700Y181613*
X111700D02*
Y181300D01*
X111814Y180988*
X111814D02*
X111927Y180831D01*
X112155Y180675*
X112836Y180363*
X112836D02*
X113064Y180206D01*
X113177Y180050*
X113291Y179738*
X113291D02*
Y179269D01*
X113064Y178956*
X112723Y178800*
X112268*
X111927Y178956*
X111700Y179269*
X114314Y182081D02*
X114882Y178800D01*
X115450Y182081D02*
X114882Y178800D01*
X115450Y182081D02*
X116018Y178800D01*
X116586Y182081D02*
X116018Y178800D01*
X117609Y181456D02*
X117836Y181613D01*
X117836D02*
X118177Y182081D01*
Y178800*
X105881Y227464D02*
X103381D01*
X102913Y227577*
X102913D02*
X102756Y227691D01*
X102600Y227918*
Y228145*
X102756Y228373*
X102913Y228486*
X102913D02*
X103381Y228600D01*
X103694*
X105881Y226441D02*
X102600D01*
X105881D02*
Y225418D01*
X105725Y225077*
X105569Y224964*
X105256Y224850*
X104788*
X104788D02*
X104475Y224964D01*
X104319Y225077*
X104163Y225418*
X104163D02*
Y226441D01*
X105256Y223827D02*
X105413Y223600D01*
X105413D02*
X105881Y223259D01*
X102600*
X489027Y169981D02*
Y166700D01*
Y169981D02*
X490049D01*
X490049D02*
X490390Y169825D01*
X490504Y169669*
X490618Y169356*
Y169044*
X490504Y168731*
X490390Y168575*
X490049Y168419*
X490049D02*
X489027D01*
X489822D02*
X490618Y166700D01*
X493118Y169981D02*
X491981D01*
X491868Y168575*
X491981Y168731*
X492322Y168887*
X492322D02*
X492663D01*
X492663D02*
X493004Y168731D01*
X493231Y168419*
X493345Y167950*
X493231Y167637*
X493231D02*
X493118Y167169D01*
X492890Y166856*
X492549Y166700*
X492549D02*
X492209D01*
X491868Y166856*
X491754Y167012*
X491754D02*
X491640Y167325D01*
X236200Y183795D02*
X236512Y183909D01*
X236512D02*
X236825Y184136D01*
X236981Y184364*
Y184818*
X236825Y185045*
X236512Y185273*
X236512D02*
X236200Y185386D01*
X235731Y185500*
X234950*
X234481Y185386*
X234169Y185273*
X233856Y185045*
X233700Y184818*
Y184364*
X233856Y184136*
X234169Y183909*
X234481Y183795*
X236981Y181977D02*
X233700D01*
X236981Y182773D02*
Y181182D01*
X236356Y180159D02*
X236512Y179932D01*
X236512D02*
X236981Y179591D01*
X233700*
X130008Y117664D02*
X127508D01*
X127039Y117777*
X126883Y117891*
X126727Y118118*
Y118345*
X126883Y118573*
X127039Y118686*
X127508Y118800*
X127821*
X130008Y116641D02*
X126727D01*
X130008D02*
Y115618D01*
X129852Y115277*
X129696Y115164*
X129383Y115050*
X128914*
X128602Y115164*
X128446Y115277*
X128289Y115618*
Y116641*
X129227Y113914D02*
X129383D01*
X129696Y113800*
X129852Y113686*
X130008Y113459*
Y113005*
X129852Y112777*
X129696Y112664*
X129383Y112550*
X129071*
X128758Y112664*
X128289Y112891*
X126727Y114027*
Y112436*
X427563Y141681D02*
Y139181D01*
X427450Y138713*
X427450D02*
X427336Y138556D01*
X427109Y138400*
X426881*
X426654Y138556*
X426540Y138713*
X426540D02*
X426427Y139181D01*
Y139494*
X428586Y141681D02*
Y138400D01*
Y141681D02*
X429609D01*
X429950Y141525*
X429950D02*
X430063Y141369D01*
X430177Y141056*
Y140588*
X430177D02*
X430063Y140275D01*
X429950Y140119*
X429950D02*
X429609Y139963D01*
X429609D02*
X428586D01*
X432336Y141681D02*
X431200Y139494D01*
X431200D02*
X432904D01*
X432336Y141681D02*
Y138400D01*
X481531Y146000D02*
X481418Y146313D01*
X481418D02*
X481190Y146625D01*
X480963Y146781*
X480509*
X480281Y146625*
X480054Y146313*
X480054D02*
X479940Y146000D01*
X479827Y145531*
Y144750*
X479940Y144281*
X480054Y143969*
X480281Y143656*
X480509Y143500*
X480963*
X481190Y143656*
X481418Y143969*
X481531Y144281*
X484145Y146781D02*
X483009Y143500D01*
X482554Y146781D02*
X484145D01*
X572027Y138195D02*
X572339Y138309D01*
X572652Y138536*
X572808Y138764*
Y139218*
X572652Y139445*
X572339Y139673*
X572027Y139786*
X571558Y139900*
X570777*
X570308Y139786*
X569996Y139673*
X569683Y139445*
X569527Y139218*
Y138764*
X569683Y138536*
X569996Y138309*
X570308Y138195*
X572183Y137173D02*
X572339Y136945D01*
X572808Y136605*
X569527*
X572808Y134900D02*
X572652Y135241D01*
X572183Y135468*
X571402Y135582*
X570933*
X570152Y135468*
X569683Y135241*
X569527Y134900*
Y134673*
X569683Y134332*
X570152Y134105*
X570933Y133991*
X571402*
X572183Y134105*
X572652Y134332*
X572808Y134673*
Y134900*
X608508Y198900D02*
X605227D01*
Y197536*
X608508Y194923D02*
X605227Y196059D01*
X608508Y196514D02*
Y194923D01*
X562827Y148581D02*
Y145300D01*
Y148581D02*
X563849D01*
X563849D02*
X564190Y148425D01*
X564304Y148269*
X564418Y147956*
Y147644*
X564304Y147331*
X564190Y147175*
X563849Y147019*
X563849D02*
X562827D01*
X563622D02*
X564418Y145300D01*
X566009Y148581D02*
X565668Y148425D01*
X565554Y148113*
X565554D02*
Y147800D01*
X565668Y147488*
X565668D02*
X565895Y147331D01*
X566349Y147175*
X566349D02*
X566690Y147019D01*
X566918Y146706*
X567031Y146394*
Y145925*
X566918Y145613*
X566918D02*
X566804Y145456D01*
X566463Y145300*
X566009*
X565668Y145456*
X565554Y145613*
X565554D02*
X565440Y145925D01*
Y146394*
X565554Y146706*
X565781Y147019*
X566122Y147175*
X566577Y147331*
X566804Y147488*
X566804D02*
X566918Y147800D01*
Y148113*
X566918D02*
X566804Y148425D01*
X566463Y148581*
X566009*
X600663Y190481D02*
Y187981D01*
X600549Y187513*
X600549D02*
X600436Y187356D01*
X600209Y187200*
X599981*
X599754Y187356*
X599640Y187513*
X599640D02*
X599527Y187981D01*
Y188294*
X601799Y189700D02*
Y189856D01*
X601913Y190169*
X602027Y190325*
X602254Y190481*
X602709*
X602936Y190325*
X603049Y190169*
X603163Y189856*
Y189544*
X603049Y189231*
X602822Y188763*
X602822D02*
X601686Y187200D01*
X603277*
X573863Y188981D02*
Y186481D01*
X573749Y186013*
X573749D02*
X573636Y185856D01*
X573409Y185700*
X573181*
X572954Y185856*
X572840Y186013*
X572840D02*
X572727Y186481D01*
Y186794*
X574886Y188981D02*
Y185700D01*
Y188981D02*
X575909D01*
X576249Y188825*
X576249D02*
X576363Y188669D01*
X576477Y188356*
Y187888*
X576477D02*
X576363Y187575D01*
X576249Y187419*
X576249D02*
X575909Y187263D01*
X575909D02*
X574886D01*
X577499Y188356D02*
X577727Y188513D01*
X577727D02*
X578068Y188981D01*
Y185700*
X579090Y188356D02*
X579318Y188513D01*
X579318D02*
X579659Y188981D01*
Y185700*
X613563Y138481D02*
Y135981D01*
X613449Y135513*
X613449D02*
X613336Y135356D01*
X613109Y135200*
X612881*
X612654Y135356*
X612540Y135513*
X612540D02*
X612427Y135981D01*
Y136294*
X614586Y138481D02*
Y135200D01*
Y138481D02*
X615609D01*
X615949Y138325*
X615949D02*
X616063Y138169D01*
X616177Y137856*
Y137388*
X616177D02*
X616063Y137075D01*
X615949Y136919*
X615949D02*
X615609Y136763D01*
X615609D02*
X614586D01*
X617199Y138481D02*
Y135200D01*
Y138481D02*
X618222D01*
X618563Y138325*
X618677Y138169*
X618790Y137856*
Y137544*
X618677Y137231*
X618563Y137075*
X618222Y136919*
X617199*
X617995D02*
X618790Y135200D01*
X619813Y137856D02*
X620040Y138013D01*
X620040D02*
X620381Y138481D01*
Y135200*
X546327Y107581D02*
Y105238D01*
X546327D02*
X546440Y104769D01*
X546668Y104456*
X547009Y104300*
X547236*
X547577Y104456*
X547804Y104769*
X547918Y105238*
X547918D02*
Y107581D01*
X548940D02*
Y104300D01*
Y107581D02*
X549963D01*
X550304Y107425*
X550418Y107269*
X550531Y106956*
Y106488*
X550531D02*
X550418Y106175D01*
X550304Y106019*
X549963Y105863*
X549963D02*
X548940D01*
X551554Y106956D02*
X551781Y107113D01*
X551781D02*
X552122Y107581D01*
Y104300*
X589131Y103900D02*
X589018Y104213D01*
X589018D02*
X588790Y104525D01*
X588563Y104681*
X588109*
X587881Y104525*
X587654Y104213*
X587654D02*
X587540Y103900D01*
X587427Y103431*
Y102650*
X587540Y102181*
X587654Y101869*
X587881Y101556*
X588109Y101400*
X588563*
X588790Y101556*
X589018Y101869*
X589131Y102181*
X590154Y104681D02*
Y101400D01*
Y104681D02*
X591177D01*
X591518Y104525*
X591631Y104369*
X591745Y104056*
Y103588*
X591745D02*
X591631Y103275D01*
X591518Y103119*
X591177Y102963*
X591177D02*
X590154D01*
X592768Y104056D02*
X592995Y104213D01*
X592995D02*
X593336Y104681D01*
Y101400*
X272281Y223464D02*
X269781D01*
X269313Y223577*
X269313D02*
X269156Y223691D01*
X269000Y223918*
Y224145*
X269156Y224373*
X269313Y224486*
X269313D02*
X269781Y224600D01*
X270094*
X272281Y222441D02*
X269000D01*
X272281D02*
Y221418D01*
X272125Y221077*
X271969Y220964*
X271656Y220850*
X271188*
X271188D02*
X270875Y220964D01*
X270719Y221077*
X270563Y221418*
X270563D02*
Y222441D01*
X272281Y219259D02*
X272125Y219600D01*
X271813Y219714*
X271813D02*
X271500D01*
X271188Y219600*
X271188D02*
X271031Y219373D01*
X270875Y218918*
X270719Y218577*
X270406Y218350*
X270094Y218236*
X269625*
X269313Y218350*
X269313D02*
X269156Y218464D01*
X269000Y218805*
Y219259*
X269156Y219600*
X269313Y219714*
X269313D02*
X269625Y219827D01*
X270094*
X270406Y219714*
X270719Y219486*
X270875Y219145*
X271031Y218691*
X271188Y218464*
X271188D02*
X271500Y218350D01*
X271813*
X271813D02*
X272125Y218464D01*
X272281Y218805*
Y219259*
X306881Y220964D02*
X304381D01*
X303913Y221077*
X303913D02*
X303756Y221191D01*
X303600Y221418*
Y221645*
X303756Y221873*
X303913Y221986*
X303913D02*
X304381Y222100D01*
X304694*
X306881Y219941D02*
X303600D01*
X306881D02*
Y218918D01*
X306725Y218577*
X306569Y218464*
X306256Y218350*
X305788*
X305788D02*
X305475Y218464D01*
X305319Y218577*
X305163Y218918*
X305163D02*
Y219941D01*
X306881Y215736D02*
X303600Y216873D01*
X306881Y217327D02*
Y215736D01*
X283200Y129081D02*
Y126738D01*
X283314Y126269*
X283541Y125956*
X283882Y125800*
X284109*
X284450Y125956*
X284677Y126269*
X284791Y126738*
Y129081*
X285814Y128456D02*
X286041Y128613D01*
X286382Y129081*
Y125800*
X307981Y121064D02*
X305481D01*
X305013Y121177*
X305013D02*
X304856Y121291D01*
X304700Y121518*
Y121745*
X304856Y121973*
X305013Y122086*
X305013D02*
X305481Y122200D01*
X305794*
X307981Y120041D02*
X304700D01*
X307981D02*
Y119018D01*
X307825Y118677*
X307669Y118564*
X307356Y118450*
X306888*
X306888D02*
X306575Y118564D01*
X306419Y118677*
X306263Y119018*
X306263D02*
Y120041D01*
X307981Y117200D02*
Y115950D01*
X306731Y116632*
Y116291*
X306575Y116064*
X306419Y115950*
X305950Y115836*
X305638*
X305638D02*
X305169Y115950D01*
X304856Y116177*
X304700Y116518*
Y116859*
X304856Y117200*
X305013Y117314*
X305013D02*
X305325Y117427D01*
X272681Y122264D02*
X270181D01*
X269713Y122377*
X269713D02*
X269556Y122491D01*
X269400Y122718*
Y122945*
X269556Y123173*
X269713Y123286*
X269713D02*
X270181Y123400D01*
X270494*
X272681Y121241D02*
X269400D01*
X272681D02*
Y120218D01*
X272525Y119877*
X272369Y119764*
X272056Y119650*
X271588*
X271588D02*
X271275Y119764D01*
X271119Y119877*
X270963Y120218*
X270963D02*
Y121241D01*
X272681Y117150D02*
Y118286D01*
X271275Y118400*
X271431Y118286*
X271588Y117945*
X271588D02*
Y117605D01*
X271588D02*
X271431Y117264D01*
X271119Y117036*
X270650Y116923*
X270338Y117036*
X270338D02*
X269869Y117150D01*
X269556Y117377*
X269400Y117718*
Y118059*
X269556Y118400*
X269713Y118514*
X269713D02*
X270025Y118627D01*
X342600Y151781D02*
Y148500D01*
X343964*
X345214Y151781D02*
X346464D01*
X345782Y150531*
X346123*
X346350Y150375*
X346464Y150219*
X346577Y149750*
Y149438*
X346577D02*
X346464Y148969D01*
X346236Y148656*
X345895Y148500*
X345555*
X345214Y148656*
X345100Y148813*
X345100D02*
X344986Y149125D01*
X496400Y200681D02*
Y197400D01*
Y200681D02*
X497423D01*
X497764Y200525*
X497877Y200369*
X497991Y200056*
Y199744*
X497877Y199431*
X497764Y199275*
X497423Y199119*
X496400*
X497195D02*
X497991Y197400D01*
X500605Y200681D02*
X499468Y197400D01*
X499014Y200681D02*
X500605D01*
X295481Y220600D02*
X292200D01*
X295481D02*
Y219577D01*
X295325Y219236*
X295169Y219123*
X294856Y219009*
X294544*
X294231Y219123*
X294075Y219236*
X293919Y219577*
Y220600*
Y219805D02*
X292200Y219009D01*
X295481Y217759D02*
Y216509D01*
X294231Y217191*
Y216850*
X294075Y216623*
X293919Y216509*
X293450Y216395*
X293138*
X293138D02*
X292669Y216509D01*
X292356Y216736*
X292200Y217077*
Y217418*
X292356Y217759*
X292513Y217873*
X292513D02*
X292825Y217986D01*
X562702Y227469D02*
X563020Y227688D01*
X563020D02*
X563497Y228344D01*
Y223750*
X460077Y235450D02*
Y230200D01*
Y235450D02*
X462622Y230200D01*
Y235450D02*
Y230200D01*
X464259Y233700D02*
Y231200D01*
X464440Y230450*
X464804Y230200*
X465349*
X465349D02*
X465713Y230450D01*
X466259Y231200*
Y233700D02*
Y230200D01*
X467895Y232450D02*
X471168D01*
X472804Y235450D02*
Y230200D01*
X474986*
X476622Y235450D02*
X476804Y235200D01*
X476986Y235450*
X476804Y235700*
X476622Y235450*
X476804Y233700D02*
Y230200D01*
X478622Y233700D02*
Y230200D01*
Y232700D02*
X479168Y233450D01*
X479531Y233700*
X480077*
X480440Y233450*
X480622Y232700*
Y230200*
X482259Y235450D02*
Y230200D01*
X484077Y233700D02*
X482259Y231200D01*
X482986Y232200D02*
X484259Y230200D01*
X485895Y232450D02*
X489168D01*
X490804Y235450D02*
Y230200D01*
Y235450D02*
X492259Y230200D01*
X493713Y235450D02*
X492259Y230200D01*
X493713Y235450D02*
Y230200D01*
X495349Y232200D02*
X497531D01*
Y232700*
X497349Y233200*
X497349D02*
X497168Y233450D01*
X496804Y233700*
X496259*
X495895Y233450*
X495531Y232950*
X495349Y232200*
X495349D02*
Y231700D01*
X495349D02*
X495531Y230950D01*
X495895Y230450*
X496259Y230200*
X496804*
X497168Y230450*
X497531Y230950*
X503349Y235450D02*
X504804Y230200D01*
X506259Y235450D02*
X504804Y230200D01*
X507895Y234450D02*
X508259Y234700D01*
X508804Y235450*
Y230200*
X510622Y230700D02*
X510440Y230450D01*
X510622Y230200*
X510804Y230450*
X510622Y230700*
X513531Y235450D02*
X512986Y235200D01*
X512622Y234450*
X512440Y233200*
Y232450*
X512622Y231200*
X512986Y230450*
X513531Y230200*
X513895*
X514440Y230450*
X514804Y231200*
X514986Y232450*
Y233200*
X514804Y234450*
X514440Y235200*
X513895Y235450*
X513531*
X139500Y148050D02*
Y142800D01*
Y148050D02*
X142045Y142800D01*
Y148050D02*
Y142800D01*
X143682Y146300D02*
Y143800D01*
X143864Y143050*
X144227Y142800*
X144773*
X145136Y143050*
X145682Y143800*
Y146300D02*
Y142800D01*
X148591Y148050D02*
Y142800D01*
X147318Y148050D02*
X149864D01*
X151500D02*
X151682Y147800D01*
X151864Y148050*
X151682Y148300*
X151500Y148050*
X151682Y146300D02*
Y142800D01*
X153500Y146300D02*
Y142800D01*
Y145300D02*
X154045Y146050D01*
X154409Y146300*
X154955*
X155318Y146050*
X155500Y145300*
Y142800*
X157318Y146300D02*
X158409Y142800D01*
X159500Y146300D02*
X158409Y142800D01*
X158045Y141800*
X157682Y141300*
X157318Y141050*
X157136*
X161136Y145050D02*
X164409D01*
X166045Y148050D02*
Y142800D01*
Y148050D02*
X168409D01*
X166045Y145550D02*
X167500D01*
X166045Y142800D02*
X168409D01*
X170045Y148050D02*
X171500Y142800D01*
X172955Y148050D02*
X171500Y142800D01*
X174591Y148050D02*
Y142800D01*
Y148050D02*
X176227D01*
X176773Y147800*
X176955Y147550*
X177136Y147050*
Y146550*
X176955Y146050*
X176773Y145800*
X176227Y145550*
X174591D02*
X176227D01*
X176773Y145300*
X176955Y145050*
X177136Y144550*
Y143800*
X176955Y143300*
X176773Y143050*
X176227Y142800*
X174591*
X178773Y145050D02*
X182045D01*
X183682Y148050D02*
Y142800D01*
Y148050D02*
X186227Y142800D01*
Y148050D02*
Y142800D01*
X187864Y148050D02*
Y144300D01*
X188045Y143550*
X188409Y143050*
X188955Y142800*
X189318*
X189864Y143050*
X190227Y143550*
X190409Y144300*
Y148050*
X194773Y146800D02*
X194591Y147300D01*
X194227Y147800*
X193864Y148050*
X193136*
X192773Y147800*
X192409Y147300*
X192227Y146800*
X192045Y146050*
Y144800*
X192227Y144050*
X192409Y143550*
X192773Y143050*
X193136Y142800*
X193864*
X194227Y143050*
X194591Y143550*
X194773Y144050*
X196591Y146800D02*
Y147050D01*
X196773Y147550*
X196955Y147800*
X197318Y148050*
X198045*
X198409Y147800*
X198591Y147550*
X198773Y147050*
Y146550*
X198591Y146050*
X198227Y145300*
X196409Y142800*
X198955*
X201682Y148050D02*
X201136Y147800D01*
X200773Y147050*
X200591Y145800*
Y145050*
X200773Y143800*
X201136Y143050*
X201682Y142800*
X202045*
X202591Y143050*
X202955Y143800*
X203136Y145050*
Y145800*
X202955Y147050*
X202591Y147800*
X202045Y148050*
X201682*
X205864D02*
X205318Y147800D01*
X204955Y147050*
X204773Y145800*
Y145050*
X204955Y143800*
X205318Y143050*
X205864Y142800*
X206227*
X206773Y143050*
X207136Y143800*
X207318Y145050*
Y145800*
X207136Y147050*
X206773Y147800*
X206227Y148050*
X205864*
X208955Y145050D02*
X212227D01*
X213864Y148050D02*
Y142800D01*
X216045*
X218773Y148050D02*
X218409Y147800D01*
X218045Y147300*
X217864Y146800*
X217682Y146050*
Y144800*
X217864Y144050*
X218045Y143550*
X218409Y143050*
X218773Y142800*
X219500*
X219864Y143050*
X220227Y143550*
X220409Y144050*
X220591Y144800*
Y146050*
X220409Y146800*
X220227Y147300*
X219864Y147800*
X219500Y148050*
X218773*
X219318Y143800D02*
X220409Y142300D01*
X222227Y148050D02*
Y142800D01*
Y148050D02*
X224591D01*
X222227Y145550D02*
X223682D01*
X226227Y148050D02*
Y142800D01*
Y148050D02*
X227864D01*
X228409Y147800*
X228591Y147550*
X228773Y147050*
Y146300*
X228591Y145800*
X228409Y145550*
X227864Y145300*
X226227*
X230409Y147050D02*
X230773Y147300D01*
X231318Y148050*
Y142800*
X234045Y148050D02*
X233500Y147800D01*
X233136Y147050*
X232955Y145800*
Y145050*
X233136Y143800*
X233500Y143050*
X234045Y142800*
X234409*
X234955Y143050*
X235318Y143800*
X235500Y145050*
Y145800*
X235318Y147050*
X234955Y147800*
X234409Y148050*
X234045*
X238227D02*
X237682Y147800D01*
X237318Y147050*
X237136Y145800*
Y145050*
X237318Y143800*
X237682Y143050*
X238227Y142800*
X238591*
X239136Y143050*
X239500Y143800*
X239682Y145050*
Y145800*
X239500Y147050*
X239136Y147800*
X238591Y148050*
X238227*
X245500D02*
X246955Y142800D01*
X248409Y148050D02*
X246955Y142800D01*
X250045Y147050D02*
X250409Y147300D01*
X250955Y148050*
Y142800*
X252773Y143300D02*
X252591Y143050D01*
X252773Y142800*
X252955Y143050*
X252773Y143300*
X255682Y148050D02*
X255136Y147800D01*
X254773Y147050*
X254591Y145800*
Y145050*
X254773Y143800*
X255136Y143050*
X255682Y142800*
X256045*
X256591Y143050*
X256955Y143800*
X257136Y145050*
Y145800*
X256955Y147050*
X256591Y147800*
X256045Y148050*
X255682*
X260159Y207500D02*
Y207719D01*
X260318Y208156*
X260477Y208375*
X260795Y208594*
X261432*
X261750Y208375*
X261909Y208156*
X262068Y207719*
Y207281*
X261909Y206844*
X261591Y206188*
X261591D02*
X260000Y204000D01*
X262227*
X251591Y208594D02*
X250000Y205531D01*
X252386*
X251591Y208594D02*
Y204000D01*
X241909Y207938D02*
X241750Y208375D01*
X241273Y208594*
X240955*
X240477Y208375*
X240159Y207719*
X240000Y206625*
Y205531*
X240159Y204656*
X240477Y204219*
X240955Y204000*
X241114*
X241591Y204219*
X241909Y204656*
X242068Y205313*
X242068D02*
Y205531D01*
X241909Y206188*
X241909D02*
X241591Y206625D01*
X241114Y206844*
X240955*
X240477Y206625*
X240159Y206188*
X240159D02*
X240000Y205531D01*
X230795Y208594D02*
X230318Y208375D01*
X230159Y207938*
X230159D02*
Y207500D01*
X230318Y207063*
X230318D02*
X230636Y206844D01*
X231273Y206625*
X231750Y206406*
X232068Y205969*
X232227Y205531*
Y204875*
X232068Y204438*
X232068D02*
X231909Y204219D01*
X231432Y204000*
X230795*
X230318Y204219*
X230159Y204438*
X230159D02*
X230000Y204875D01*
Y205531*
X230159Y205969*
X230477Y206406*
X230955Y206625*
X231591Y206844*
X231909Y207063*
X231909D02*
X232068Y207500D01*
Y207938*
X232068D02*
X231909Y208375D01*
X231432Y208594*
X230795*
X218000Y207719D02*
X218318Y207938D01*
X218318D02*
X218795Y208594D01*
Y204000*
X221182Y208594D02*
X220705Y208375D01*
X220386Y207719*
X220227Y206625*
Y205969*
X220386Y204875*
X220705Y204219*
X221182Y204000*
X221500*
X221977Y204219*
X222295Y204875*
X222455Y205969*
Y206625*
X222295Y207719*
X221977Y208375*
X221500Y208594*
X221182*
X208000Y207719D02*
X208318Y207938D01*
X208318D02*
X208795Y208594D01*
Y204000*
X210386Y207500D02*
Y207719D01*
X210545Y208156*
X210705Y208375*
X211023Y208594*
X211659*
X211977Y208375*
X212136Y208156*
X212295Y207719*
Y207281*
X212136Y206844*
X211818Y206188*
X211818D02*
X210227Y204000D01*
X212455*
X198000Y207719D02*
X198318Y207938D01*
X198318D02*
X198795Y208594D01*
Y204000*
X201818Y208594D02*
X200227Y205531D01*
X202614*
X201818Y208594D02*
Y204000D01*
X188000Y207719D02*
X188318Y207938D01*
X188318D02*
X188795Y208594D01*
Y204000*
X192136Y207938D02*
X191977Y208375D01*
X191500Y208594*
X191182*
X190705Y208375*
X190386Y207719*
X190227Y206625*
Y205531*
X190386Y204656*
X190705Y204219*
X191182Y204000*
X191341*
X191818Y204219*
X192136Y204656*
X192295Y205313*
X192295D02*
Y205531D01*
X192136Y206188*
X192136D02*
X191818Y206625D01*
X191341Y206844*
X191182*
X190705Y206625*
X190386Y206188*
X190386D02*
X190227Y205531D01*
X250318Y236594D02*
X252068D01*
X251114Y234844*
X251591*
X251909Y234625*
X252068Y234406*
X252227Y233750*
Y233313*
X252227D02*
X252068Y232656D01*
X251750Y232219*
X251273Y232000*
X250795*
X250318Y232219*
X250159Y232438*
X250159D02*
X250000Y232875D01*
X242068Y236594D02*
X240477D01*
X240318Y234625*
X240477Y234844*
X240955Y235063*
X240955D02*
X241432D01*
X241432D02*
X241909Y234844D01*
X242227Y234406*
X242386Y233750*
X242227Y233313*
X242227D02*
X242068Y232656D01*
X241750Y232219*
X241273Y232000*
X240795*
X240318Y232219*
X240159Y232438*
X240159D02*
X240000Y232875D01*
X232227Y236594D02*
X230636Y232000D01*
X230000Y236594D02*
X232227D01*
X222068Y235063D02*
X221909Y234406D01*
X221591Y233969*
X221114Y233750*
X220955*
X220477Y233969*
X220159Y234406*
X220000Y235063*
X220000D02*
Y235281D01*
X220159Y235938*
X220159D02*
X220477Y236375D01*
X220955Y236594*
X221114*
X221591Y236375*
X221909Y235938*
X221909D02*
X222068Y235063D01*
X222068D02*
Y233969D01*
X221909Y232875*
X221591Y232219*
X221114Y232000*
X220795*
X220318Y232219*
X220159Y232656*
X208000Y235719D02*
X208318Y235938D01*
X208318D02*
X208795Y236594D01*
Y232000*
X210227Y235719D02*
X210545Y235938D01*
X210545D02*
X211023Y236594D01*
Y232000*
X198000Y235719D02*
X198318Y235938D01*
X198318D02*
X198795Y236594D01*
Y232000*
X200545Y236594D02*
X202295D01*
X201341Y234844*
X201818*
X202136Y234625*
X202295Y234406*
X202455Y233750*
Y233313*
X202455D02*
X202295Y232656D01*
X201977Y232219*
X201500Y232000*
X201023*
X200545Y232219*
X200386Y232438*
X200386D02*
X200227Y232875D01*
X188000Y235719D02*
X188318Y235938D01*
X188318D02*
X188795Y236594D01*
Y232000*
X192295Y236594D02*
X190705D01*
X190545Y234625*
X190705Y234844*
X191182Y235063*
X191182D02*
X191659D01*
X191659D02*
X192136Y234844D01*
X192455Y234406*
X192614Y233750*
X192455Y233313*
X192455D02*
X192295Y232656D01*
X191977Y232219*
X191500Y232000*
X191023*
X190545Y232219*
X190386Y232438*
X190386D02*
X190227Y232875D01*
X260000Y235719D02*
X260318Y235938D01*
X260318D02*
X260795Y236594D01*
Y232000*
X111386Y107600D02*
X111227Y108038D01*
X111227D02*
X110909Y108475D01*
X110591Y108694*
X109955*
X109636Y108475*
X109318Y108038*
X109318D02*
X109159Y107600D01*
X109000Y106944*
Y105850*
X109159Y105194*
X109318Y104756*
X109636Y104319*
X109955Y104100*
X110591*
X110909Y104319*
X111227Y104756*
X111386Y105194*
Y105850*
X110591D02*
X111386D01*
X112818Y108694D02*
Y104100D01*
Y108694D02*
X115045Y104100D01*
Y108694D02*
Y104100D01*
X116477Y108694D02*
Y104100D01*
Y108694D02*
X117591D01*
X118068Y108475*
X118386Y108038*
X118386D02*
X118545Y107600D01*
X118705Y106944*
Y105850*
X118545Y105194*
X118386Y104756*
X118068Y104319*
X117591Y104100*
X116477*
X109200Y235994D02*
X110473Y231400D01*
X111745Y235994D02*
X110473Y231400D01*
X115564Y234900D02*
X115405Y235338D01*
X115405D02*
X115086Y235775D01*
X114768Y235994*
X114132*
X113814Y235775*
X113495Y235338*
X113495D02*
X113336Y234900D01*
X113177Y234244*
Y233150*
X113336Y232494*
X113495Y232056*
X113814Y231619*
X114132Y231400*
X114768*
X115086Y231619*
X115405Y232056*
X115564Y232494*
X119382Y234900D02*
X119223Y235338D01*
X119223D02*
X118905Y235775D01*
X118586Y235994*
X117950*
X117632Y235775*
X117314Y235338*
X117314D02*
X117155Y234900D01*
X116995Y234244*
Y233150*
X117155Y232494*
X117314Y232056*
X117632Y231619*
X117950Y231400*
X118586*
X118905Y231619*
X119223Y232056*
X119382Y232494*
X122882Y235994D02*
X121291D01*
X121132Y234025*
X121291Y234244*
X121768Y234463*
X121768D02*
X122245D01*
X122245D02*
X122723Y234244D01*
X123041Y233806*
X123200Y233150*
X123041Y232713*
X123041D02*
X122882Y232056D01*
X122564Y231619*
X122086Y231400*
X121609*
X121132Y231619*
X120973Y231838*
X120973D02*
X120814Y232275D01*
X601127Y120981D02*
X602036Y117700D01*
X602945Y120981D02*
X602036Y117700D01*
X605672Y120200D02*
X605559Y120513D01*
X605559D02*
X605331Y120825D01*
X605104Y120981*
X604649*
X604649D02*
X604422Y120825D01*
X604195Y120513*
X604195D02*
X604081Y120200D01*
X603968Y119731*
Y118950*
X604081Y118481*
X604195Y118169*
X604422Y117856*
X604649Y117700*
X604649D02*
X605104D01*
X605331Y117856*
X605559Y118169*
X605672Y118481*
X608399Y120200D02*
X608286Y120513D01*
X608286D02*
X608059Y120825D01*
X607831Y120981*
X607377*
X607149Y120825*
X607149D02*
X606922Y120513D01*
X606922D02*
X606809Y120200D01*
X606695Y119731*
Y118950*
X606809Y118481*
X606922Y118169*
X607149Y117856*
X607149D02*
X607377Y117700D01*
X607831*
X608059Y117856*
X608286Y118169*
X608399Y118481*
X601554Y109981D02*
X602804D01*
X602122Y108731*
X602463*
X602690Y108575*
X602804Y108419*
X602918Y107950*
Y107638*
X602918D02*
X602804Y107169D01*
X602577Y106856*
X602236Y106700*
X601895*
X601554Y106856*
X601440Y107013*
X601440D02*
X601327Y107325D01*
X604054Y107013D02*
X603940Y106856D01*
X604054Y106700*
X604168Y106856*
X604054Y107013*
X605418Y109981D02*
X606668D01*
X605986Y108731*
X606327*
X606554Y108575*
X606668Y108419*
X606781Y107950*
Y107638*
X606781D02*
X606668Y107169D01*
X606440Y106856*
X606099Y106700*
X606099D02*
X605759D01*
X605418Y106856*
X605304Y107013*
X605304D02*
X605190Y107325D01*
X607804Y109981D02*
X608713Y106700D01*
X609622Y109981D02*
X608713Y106700D01*
X604604Y131081D02*
X603468D01*
X603354Y129675*
X603468Y129831*
X603809Y129988*
X603809D02*
X604149D01*
X604149D02*
X604490Y129831D01*
X604718Y129519*
X604831Y129050*
X604718Y128738*
X604718D02*
X604604Y128269D01*
X604377Y127956*
X604036Y127800*
X603695*
X603354Y127956*
X603240Y128113*
X603240D02*
X603127Y128425D01*
X605854Y131081D02*
X606763Y127800D01*
X607672Y131081D02*
X606763Y127800D01*
X178000Y235719D02*
X178318Y235938D01*
X178318D02*
X178795Y236594D01*
Y232000*
X182455Y236594D02*
X180864Y232000D01*
X180227Y236594D02*
X182455D01*
X178000Y207719D02*
X178318Y207938D01*
X178318D02*
X178795Y208594D01*
Y204000*
X181023Y208594D02*
X180545Y208375D01*
X180386Y207938*
X180386D02*
Y207500D01*
X180545Y207063*
X180545D02*
X180864Y206844D01*
X181500Y206625*
X181977Y206406*
X182295Y205969*
X182455Y205531*
Y204875*
X182295Y204438*
X182295D02*
X182136Y204219D01*
X181659Y204000*
X181023*
X180545Y204219*
X180386Y204438*
X180386D02*
X180227Y204875D01*
Y205531*
X180386Y205969*
X180705Y206406*
X181182Y206625*
X181818Y206844*
X182136Y207063*
X182136D02*
X182295Y207500D01*
Y207938*
X182295D02*
X182136Y208375D01*
X181659Y208594*
X181023*
X168000Y235719D02*
X168318Y235938D01*
X168318D02*
X168795Y236594D01*
Y232000*
X172295Y235063D02*
X172136Y234406D01*
X171818Y233969*
X171341Y233750*
X171182*
X170705Y233969*
X170386Y234406*
X170227Y235063*
X170227D02*
Y235281D01*
X170386Y235938*
X170386D02*
X170705Y236375D01*
X171182Y236594*
X171341*
X171818Y236375*
X172136Y235938*
X172136D02*
X172295Y235063D01*
X172295D02*
Y233969D01*
X172136Y232875*
X171818Y232219*
X171341Y232000*
X171023*
X170545Y232219*
X170386Y232656*
X168159Y207500D02*
Y207719D01*
X168318Y208156*
X168477Y208375*
X168795Y208594*
X169432*
X169750Y208375*
X169909Y208156*
X170068Y207719*
Y207281*
X169909Y206844*
X169591Y206188*
X169591D02*
X168000Y204000D01*
X170227*
X172614Y208594D02*
X172136Y208375D01*
X171818Y207719*
X171659Y206625*
Y205969*
X171818Y204875*
X172136Y204219*
X172614Y204000*
X172932*
X173409Y204219*
X173727Y204875*
X173886Y205969*
Y206625*
X173727Y207719*
X173409Y208375*
X172932Y208594*
X172614*
X158159Y235500D02*
Y235719D01*
X158318Y236156*
X158477Y236375*
X158795Y236594*
X159432*
X159750Y236375*
X159909Y236156*
X160068Y235719*
Y235281*
X159909Y234844*
X159591Y234188*
X159591D02*
X158000Y232000D01*
X160227*
X161659Y235719D02*
X161977Y235938D01*
X161977D02*
X162455Y236594D01*
Y232000*
X158159Y207500D02*
Y207719D01*
X158318Y208156*
X158477Y208375*
X158795Y208594*
X159432*
X159750Y208375*
X159909Y208156*
X160068Y207719*
Y207281*
X159909Y206844*
X159591Y206188*
X159591D02*
X158000Y204000D01*
X160227*
X161818Y207500D02*
Y207719D01*
X161977Y208156*
X162136Y208375*
X162455Y208594*
X163091*
X163409Y208375*
X163568Y208156*
X163727Y207719*
Y207281*
X163568Y206844*
X163250Y206188*
X163250D02*
X161659Y204000D01*
X163886*
X148159Y235500D02*
Y235719D01*
X148318Y236156*
X148477Y236375*
X148795Y236594*
X149432*
X149750Y236375*
X149909Y236156*
X150068Y235719*
Y235281*
X149909Y234844*
X149591Y234188*
X149591D02*
X148000Y232000D01*
X150227*
X151977Y236594D02*
X153727D01*
X152773Y234844*
X153250*
X153568Y234625*
X153727Y234406*
X153886Y233750*
Y233313*
X153886D02*
X153727Y232656D01*
X153409Y232219*
X152932Y232000*
X152455*
X151977Y232219*
X151818Y232438*
X151818D02*
X151659Y232875D01*
X148159Y207500D02*
Y207719D01*
X148318Y208156*
X148477Y208375*
X148795Y208594*
X149432*
X149750Y208375*
X149909Y208156*
X150068Y207719*
Y207281*
X149909Y206844*
X149591Y206188*
X149591D02*
X148000Y204000D01*
X150227*
X153250Y208594D02*
X151659Y205531D01*
X154045*
X153250Y208594D02*
Y204000D01*
X138159Y235500D02*
Y235719D01*
X138318Y236156*
X138477Y236375*
X138795Y236594*
X139432*
X139750Y236375*
X139909Y236156*
X140068Y235719*
Y235281*
X139909Y234844*
X139591Y234188*
X139591D02*
X138000Y232000D01*
X140227*
X143727Y236594D02*
X142136D01*
X141977Y234625*
X142136Y234844*
X142614Y235063*
X142614D02*
X143091D01*
X143091D02*
X143568Y234844D01*
X143886Y234406*
X144045Y233750*
X143886Y233313*
X143886D02*
X143727Y232656D01*
X143409Y232219*
X142932Y232000*
X142455*
X141977Y232219*
X141818Y232438*
X141818D02*
X141659Y232875D01*
X138159Y107500D02*
Y107719D01*
X138318Y108156*
X138477Y108375*
X138795Y108594*
X139432*
X139750Y108375*
X139909Y108156*
X140068Y107719*
Y107281*
X139909Y106844*
X139591Y106188*
X139591D02*
X138000Y104000D01*
X140227*
X143568Y107938D02*
X143409Y108375D01*
X142932Y108594*
X142614*
X142136Y108375*
X141818Y107719*
X141659Y106625*
Y105531*
X141818Y104656*
X142136Y104219*
X142614Y104000*
X142773*
X143250Y104219*
X143568Y104656*
X143727Y105313*
X143727D02*
Y105531D01*
X143568Y106188*
X143568D02*
X143250Y106625D01*
X142773Y106844*
X142614*
X142136Y106625*
X141818Y106188*
X141818D02*
X141659Y105531D01*
X138159Y135500D02*
Y135719D01*
X138318Y136156*
X138477Y136375*
X138795Y136594*
X139432*
X139750Y136375*
X139909Y136156*
X140068Y135719*
Y135281*
X139909Y134844*
X139591Y134188*
X139591D02*
X138000Y132000D01*
X140227*
X143886Y136594D02*
X142295Y132000D01*
X141659Y136594D02*
X143886D01*
X148159Y107500D02*
Y107719D01*
X148318Y108156*
X148477Y108375*
X148795Y108594*
X149432*
X149750Y108375*
X149909Y108156*
X150068Y107719*
Y107281*
X149909Y106844*
X149591Y106188*
X149591D02*
X148000Y104000D01*
X150227*
X152455Y108594D02*
X151977Y108375D01*
X151818Y107938*
X151818D02*
Y107500D01*
X151977Y107063*
X151977D02*
X152295Y106844D01*
X152932Y106625*
X153409Y106406*
X153727Y105969*
X153886Y105531*
Y104875*
X153727Y104438*
X153727D02*
X153568Y104219D01*
X153091Y104000*
X152455*
X151977Y104219*
X151818Y104438*
X151818D02*
X151659Y104875D01*
Y105531*
X151818Y105969*
X152136Y106406*
X152614Y106625*
X153250Y106844*
X153568Y107063*
X153568D02*
X153727Y107500D01*
Y107938*
X153727D02*
X153568Y108375D01*
X153091Y108594*
X152455*
X148159Y135500D02*
Y135719D01*
X148318Y136156*
X148477Y136375*
X148795Y136594*
X149432*
X149750Y136375*
X149909Y136156*
X150068Y135719*
Y135281*
X149909Y134844*
X149591Y134188*
X149591D02*
X148000Y132000D01*
X150227*
X153727Y135063D02*
X153568Y134406D01*
X153250Y133969*
X152773Y133750*
X152614*
X152136Y133969*
X151818Y134406*
X151659Y135063*
X151659D02*
Y135281D01*
X151818Y135938*
X151818D02*
X152136Y136375D01*
X152614Y136594*
X152773*
X153250Y136375*
X153568Y135938*
X153568D02*
X153727Y135063D01*
X153727D02*
Y133969D01*
X153568Y132875*
X153250Y132219*
X152773Y132000*
X152455*
X151977Y132219*
X151818Y132656*
X158318Y108594D02*
X160068D01*
X159114Y106844*
X159591*
X159909Y106625*
X160068Y106406*
X160227Y105750*
Y105313*
X160227D02*
X160068Y104656D01*
X159750Y104219*
X159273Y104000*
X158795*
X158318Y104219*
X158159Y104438*
X158159D02*
X158000Y104875D01*
X162614Y108594D02*
X162136Y108375D01*
X161818Y107719*
X161659Y106625*
Y105969*
X161818Y104875*
X162136Y104219*
X162614Y104000*
X162932*
X163409Y104219*
X163727Y104875*
X163886Y105969*
Y106625*
X163727Y107719*
X163409Y108375*
X162932Y108594*
X162614*
X158318Y136594D02*
X160068D01*
X159114Y134844*
X159591*
X159909Y134625*
X160068Y134406*
X160227Y133750*
Y133313*
X160227D02*
X160068Y132656D01*
X159750Y132219*
X159273Y132000*
X158795*
X158318Y132219*
X158159Y132438*
X158159D02*
X158000Y132875D01*
X161659Y135719D02*
X161977Y135938D01*
X161977D02*
X162455Y136594D01*
Y132000*
X168318Y108594D02*
X170068D01*
X169114Y106844*
X169591*
X169909Y106625*
X170068Y106406*
X170227Y105750*
Y105313*
X170227D02*
X170068Y104656D01*
X169750Y104219*
X169273Y104000*
X168795*
X168318Y104219*
X168159Y104438*
X168159D02*
X168000Y104875D01*
X171818Y107500D02*
Y107719D01*
X171977Y108156*
X172136Y108375*
X172455Y108594*
X173091*
X173409Y108375*
X173568Y108156*
X173727Y107719*
Y107281*
X173568Y106844*
X173250Y106188*
X173250D02*
X171659Y104000D01*
X173886*
X168318Y136594D02*
X170068D01*
X169114Y134844*
X169591*
X169909Y134625*
X170068Y134406*
X170227Y133750*
Y133313*
X170227D02*
X170068Y132656D01*
X169750Y132219*
X169273Y132000*
X168795*
X168318Y132219*
X168159Y132438*
X168159D02*
X168000Y132875D01*
X171977Y136594D02*
X173727D01*
X172773Y134844*
X173250*
X173568Y134625*
X173727Y134406*
X173886Y133750*
Y133313*
X173886D02*
X173727Y132656D01*
X173409Y132219*
X172932Y132000*
X172455*
X171977Y132219*
X171818Y132438*
X171818D02*
X171659Y132875D01*
X178318Y108594D02*
X180068D01*
X179114Y106844*
X179591*
X179909Y106625*
X180068Y106406*
X180227Y105750*
Y105313*
X180227D02*
X180068Y104656D01*
X179750Y104219*
X179273Y104000*
X178795*
X178318Y104219*
X178159Y104438*
X178159D02*
X178000Y104875D01*
X183250Y108594D02*
X181659Y105531D01*
X184045*
X183250Y108594D02*
Y104000D01*
X178318Y136594D02*
X180068D01*
X179114Y134844*
X179591*
X179909Y134625*
X180068Y134406*
X180227Y133750*
Y133313*
X180227D02*
X180068Y132656D01*
X179750Y132219*
X179273Y132000*
X178795*
X178318Y132219*
X178159Y132438*
X178159D02*
X178000Y132875D01*
X183727Y136594D02*
X182136D01*
X181977Y134625*
X182136Y134844*
X182614Y135063*
X182614D02*
X183091D01*
X183091D02*
X183568Y134844D01*
X183886Y134406*
X184045Y133750*
X183886Y133313*
X183886D02*
X183727Y132656D01*
X183409Y132219*
X182932Y132000*
X182455*
X181977Y132219*
X181818Y132438*
X181818D02*
X181659Y132875D01*
X188318Y108594D02*
X190068D01*
X189114Y106844*
X189591*
X189909Y106625*
X190068Y106406*
X190227Y105750*
Y105313*
X190227D02*
X190068Y104656D01*
X189750Y104219*
X189273Y104000*
X188795*
X188318Y104219*
X188159Y104438*
X188159D02*
X188000Y104875D01*
X193568Y107938D02*
X193409Y108375D01*
X192932Y108594*
X192614*
X192136Y108375*
X191818Y107719*
X191659Y106625*
Y105531*
X191818Y104656*
X192136Y104219*
X192614Y104000*
X192773*
X193250Y104219*
X193568Y104656*
X193727Y105313*
X193727D02*
Y105531D01*
X193568Y106188*
X193568D02*
X193250Y106625D01*
X192773Y106844*
X192614*
X192136Y106625*
X191818Y106188*
X191818D02*
X191659Y105531D01*
X188318Y136594D02*
X190068D01*
X189114Y134844*
X189591*
X189909Y134625*
X190068Y134406*
X190227Y133750*
Y133313*
X190227D02*
X190068Y132656D01*
X189750Y132219*
X189273Y132000*
X188795*
X188318Y132219*
X188159Y132438*
X188159D02*
X188000Y132875D01*
X193886Y136594D02*
X192295Y132000D01*
X191659Y136594D02*
X193886D01*
X198318Y108594D02*
X200068D01*
X199114Y106844*
X199591*
X199909Y106625*
X200068Y106406*
X200227Y105750*
Y105313*
X200227D02*
X200068Y104656D01*
X199750Y104219*
X199273Y104000*
X198795*
X198318Y104219*
X198159Y104438*
X198159D02*
X198000Y104875D01*
X202455Y108594D02*
X201977Y108375D01*
X201818Y107938*
X201818D02*
Y107500D01*
X201977Y107063*
X201977D02*
X202295Y106844D01*
X202932Y106625*
X203409Y106406*
X203727Y105969*
X203886Y105531*
Y104875*
X203727Y104438*
X203727D02*
X203568Y104219D01*
X203091Y104000*
X202455*
X201977Y104219*
X201818Y104438*
X201818D02*
X201659Y104875D01*
Y105531*
X201818Y105969*
X202136Y106406*
X202614Y106625*
X203250Y106844*
X203568Y107063*
X203568D02*
X203727Y107500D01*
Y107938*
X203727D02*
X203568Y108375D01*
X203091Y108594*
X202455*
X198318Y136594D02*
X200068D01*
X199114Y134844*
X199591*
X199909Y134625*
X200068Y134406*
X200227Y133750*
Y133313*
X200227D02*
X200068Y132656D01*
X199750Y132219*
X199273Y132000*
X198795*
X198318Y132219*
X198159Y132438*
X198159D02*
X198000Y132875D01*
X203727Y135063D02*
X203568Y134406D01*
X203250Y133969*
X202773Y133750*
X202614*
X202136Y133969*
X201818Y134406*
X201659Y135063*
X201659D02*
Y135281D01*
X201818Y135938*
X201818D02*
X202136Y136375D01*
X202614Y136594*
X202773*
X203250Y136375*
X203568Y135938*
X203568D02*
X203727Y135063D01*
X203727D02*
Y133969D01*
X203568Y132875*
X203250Y132219*
X202773Y132000*
X202455*
X201977Y132219*
X201818Y132656*
X209591Y108594D02*
X208000Y105531D01*
X210386*
X209591Y108594D02*
Y104000D01*
X212773Y108594D02*
X212295Y108375D01*
X211977Y107719*
X211818Y106625*
Y105969*
X211977Y104875*
X212295Y104219*
X212773Y104000*
X213091*
X213568Y104219*
X213886Y104875*
X214045Y105969*
Y106625*
X213886Y107719*
X213568Y108375*
X213091Y108594*
X212773*
X209591Y136594D02*
X208000Y133531D01*
X210386*
X209591Y136594D02*
Y132000D01*
X211818Y135719D02*
X212136Y135938D01*
X212136D02*
X212614Y136594D01*
Y132000*
X219591Y108594D02*
X218000Y105531D01*
X220386*
X219591Y108594D02*
Y104000D01*
X221977Y107500D02*
Y107719D01*
X222136Y108156*
X222295Y108375*
X222614Y108594*
X223250*
X223568Y108375*
X223727Y108156*
X223886Y107719*
Y107281*
X223727Y106844*
X223409Y106188*
X223409D02*
X221818Y104000D01*
X224045*
X219591Y136594D02*
X218000Y133531D01*
X220386*
X219591Y136594D02*
Y132000D01*
X222136Y136594D02*
X223886D01*
X222932Y134844*
X223409*
X223727Y134625*
X223886Y134406*
X224045Y133750*
Y133313*
X224045D02*
X223886Y132656D01*
X223568Y132219*
X223091Y132000*
X222614*
X222136Y132219*
X221977Y132438*
X221977D02*
X221818Y132875D01*
X229591Y108594D02*
X228000Y105531D01*
X230386*
X229591Y108594D02*
Y104000D01*
X233409Y108594D02*
X231818Y105531D01*
X234205*
X233409Y108594D02*
Y104000D01*
X229591Y136594D02*
X228000Y133531D01*
X230386*
X229591Y136594D02*
Y132000D01*
X233886Y136594D02*
X232295D01*
X232136Y134625*
X232295Y134844*
X232773Y135063*
X232773D02*
X233250D01*
X233250D02*
X233727Y134844D01*
X234045Y134406*
X234205Y133750*
X234045Y133313*
X234045D02*
X233886Y132656D01*
X233568Y132219*
X233091Y132000*
X232614*
X232136Y132219*
X231977Y132438*
X231977D02*
X231818Y132875D01*
X239591Y108594D02*
X238000Y105531D01*
X240386*
X239591Y108594D02*
Y104000D01*
X243727Y107938D02*
X243568Y108375D01*
X243091Y108594*
X242773*
X242295Y108375*
X241977Y107719*
X241818Y106625*
Y105531*
X241977Y104656*
X242295Y104219*
X242773Y104000*
X242932*
X243409Y104219*
X243727Y104656*
X243886Y105313*
X243886D02*
Y105531D01*
X243727Y106188*
X243727D02*
X243409Y106625D01*
X242932Y106844*
X242773*
X242295Y106625*
X241977Y106188*
X241977D02*
X241818Y105531D01*
X239591Y136594D02*
X238000Y133531D01*
X240386*
X239591Y136594D02*
Y132000D01*
X244045Y136594D02*
X242455Y132000D01*
X241818Y136594D02*
X244045D01*
X249591Y108594D02*
X248000Y105531D01*
X250386*
X249591Y108594D02*
Y104000D01*
X252614Y108594D02*
X252136Y108375D01*
X251977Y107938*
X251977D02*
Y107500D01*
X252136Y107063*
X252136D02*
X252455Y106844D01*
X253091Y106625*
X253568Y106406*
X253886Y105969*
X254045Y105531*
Y104875*
X253886Y104438*
X253886D02*
X253727Y104219D01*
X253250Y104000*
X252614*
X252136Y104219*
X251977Y104438*
X251977D02*
X251818Y104875D01*
Y105531*
X251977Y105969*
X252295Y106406*
X252773Y106625*
X253409Y106844*
X253727Y107063*
X253727D02*
X253886Y107500D01*
Y107938*
X253886D02*
X253727Y108375D01*
X253250Y108594*
X252614*
X249591Y136594D02*
X248000Y133531D01*
X250386*
X249591Y136594D02*
Y132000D01*
X253886Y135063D02*
X253727Y134406D01*
X253409Y133969*
X252932Y133750*
X252773*
X252295Y133969*
X251977Y134406*
X251818Y135063*
X251818D02*
Y135281D01*
X251977Y135938*
X251977D02*
X252295Y136375D01*
X252773Y136594*
X252932*
X253409Y136375*
X253727Y135938*
X253727D02*
X253886Y135063D01*
X253886D02*
Y133969D01*
X253727Y132875*
X253409Y132219*
X252932Y132000*
X252614*
X252136Y132219*
X251977Y132656*
X260068Y108594D02*
X258477D01*
X258318Y106625*
X258477Y106844*
X258955Y107063*
X258955D02*
X259432D01*
X259432D02*
X259909Y106844D01*
X260227Y106406*
X260386Y105750*
X260227Y105313*
X260227D02*
X260068Y104656D01*
X259750Y104219*
X259273Y104000*
X258795*
X258318Y104219*
X258159Y104438*
X258159D02*
X258000Y104875D01*
X262773Y108594D02*
X262295Y108375D01*
X261977Y107719*
X261818Y106625*
Y105969*
X261977Y104875*
X262295Y104219*
X262773Y104000*
X263091*
X263568Y104219*
X263886Y104875*
X264045Y105969*
Y106625*
X263886Y107719*
X263568Y108375*
X263091Y108594*
X262773*
X314068D02*
X312477D01*
X312318Y106625*
X312477Y106844*
X312955Y107063*
X312955D02*
X313432D01*
X313432D02*
X313909Y106844D01*
X314227Y106406*
X314386Y105750*
X314227Y105313*
X314227D02*
X314068Y104656D01*
X313750Y104219*
X313273Y104000*
X312795*
X312318Y104219*
X312159Y104438*
X312159D02*
X312000Y104875D01*
X315818Y107719D02*
X316136Y107938D01*
X316136D02*
X316614Y108594D01*
Y104000*
X314068Y136594D02*
X312477D01*
X312318Y134625*
X312477Y134844*
X312955Y135063*
X312955D02*
X313432D01*
X313432D02*
X313909Y134844D01*
X314227Y134406*
X314386Y133750*
X314227Y133313*
X314227D02*
X314068Y132656D01*
X313750Y132219*
X313273Y132000*
X312795*
X312318Y132219*
X312159Y132438*
X312159D02*
X312000Y132875D01*
X315977Y135500D02*
Y135719D01*
X316136Y136156*
X316295Y136375*
X316614Y136594*
X317250*
X317568Y136375*
X317727Y136156*
X317886Y135719*
Y135281*
X317727Y134844*
X317409Y134188*
X317409D02*
X315818Y132000D01*
X318045*
X324068Y108594D02*
X322477D01*
X322318Y106625*
X322477Y106844*
X322955Y107063*
X322955D02*
X323432D01*
X323432D02*
X323909Y106844D01*
X324227Y106406*
X324386Y105750*
X324227Y105313*
X324227D02*
X324068Y104656D01*
X323750Y104219*
X323273Y104000*
X322795*
X322318Y104219*
X322159Y104438*
X322159D02*
X322000Y104875D01*
X326136Y108594D02*
X327886D01*
X326932Y106844*
X327409*
X327727Y106625*
X327886Y106406*
X328045Y105750*
Y105313*
X328045D02*
X327886Y104656D01*
X327568Y104219*
X327091Y104000*
X326614*
X326136Y104219*
X325977Y104438*
X325977D02*
X325818Y104875D01*
X324068Y136594D02*
X322477D01*
X322318Y134625*
X322477Y134844*
X322955Y135063*
X322955D02*
X323432D01*
X323432D02*
X323909Y134844D01*
X324227Y134406*
X324386Y133750*
X324227Y133313*
X324227D02*
X324068Y132656D01*
X323750Y132219*
X323273Y132000*
X322795*
X322318Y132219*
X322159Y132438*
X322159D02*
X322000Y132875D01*
X327409Y136594D02*
X325818Y133531D01*
X328205*
X327409Y136594D02*
Y132000D01*
X334068Y108594D02*
X332477D01*
X332318Y106625*
X332477Y106844*
X332955Y107063*
X332955D02*
X333432D01*
X333432D02*
X333909Y106844D01*
X334227Y106406*
X334386Y105750*
X334227Y105313*
X334227D02*
X334068Y104656D01*
X333750Y104219*
X333273Y104000*
X332795*
X332318Y104219*
X332159Y104438*
X332159D02*
X332000Y104875D01*
X337886Y108594D02*
X336295D01*
X336136Y106625*
X336295Y106844*
X336773Y107063*
X336773D02*
X337250D01*
X337250D02*
X337727Y106844D01*
X338045Y106406*
X338205Y105750*
X338045Y105313*
X338045D02*
X337886Y104656D01*
X337568Y104219*
X337091Y104000*
X336614*
X336136Y104219*
X335977Y104438*
X335977D02*
X335818Y104875D01*
X334068Y136594D02*
X332477D01*
X332318Y134625*
X332477Y134844*
X332955Y135063*
X332955D02*
X333432D01*
X333432D02*
X333909Y134844D01*
X334227Y134406*
X334386Y133750*
X334227Y133313*
X334227D02*
X334068Y132656D01*
X333750Y132219*
X333273Y132000*
X332795*
X332318Y132219*
X332159Y132438*
X332159D02*
X332000Y132875D01*
X337727Y135938D02*
X337568Y136375D01*
X337091Y136594*
X336773*
X336295Y136375*
X335977Y135719*
X335818Y134625*
Y133531*
X335977Y132656*
X336295Y132219*
X336773Y132000*
X336932*
X337409Y132219*
X337727Y132656*
X337886Y133313*
X337886D02*
Y133531D01*
X337727Y134188*
X337727D02*
X337409Y134625D01*
X336932Y134844*
X336773*
X336295Y134625*
X335977Y134188*
X335977D02*
X335818Y133531D01*
X344068Y108594D02*
X342477D01*
X342318Y106625*
X342477Y106844*
X342955Y107063*
X342955D02*
X343432D01*
X343432D02*
X343909Y106844D01*
X344227Y106406*
X344386Y105750*
X344227Y105313*
X344227D02*
X344068Y104656D01*
X343750Y104219*
X343273Y104000*
X342795*
X342318Y104219*
X342159Y104438*
X342159D02*
X342000Y104875D01*
X348045Y108594D02*
X346455Y104000D01*
X345818Y108594D02*
X348045D01*
X344068Y136594D02*
X342477D01*
X342318Y134625*
X342477Y134844*
X342955Y135063*
X342955D02*
X343432D01*
X343432D02*
X343909Y134844D01*
X344227Y134406*
X344386Y133750*
X344227Y133313*
X344227D02*
X344068Y132656D01*
X343750Y132219*
X343273Y132000*
X342795*
X342318Y132219*
X342159Y132438*
X342159D02*
X342000Y132875D01*
X346614Y136594D02*
X346136Y136375D01*
X345977Y135938*
X345977D02*
Y135500D01*
X346136Y135063*
X346136D02*
X346455Y134844D01*
X347091Y134625*
X347568Y134406*
X347886Y133969*
X348045Y133531*
Y132875*
X347886Y132438*
X347886D02*
X347727Y132219D01*
X347250Y132000*
X346614*
X346136Y132219*
X345977Y132438*
X345977D02*
X345818Y132875D01*
Y133531*
X345977Y133969*
X346295Y134406*
X346773Y134625*
X347409Y134844*
X347727Y135063*
X347727D02*
X347886Y135500D01*
Y135938*
X347886D02*
X347727Y136375D01*
X347250Y136594*
X346614*
X354068Y108594D02*
X352477D01*
X352318Y106625*
X352477Y106844*
X352955Y107063*
X352955D02*
X353432D01*
X353432D02*
X353909Y106844D01*
X354227Y106406*
X354386Y105750*
X354227Y105313*
X354227D02*
X354068Y104656D01*
X353750Y104219*
X353273Y104000*
X352795*
X352318Y104219*
X352159Y104438*
X352159D02*
X352000Y104875D01*
X357886Y107063D02*
X357727Y106406D01*
X357409Y105969*
X356932Y105750*
X356773*
X356295Y105969*
X355977Y106406*
X355818Y107063*
X355818D02*
Y107281D01*
X355977Y107938*
X355977D02*
X356295Y108375D01*
X356773Y108594*
X356932*
X357409Y108375*
X357727Y107938*
X357727D02*
X357886Y107063D01*
X357886D02*
Y105969D01*
X357727Y104875*
X357409Y104219*
X356932Y104000*
X356614*
X356136Y104219*
X355977Y104656*
X353909Y135938D02*
X353750Y136375D01*
X353273Y136594*
X352955*
X352477Y136375*
X352159Y135719*
X352000Y134625*
Y133531*
X352159Y132656*
X352477Y132219*
X352955Y132000*
X353114*
X353591Y132219*
X353909Y132656*
X354068Y133313*
X354068D02*
Y133531D01*
X353909Y134188*
X353909D02*
X353591Y134625D01*
X353114Y134844*
X352955*
X352477Y134625*
X352159Y134188*
X352159D02*
X352000Y133531D01*
X356455Y136594D02*
X355977Y136375D01*
X355659Y135719*
X355500Y134625*
Y133969*
X355659Y132875*
X355977Y132219*
X356455Y132000*
X356773*
X357250Y132219*
X357568Y132875*
X357727Y133969*
Y134625*
X357568Y135719*
X357250Y136375*
X356773Y136594*
X356455*
X363909Y107938D02*
X363750Y108375D01*
X363273Y108594*
X362955*
X362477Y108375*
X362159Y107719*
X362000Y106625*
Y105531*
X362159Y104656*
X362477Y104219*
X362955Y104000*
X363114*
X363591Y104219*
X363909Y104656*
X364068Y105313*
X364068D02*
Y105531D01*
X363909Y106188*
X363909D02*
X363591Y106625D01*
X363114Y106844*
X362955*
X362477Y106625*
X362159Y106188*
X362159D02*
X362000Y105531D01*
X365500Y107719D02*
X365818Y107938D01*
X365818D02*
X366295Y108594D01*
Y104000*
X363909Y135938D02*
X363750Y136375D01*
X363273Y136594*
X362955*
X362477Y136375*
X362159Y135719*
X362000Y134625*
Y133531*
X362159Y132656*
X362477Y132219*
X362955Y132000*
X363114*
X363591Y132219*
X363909Y132656*
X364068Y133313*
X364068D02*
Y133531D01*
X363909Y134188*
X363909D02*
X363591Y134625D01*
X363114Y134844*
X362955*
X362477Y134625*
X362159Y134188*
X362159D02*
X362000Y133531D01*
X365659Y135500D02*
Y135719D01*
X365818Y136156*
X365977Y136375*
X366295Y136594*
X366932*
X367250Y136375*
X367409Y136156*
X367568Y135719*
Y135281*
X367409Y134844*
X367091Y134188*
X367091D02*
X365500Y132000D01*
X367727*
X373909Y107938D02*
X373750Y108375D01*
X373273Y108594*
X372955*
X372477Y108375*
X372159Y107719*
X372000Y106625*
Y105531*
X372159Y104656*
X372477Y104219*
X372955Y104000*
X373114*
X373591Y104219*
X373909Y104656*
X374068Y105313*
X374068D02*
Y105531D01*
X373909Y106188*
X373909D02*
X373591Y106625D01*
X373114Y106844*
X372955*
X372477Y106625*
X372159Y106188*
X372159D02*
X372000Y105531D01*
X375818Y108594D02*
X377568D01*
X376614Y106844*
X377091*
X377409Y106625*
X377568Y106406*
X377727Y105750*
Y105313*
X377727D02*
X377568Y104656D01*
X377250Y104219*
X376773Y104000*
X376295*
X375818Y104219*
X375659Y104438*
X375659D02*
X375500Y104875D01*
X373909Y135938D02*
X373750Y136375D01*
X373273Y136594*
X372955*
X372477Y136375*
X372159Y135719*
X372000Y134625*
Y133531*
X372159Y132656*
X372477Y132219*
X372955Y132000*
X373114*
X373591Y132219*
X373909Y132656*
X374068Y133313*
X374068D02*
Y133531D01*
X373909Y134188*
X373909D02*
X373591Y134625D01*
X373114Y134844*
X372955*
X372477Y134625*
X372159Y134188*
X372159D02*
X372000Y133531D01*
X377091Y136594D02*
X375500Y133531D01*
X377886*
X377091Y136594D02*
Y132000D01*
X383909Y107938D02*
X383750Y108375D01*
X383273Y108594*
X382955*
X382477Y108375*
X382159Y107719*
X382000Y106625*
Y105531*
X382159Y104656*
X382477Y104219*
X382955Y104000*
X383114*
X383591Y104219*
X383909Y104656*
X384068Y105313*
X384068D02*
Y105531D01*
X383909Y106188*
X383909D02*
X383591Y106625D01*
X383114Y106844*
X382955*
X382477Y106625*
X382159Y106188*
X382159D02*
X382000Y105531D01*
X387568Y108594D02*
X385977D01*
X385818Y106625*
X385977Y106844*
X386455Y107063*
X386455D02*
X386932D01*
X386932D02*
X387409Y106844D01*
X387727Y106406*
X387886Y105750*
X387727Y105313*
X387727D02*
X387568Y104656D01*
X387250Y104219*
X386773Y104000*
X386295*
X385818Y104219*
X385659Y104438*
X385659D02*
X385500Y104875D01*
X383909Y135938D02*
X383750Y136375D01*
X383273Y136594*
X382955*
X382477Y136375*
X382159Y135719*
X382000Y134625*
Y133531*
X382159Y132656*
X382477Y132219*
X382955Y132000*
X383114*
X383591Y132219*
X383909Y132656*
X384068Y133313*
X384068D02*
Y133531D01*
X383909Y134188*
X383909D02*
X383591Y134625D01*
X383114Y134844*
X382955*
X382477Y134625*
X382159Y134188*
X382159D02*
X382000Y133531D01*
X387409Y135938D02*
X387250Y136375D01*
X386773Y136594*
X386455*
X385977Y136375*
X385659Y135719*
X385500Y134625*
Y133531*
X385659Y132656*
X385977Y132219*
X386455Y132000*
X386614*
X387091Y132219*
X387409Y132656*
X387568Y133313*
X387568D02*
Y133531D01*
X387409Y134188*
X387409D02*
X387091Y134625D01*
X386614Y134844*
X386455*
X385977Y134625*
X385659Y134188*
X385659D02*
X385500Y133531D01*
X393909Y107938D02*
X393750Y108375D01*
X393273Y108594*
X392955*
X392477Y108375*
X392159Y107719*
X392000Y106625*
Y105531*
X392159Y104656*
X392477Y104219*
X392955Y104000*
X393114*
X393591Y104219*
X393909Y104656*
X394068Y105313*
X394068D02*
Y105531D01*
X393909Y106188*
X393909D02*
X393591Y106625D01*
X393114Y106844*
X392955*
X392477Y106625*
X392159Y106188*
X392159D02*
X392000Y105531D01*
X397727Y108594D02*
X396136Y104000D01*
X395500Y108594D02*
X397727D01*
X393909Y135938D02*
X393750Y136375D01*
X393273Y136594*
X392955*
X392477Y136375*
X392159Y135719*
X392000Y134625*
Y133531*
X392159Y132656*
X392477Y132219*
X392955Y132000*
X393114*
X393591Y132219*
X393909Y132656*
X394068Y133313*
X394068D02*
Y133531D01*
X393909Y134188*
X393909D02*
X393591Y134625D01*
X393114Y134844*
X392955*
X392477Y134625*
X392159Y134188*
X392159D02*
X392000Y133531D01*
X396295Y136594D02*
X395818Y136375D01*
X395659Y135938*
X395659D02*
Y135500D01*
X395818Y135063*
X395818D02*
X396136Y134844D01*
X396773Y134625*
X397250Y134406*
X397568Y133969*
X397727Y133531*
Y132875*
X397568Y132438*
X397568D02*
X397409Y132219D01*
X396932Y132000*
X396295*
X395818Y132219*
X395659Y132438*
X395659D02*
X395500Y132875D01*
Y133531*
X395659Y133969*
X395977Y134406*
X396455Y134625*
X397091Y134844*
X397409Y135063*
X397409D02*
X397568Y135500D01*
Y135938*
X397568D02*
X397409Y136375D01*
X396932Y136594*
X396295*
X403909Y107938D02*
X403750Y108375D01*
X403273Y108594*
X402955*
X402477Y108375*
X402159Y107719*
X402000Y106625*
Y105531*
X402159Y104656*
X402477Y104219*
X402955Y104000*
X403114*
X403591Y104219*
X403909Y104656*
X404068Y105313*
X404068D02*
Y105531D01*
X403909Y106188*
X403909D02*
X403591Y106625D01*
X403114Y106844*
X402955*
X402477Y106625*
X402159Y106188*
X402159D02*
X402000Y105531D01*
X407568Y107063D02*
X407409Y106406D01*
X407091Y105969*
X406614Y105750*
X406455*
X405977Y105969*
X405659Y106406*
X405500Y107063*
X405500D02*
Y107281D01*
X405659Y107938*
X405659D02*
X405977Y108375D01*
X406455Y108594*
X406614*
X407091Y108375*
X407409Y107938*
X407409D02*
X407568Y107063D01*
X407568D02*
Y105969D01*
X407409Y104875*
X407091Y104219*
X406614Y104000*
X406295*
X405818Y104219*
X405659Y104656*
X404227Y136594D02*
X402636Y132000D01*
X402000Y136594D02*
X404227D01*
X406614D02*
X406136Y136375D01*
X405818Y135719*
X405659Y134625*
Y133969*
X405818Y132875*
X406136Y132219*
X406614Y132000*
X406932*
X407409Y132219*
X407727Y132875*
X407886Y133969*
Y134625*
X407727Y135719*
X407409Y136375*
X406932Y136594*
X406614*
X414227Y108594D02*
X412636Y104000D01*
X412000Y108594D02*
X414227D01*
X415659Y107719D02*
X415977Y107938D01*
X415977D02*
X416455Y108594D01*
Y104000*
X414227Y136594D02*
X412636Y132000D01*
X412000Y136594D02*
X414227D01*
X415818Y135500D02*
Y135719D01*
X415977Y136156*
X416136Y136375*
X416455Y136594*
X417091*
X417409Y136375*
X417568Y136156*
X417727Y135719*
Y135281*
X417568Y134844*
X417250Y134188*
X417250D02*
X415659Y132000D01*
X417886*
X424227Y108594D02*
X422636Y104000D01*
X422000Y108594D02*
X424227D01*
X425977D02*
X427727D01*
X426773Y106844*
X427250*
X427568Y106625*
X427727Y106406*
X427886Y105750*
Y105313*
X427886D02*
X427727Y104656D01*
X427409Y104219*
X426932Y104000*
X426455*
X425977Y104219*
X425818Y104438*
X425818D02*
X425659Y104875D01*
X424227Y136594D02*
X422636Y132000D01*
X422000Y136594D02*
X424227D01*
X427250D02*
X425659Y133531D01*
X428045*
X427250Y136594D02*
Y132000D01*
X434227Y108594D02*
X432636Y104000D01*
X432000Y108594D02*
X434227D01*
X437727D02*
X436136D01*
X435977Y106625*
X436136Y106844*
X436614Y107063*
X436614D02*
X437091D01*
X437091D02*
X437568Y106844D01*
X437886Y106406*
X438045Y105750*
X437886Y105313*
X437886D02*
X437727Y104656D01*
X437409Y104219*
X436932Y104000*
X436455*
X435977Y104219*
X435818Y104438*
X435818D02*
X435659Y104875D01*
X434227Y236594D02*
X432636Y232000D01*
X432000Y236594D02*
X434227D01*
X437568Y235938D02*
X437409Y236375D01*
X436932Y236594*
X436614*
X436136Y236375*
X435818Y235719*
X435659Y234625*
Y233531*
X435818Y232656*
X436136Y232219*
X436614Y232000*
X436773*
X437250Y232219*
X437568Y232656*
X437727Y233313*
X437727D02*
Y233531D01*
X437568Y234188*
X437568D02*
X437250Y234625D01*
X436773Y234844*
X436614*
X436136Y234625*
X435818Y234188*
X435818D02*
X435659Y233531D01*
X434227Y208594D02*
X432636Y204000D01*
X432000Y208594D02*
X434227D01*
X437886D02*
X436295Y204000D01*
X435659Y208594D02*
X437886D01*
X424227Y236594D02*
X422636Y232000D01*
X422000Y236594D02*
X424227D01*
X426455D02*
X425977Y236375D01*
X425818Y235938*
X425818D02*
Y235500D01*
X425977Y235063*
X425977D02*
X426295Y234844D01*
X426932Y234625*
X427409Y234406*
X427727Y233969*
X427886Y233531*
Y232875*
X427727Y232438*
X427727D02*
X427568Y232219D01*
X427091Y232000*
X426455*
X425977Y232219*
X425818Y232438*
X425818D02*
X425659Y232875D01*
Y233531*
X425818Y233969*
X426136Y234406*
X426614Y234625*
X427250Y234844*
X427568Y235063*
X427568D02*
X427727Y235500D01*
Y235938*
X427727D02*
X427568Y236375D01*
X427091Y236594*
X426455*
X424227Y208594D02*
X422636Y204000D01*
X422000Y208594D02*
X424227D01*
X427727Y207063D02*
X427568Y206406D01*
X427250Y205969*
X426773Y205750*
X426614*
X426136Y205969*
X425818Y206406*
X425659Y207063*
X425659D02*
Y207281D01*
X425818Y207938*
X425818D02*
X426136Y208375D01*
X426614Y208594*
X426773*
X427250Y208375*
X427568Y207938*
X427568D02*
X427727Y207063D01*
X427727D02*
Y205969D01*
X427568Y204875*
X427250Y204219*
X426773Y204000*
X426455*
X425977Y204219*
X425818Y204656*
X412795Y236594D02*
X412318Y236375D01*
X412159Y235938*
X412159D02*
Y235500D01*
X412318Y235063*
X412318D02*
X412636Y234844D01*
X413273Y234625*
X413750Y234406*
X414068Y233969*
X414227Y233531*
Y232875*
X414068Y232438*
X414068D02*
X413909Y232219D01*
X413432Y232000*
X412795*
X412318Y232219*
X412159Y232438*
X412159D02*
X412000Y232875D01*
Y233531*
X412159Y233969*
X412477Y234406*
X412955Y234625*
X413591Y234844*
X413909Y235063*
X413909D02*
X414068Y235500D01*
Y235938*
X414068D02*
X413909Y236375D01*
X413432Y236594*
X412795*
X416614D02*
X416136Y236375D01*
X415818Y235719*
X415659Y234625*
Y233969*
X415818Y232875*
X416136Y232219*
X416614Y232000*
X416932*
X417409Y232219*
X417727Y232875*
X417886Y233969*
Y234625*
X417727Y235719*
X417409Y236375*
X416932Y236594*
X416614*
X412795Y208594D02*
X412318Y208375D01*
X412159Y207938*
X412159D02*
Y207500D01*
X412318Y207063*
X412318D02*
X412636Y206844D01*
X413273Y206625*
X413750Y206406*
X414068Y205969*
X414227Y205531*
Y204875*
X414068Y204438*
X414068D02*
X413909Y204219D01*
X413432Y204000*
X412795*
X412318Y204219*
X412159Y204438*
X412159D02*
X412000Y204875D01*
Y205531*
X412159Y205969*
X412477Y206406*
X412955Y206625*
X413591Y206844*
X413909Y207063*
X413909D02*
X414068Y207500D01*
Y207938*
X414068D02*
X413909Y208375D01*
X413432Y208594*
X412795*
X415659Y207719D02*
X415977Y207938D01*
X415977D02*
X416455Y208594D01*
Y204000*
X402795Y236594D02*
X402318Y236375D01*
X402159Y235938*
X402159D02*
Y235500D01*
X402318Y235063*
X402318D02*
X402636Y234844D01*
X403273Y234625*
X403750Y234406*
X404068Y233969*
X404227Y233531*
Y232875*
X404068Y232438*
X404068D02*
X403909Y232219D01*
X403432Y232000*
X402795*
X402318Y232219*
X402159Y232438*
X402159D02*
X402000Y232875D01*
Y233531*
X402159Y233969*
X402477Y234406*
X402955Y234625*
X403591Y234844*
X403909Y235063*
X403909D02*
X404068Y235500D01*
Y235938*
X404068D02*
X403909Y236375D01*
X403432Y236594*
X402795*
X405818Y235500D02*
Y235719D01*
X405977Y236156*
X406136Y236375*
X406455Y236594*
X407091*
X407409Y236375*
X407568Y236156*
X407727Y235719*
Y235281*
X407568Y234844*
X407250Y234188*
X407250D02*
X405659Y232000D01*
X407886*
X402795Y208594D02*
X402318Y208375D01*
X402159Y207938*
X402159D02*
Y207500D01*
X402318Y207063*
X402318D02*
X402636Y206844D01*
X403273Y206625*
X403750Y206406*
X404068Y205969*
X404227Y205531*
Y204875*
X404068Y204438*
X404068D02*
X403909Y204219D01*
X403432Y204000*
X402795*
X402318Y204219*
X402159Y204438*
X402159D02*
X402000Y204875D01*
Y205531*
X402159Y205969*
X402477Y206406*
X402955Y206625*
X403591Y206844*
X403909Y207063*
X403909D02*
X404068Y207500D01*
Y207938*
X404068D02*
X403909Y208375D01*
X403432Y208594*
X402795*
X405977D02*
X407727D01*
X406773Y206844*
X407250*
X407568Y206625*
X407727Y206406*
X407886Y205750*
Y205313*
X407886D02*
X407727Y204656D01*
X407409Y204219*
X406932Y204000*
X406455*
X405977Y204219*
X405818Y204438*
X405818D02*
X405659Y204875D01*
X392795Y236594D02*
X392318Y236375D01*
X392159Y235938*
X392159D02*
Y235500D01*
X392318Y235063*
X392318D02*
X392636Y234844D01*
X393273Y234625*
X393750Y234406*
X394068Y233969*
X394227Y233531*
Y232875*
X394068Y232438*
X394068D02*
X393909Y232219D01*
X393432Y232000*
X392795*
X392318Y232219*
X392159Y232438*
X392159D02*
X392000Y232875D01*
Y233531*
X392159Y233969*
X392477Y234406*
X392955Y234625*
X393591Y234844*
X393909Y235063*
X393909D02*
X394068Y235500D01*
Y235938*
X394068D02*
X393909Y236375D01*
X393432Y236594*
X392795*
X397250D02*
X395659Y233531D01*
X398045*
X397250Y236594D02*
Y232000D01*
X392795Y208594D02*
X392318Y208375D01*
X392159Y207938*
X392159D02*
Y207500D01*
X392318Y207063*
X392318D02*
X392636Y206844D01*
X393273Y206625*
X393750Y206406*
X394068Y205969*
X394227Y205531*
Y204875*
X394068Y204438*
X394068D02*
X393909Y204219D01*
X393432Y204000*
X392795*
X392318Y204219*
X392159Y204438*
X392159D02*
X392000Y204875D01*
Y205531*
X392159Y205969*
X392477Y206406*
X392955Y206625*
X393591Y206844*
X393909Y207063*
X393909D02*
X394068Y207500D01*
Y207938*
X394068D02*
X393909Y208375D01*
X393432Y208594*
X392795*
X397727D02*
X396136D01*
X395977Y206625*
X396136Y206844*
X396614Y207063*
X396614D02*
X397091D01*
X397091D02*
X397568Y206844D01*
X397886Y206406*
X398045Y205750*
X397886Y205313*
X397886D02*
X397727Y204656D01*
X397409Y204219*
X396932Y204000*
X396455*
X395977Y204219*
X395818Y204438*
X395818D02*
X395659Y204875D01*
X382795Y236594D02*
X382318Y236375D01*
X382159Y235938*
X382159D02*
Y235500D01*
X382318Y235063*
X382318D02*
X382636Y234844D01*
X383273Y234625*
X383750Y234406*
X384068Y233969*
X384227Y233531*
Y232875*
X384068Y232438*
X384068D02*
X383909Y232219D01*
X383432Y232000*
X382795*
X382318Y232219*
X382159Y232438*
X382159D02*
X382000Y232875D01*
Y233531*
X382159Y233969*
X382477Y234406*
X382955Y234625*
X383591Y234844*
X383909Y235063*
X383909D02*
X384068Y235500D01*
Y235938*
X384068D02*
X383909Y236375D01*
X383432Y236594*
X382795*
X387568Y235938D02*
X387409Y236375D01*
X386932Y236594*
X386614*
X386136Y236375*
X385818Y235719*
X385659Y234625*
Y233531*
X385818Y232656*
X386136Y232219*
X386614Y232000*
X386773*
X387250Y232219*
X387568Y232656*
X387727Y233313*
X387727D02*
Y233531D01*
X387568Y234188*
X387568D02*
X387250Y234625D01*
X386773Y234844*
X386614*
X386136Y234625*
X385818Y234188*
X385818D02*
X385659Y233531D01*
X382795Y208594D02*
X382318Y208375D01*
X382159Y207938*
X382159D02*
Y207500D01*
X382318Y207063*
X382318D02*
X382636Y206844D01*
X383273Y206625*
X383750Y206406*
X384068Y205969*
X384227Y205531*
Y204875*
X384068Y204438*
X384068D02*
X383909Y204219D01*
X383432Y204000*
X382795*
X382318Y204219*
X382159Y204438*
X382159D02*
X382000Y204875D01*
Y205531*
X382159Y205969*
X382477Y206406*
X382955Y206625*
X383591Y206844*
X383909Y207063*
X383909D02*
X384068Y207500D01*
Y207938*
X384068D02*
X383909Y208375D01*
X383432Y208594*
X382795*
X387886D02*
X386295Y204000D01*
X385659Y208594D02*
X387886D01*
X372795Y236594D02*
X372318Y236375D01*
X372159Y235938*
X372159D02*
Y235500D01*
X372318Y235063*
X372318D02*
X372636Y234844D01*
X373273Y234625*
X373750Y234406*
X374068Y233969*
X374227Y233531*
Y232875*
X374068Y232438*
X374068D02*
X373909Y232219D01*
X373432Y232000*
X372795*
X372318Y232219*
X372159Y232438*
X372159D02*
X372000Y232875D01*
Y233531*
X372159Y233969*
X372477Y234406*
X372955Y234625*
X373591Y234844*
X373909Y235063*
X373909D02*
X374068Y235500D01*
Y235938*
X374068D02*
X373909Y236375D01*
X373432Y236594*
X372795*
X376455D02*
X375977Y236375D01*
X375818Y235938*
X375818D02*
Y235500D01*
X375977Y235063*
X375977D02*
X376295Y234844D01*
X376932Y234625*
X377409Y234406*
X377727Y233969*
X377886Y233531*
Y232875*
X377727Y232438*
X377727D02*
X377568Y232219D01*
X377091Y232000*
X376455*
X375977Y232219*
X375818Y232438*
X375818D02*
X375659Y232875D01*
Y233531*
X375818Y233969*
X376136Y234406*
X376614Y234625*
X377250Y234844*
X377568Y235063*
X377568D02*
X377727Y235500D01*
Y235938*
X377727D02*
X377568Y236375D01*
X377091Y236594*
X376455*
X372795Y208594D02*
X372318Y208375D01*
X372159Y207938*
X372159D02*
Y207500D01*
X372318Y207063*
X372318D02*
X372636Y206844D01*
X373273Y206625*
X373750Y206406*
X374068Y205969*
X374227Y205531*
Y204875*
X374068Y204438*
X374068D02*
X373909Y204219D01*
X373432Y204000*
X372795*
X372318Y204219*
X372159Y204438*
X372159D02*
X372000Y204875D01*
Y205531*
X372159Y205969*
X372477Y206406*
X372955Y206625*
X373591Y206844*
X373909Y207063*
X373909D02*
X374068Y207500D01*
Y207938*
X374068D02*
X373909Y208375D01*
X373432Y208594*
X372795*
X377727Y207063D02*
X377568Y206406D01*
X377250Y205969*
X376773Y205750*
X376614*
X376136Y205969*
X375818Y206406*
X375659Y207063*
X375659D02*
Y207281D01*
X375818Y207938*
X375818D02*
X376136Y208375D01*
X376614Y208594*
X376773*
X377250Y208375*
X377568Y207938*
X377568D02*
X377727Y207063D01*
X377727D02*
Y205969D01*
X377568Y204875*
X377250Y204219*
X376773Y204000*
X376455*
X375977Y204219*
X375818Y204656*
X364068Y235063D02*
X363909Y234406D01*
X363591Y233969*
X363114Y233750*
X362955*
X362477Y233969*
X362159Y234406*
X362000Y235063*
X362000D02*
Y235281D01*
X362159Y235938*
X362159D02*
X362477Y236375D01*
X362955Y236594*
X363114*
X363591Y236375*
X363909Y235938*
X363909D02*
X364068Y235063D01*
X364068D02*
Y233969D01*
X363909Y232875*
X363591Y232219*
X363114Y232000*
X362795*
X362318Y232219*
X362159Y232656*
X366455Y236594D02*
X365977Y236375D01*
X365659Y235719*
X365500Y234625*
Y233969*
X365659Y232875*
X365977Y232219*
X366455Y232000*
X366773*
X367250Y232219*
X367568Y232875*
X367727Y233969*
Y234625*
X367568Y235719*
X367250Y236375*
X366773Y236594*
X366455*
X364068Y207063D02*
X363909Y206406D01*
X363591Y205969*
X363114Y205750*
X362955*
X362477Y205969*
X362159Y206406*
X362000Y207063*
X362000D02*
Y207281D01*
X362159Y207938*
X362159D02*
X362477Y208375D01*
X362955Y208594*
X363114*
X363591Y208375*
X363909Y207938*
X363909D02*
X364068Y207063D01*
X364068D02*
Y205969D01*
X363909Y204875*
X363591Y204219*
X363114Y204000*
X362795*
X362318Y204219*
X362159Y204656*
X365500Y207719D02*
X365818Y207938D01*
X365818D02*
X366295Y208594D01*
Y204000*
X354068Y235063D02*
X353909Y234406D01*
X353591Y233969*
X353114Y233750*
X352955*
X352477Y233969*
X352159Y234406*
X352000Y235063*
X352000D02*
Y235281D01*
X352159Y235938*
X352159D02*
X352477Y236375D01*
X352955Y236594*
X353114*
X353591Y236375*
X353909Y235938*
X353909D02*
X354068Y235063D01*
X354068D02*
Y233969D01*
X353909Y232875*
X353591Y232219*
X353114Y232000*
X352795*
X352318Y232219*
X352159Y232656*
X355659Y235500D02*
Y235719D01*
X355818Y236156*
X355977Y236375*
X356295Y236594*
X356932*
X357250Y236375*
X357409Y236156*
X357568Y235719*
Y235281*
X357409Y234844*
X357091Y234188*
X357091D02*
X355500Y232000D01*
X357727*
X354068Y207063D02*
X353909Y206406D01*
X353591Y205969*
X353114Y205750*
X352955*
X352477Y205969*
X352159Y206406*
X352000Y207063*
X352000D02*
Y207281D01*
X352159Y207938*
X352159D02*
X352477Y208375D01*
X352955Y208594*
X353114*
X353591Y208375*
X353909Y207938*
X353909D02*
X354068Y207063D01*
X354068D02*
Y205969D01*
X353909Y204875*
X353591Y204219*
X353114Y204000*
X352795*
X352318Y204219*
X352159Y204656*
X355818Y208594D02*
X357568D01*
X356614Y206844*
X357091*
X357409Y206625*
X357568Y206406*
X357727Y205750*
Y205313*
X357727D02*
X357568Y204656D01*
X357250Y204219*
X356773Y204000*
X356295*
X355818Y204219*
X355659Y204438*
X355659D02*
X355500Y204875D01*
X344068Y235063D02*
X343909Y234406D01*
X343591Y233969*
X343114Y233750*
X342955*
X342477Y233969*
X342159Y234406*
X342000Y235063*
X342000D02*
Y235281D01*
X342159Y235938*
X342159D02*
X342477Y236375D01*
X342955Y236594*
X343114*
X343591Y236375*
X343909Y235938*
X343909D02*
X344068Y235063D01*
X344068D02*
Y233969D01*
X343909Y232875*
X343591Y232219*
X343114Y232000*
X342795*
X342318Y232219*
X342159Y232656*
X347091Y236594D02*
X345500Y233531D01*
X347886*
X347091Y236594D02*
Y232000D01*
X344068Y207063D02*
X343909Y206406D01*
X343591Y205969*
X343114Y205750*
X342955*
X342477Y205969*
X342159Y206406*
X342000Y207063*
X342000D02*
Y207281D01*
X342159Y207938*
X342159D02*
X342477Y208375D01*
X342955Y208594*
X343114*
X343591Y208375*
X343909Y207938*
X343909D02*
X344068Y207063D01*
X344068D02*
Y205969D01*
X343909Y204875*
X343591Y204219*
X343114Y204000*
X342795*
X342318Y204219*
X342159Y204656*
X347568Y208594D02*
X345977D01*
X345818Y206625*
X345977Y206844*
X346455Y207063*
X346455D02*
X346932D01*
X346932D02*
X347409Y206844D01*
X347727Y206406*
X347886Y205750*
X347727Y205313*
X347727D02*
X347568Y204656D01*
X347250Y204219*
X346773Y204000*
X346295*
X345818Y204219*
X345659Y204438*
X345659D02*
X345500Y204875D01*
X334068Y235063D02*
X333909Y234406D01*
X333591Y233969*
X333114Y233750*
X332955*
X332477Y233969*
X332159Y234406*
X332000Y235063*
X332000D02*
Y235281D01*
X332159Y235938*
X332159D02*
X332477Y236375D01*
X332955Y236594*
X333114*
X333591Y236375*
X333909Y235938*
X333909D02*
X334068Y235063D01*
X334068D02*
Y233969D01*
X333909Y232875*
X333591Y232219*
X333114Y232000*
X332795*
X332318Y232219*
X332159Y232656*
X337409Y235938D02*
X337250Y236375D01*
X336773Y236594*
X336455*
X335977Y236375*
X335659Y235719*
X335500Y234625*
Y233531*
X335659Y232656*
X335977Y232219*
X336455Y232000*
X336614*
X337091Y232219*
X337409Y232656*
X337568Y233313*
X337568D02*
Y233531D01*
X337409Y234188*
X337409D02*
X337091Y234625D01*
X336614Y234844*
X336455*
X335977Y234625*
X335659Y234188*
X335659D02*
X335500Y233531D01*
X334068Y207063D02*
X333909Y206406D01*
X333591Y205969*
X333114Y205750*
X332955*
X332477Y205969*
X332159Y206406*
X332000Y207063*
X332000D02*
Y207281D01*
X332159Y207938*
X332159D02*
X332477Y208375D01*
X332955Y208594*
X333114*
X333591Y208375*
X333909Y207938*
X333909D02*
X334068Y207063D01*
X334068D02*
Y205969D01*
X333909Y204875*
X333591Y204219*
X333114Y204000*
X332795*
X332318Y204219*
X332159Y204656*
X337727Y208594D02*
X336136Y204000D01*
X335500Y208594D02*
X337727D01*
X324068Y235063D02*
X323909Y234406D01*
X323591Y233969*
X323114Y233750*
X322955*
X322477Y233969*
X322159Y234406*
X322000Y235063*
X322000D02*
Y235281D01*
X322159Y235938*
X322159D02*
X322477Y236375D01*
X322955Y236594*
X323114*
X323591Y236375*
X323909Y235938*
X323909D02*
X324068Y235063D01*
X324068D02*
Y233969D01*
X323909Y232875*
X323591Y232219*
X323114Y232000*
X322795*
X322318Y232219*
X322159Y232656*
X326295Y236594D02*
X325818Y236375D01*
X325659Y235938*
X325659D02*
Y235500D01*
X325818Y235063*
X325818D02*
X326136Y234844D01*
X326773Y234625*
X327250Y234406*
X327568Y233969*
X327727Y233531*
Y232875*
X327568Y232438*
X327568D02*
X327409Y232219D01*
X326932Y232000*
X326295*
X325818Y232219*
X325659Y232438*
X325659D02*
X325500Y232875D01*
Y233531*
X325659Y233969*
X325977Y234406*
X326455Y234625*
X327091Y234844*
X327409Y235063*
X327409D02*
X327568Y235500D01*
Y235938*
X327568D02*
X327409Y236375D01*
X326932Y236594*
X326295*
X324068Y207063D02*
X323909Y206406D01*
X323591Y205969*
X323114Y205750*
X322955*
X322477Y205969*
X322159Y206406*
X322000Y207063*
X322000D02*
Y207281D01*
X322159Y207938*
X322159D02*
X322477Y208375D01*
X322955Y208594*
X323114*
X323591Y208375*
X323909Y207938*
X323909D02*
X324068Y207063D01*
X324068D02*
Y205969D01*
X323909Y204875*
X323591Y204219*
X323114Y204000*
X322795*
X322318Y204219*
X322159Y204656*
X327568Y207063D02*
X327409Y206406D01*
X327091Y205969*
X326614Y205750*
X326455*
X325977Y205969*
X325659Y206406*
X325500Y207063*
X325500D02*
Y207281D01*
X325659Y207938*
X325659D02*
X325977Y208375D01*
X326455Y208594*
X326614*
X327091Y208375*
X327409Y207938*
X327409D02*
X327568Y207063D01*
X327568D02*
Y205969D01*
X327409Y204875*
X327091Y204219*
X326614Y204000*
X326295*
X325818Y204219*
X325659Y204656*
X310000Y235719D02*
X310318Y235938D01*
X310318D02*
X310795Y236594D01*
Y232000*
X313182Y236594D02*
X312705Y236375D01*
X312386Y235719*
X312227Y234625*
Y233969*
X312386Y232875*
X312705Y232219*
X313182Y232000*
X313500*
X313977Y232219*
X314295Y232875*
X314455Y233969*
Y234625*
X314295Y235719*
X313977Y236375*
X313500Y236594*
X313182*
X316841D02*
X316364Y236375D01*
X316045Y235719*
X315886Y234625*
Y233969*
X316045Y232875*
X316364Y232219*
X316841Y232000*
X317159*
X317636Y232219*
X317955Y232875*
X318114Y233969*
Y234625*
X317955Y235719*
X317636Y236375*
X317159Y236594*
X316841*
X138705Y207500D02*
X138591Y207813D01*
X138591D02*
X138364Y208125D01*
X138136Y208281*
X137682*
X137455Y208125*
X137227Y207813*
X137227D02*
X137114Y207500D01*
X137000Y207031*
Y206250*
X137114Y205781*
X137227Y205469*
X137455Y205156*
X137682Y205000*
X138136*
X138364Y205156*
X138591Y205469*
X138705Y205781*
Y206250*
X138136D02*
X138705D01*
X139727Y208281D02*
Y205000D01*
Y208281D02*
X141318Y205000D01*
Y208281D02*
Y205000D01*
X142341Y208281D02*
Y205000D01*
Y208281D02*
X143136D01*
X143477Y208125*
X143705Y207813*
X143705D02*
X143818Y207500D01*
X143932Y207031*
Y206250*
X143818Y205781*
X143705Y205469*
X143477Y205156*
X143136Y205000*
X142341*
X259705Y134500D02*
X259591Y134813D01*
X259591D02*
X259364Y135125D01*
X259136Y135281*
X258682*
X258455Y135125*
X258227Y134813*
X258227D02*
X258114Y134500D01*
X258000Y134031*
Y133250*
X258114Y132781*
X258227Y132469*
X258455Y132156*
X258682Y132000*
X259136*
X259364Y132156*
X259591Y132469*
X259705Y132781*
Y133250*
X259136D02*
X259705D01*
X260727Y135281D02*
Y132000D01*
Y135281D02*
X262318Y132000D01*
Y135281D02*
Y132000D01*
X263341Y135281D02*
Y132000D01*
Y135281D02*
X264136D01*
X264477Y135125*
X264705Y134813*
X264705D02*
X264818Y134500D01*
X264932Y134031*
Y133250*
X264818Y132781*
X264705Y132469*
X264477Y132156*
X264136Y132000*
X263341*
X432705Y135500D02*
X432591Y135813D01*
X432591D02*
X432364Y136125D01*
X432136Y136281*
X431682*
X431455Y136125*
X431227Y135813*
X431227D02*
X431114Y135500D01*
X431000Y135031*
Y134250*
X431114Y133781*
X431227Y133469*
X431455Y133156*
X431682Y133000*
X432136*
X432364Y133156*
X432591Y133469*
X432705Y133781*
Y134250*
X432136D02*
X432705D01*
X433727Y136281D02*
Y133000D01*
Y136281D02*
X435318Y133000D01*
Y136281D02*
Y133000D01*
X436341Y136281D02*
Y133000D01*
Y136281D02*
X437136D01*
X437477Y136125*
X437705Y135813*
X437705D02*
X437818Y135500D01*
X437932Y135031*
Y134250*
X437818Y133781*
X437705Y133469*
X437477Y133156*
X437136Y133000*
X436341*
X311705Y207500D02*
X311591Y207813D01*
X311591D02*
X311364Y208125D01*
X311136Y208281*
X310682*
X310455Y208125*
X310227Y207813*
X310227D02*
X310114Y207500D01*
X310000Y207031*
Y206250*
X310114Y205781*
X310227Y205469*
X310455Y205156*
X310682Y205000*
X311136*
X311364Y205156*
X311591Y205469*
X311705Y205781*
Y206250*
X311136D02*
X311705D01*
X312727Y208281D02*
Y205000D01*
Y208281D02*
X314318Y205000D01*
Y208281D02*
Y205000D01*
X315341Y208281D02*
Y205000D01*
Y208281D02*
X316136D01*
X316477Y208125*
X316705Y207813*
X316705D02*
X316818Y207500D01*
X316932Y207031*
Y206250*
X316818Y205781*
X316705Y205469*
X316477Y205156*
X316136Y205000*
X315341*
X100000Y100000D02*
X623597D01*
Y237795*
X100000*
Y100000*
G54D17*
X545777Y139056D02*
X546004Y139213D01*
X546004D02*
X546345Y139681D01*
Y136400*
X548731Y139213D02*
X548618Y139525D01*
X548277Y139681*
X548049*
X548049D02*
X547709Y139525D01*
X547481Y139056*
X547368Y138275*
Y137494*
X547481Y136869*
X547709Y136556*
X548049Y136400*
X548049D02*
X548163D01*
X548504Y136556*
X548731Y136869*
X548845Y137338*
X548845D02*
Y137494D01*
X548731Y137963*
X548731D02*
X548504Y138275D01*
X548163Y138431*
X548049*
X548049D02*
X547709Y138275D01*
X547481Y137963*
X547481D02*
X547368Y137494D01*
X558254Y185281D02*
X559504D01*
X558822Y184031*
X559163*
X559390Y183875*
X559504Y183719*
X559618Y183250*
Y182938*
X559618D02*
X559504Y182469D01*
X559277Y182156*
X558936Y182000*
X558595*
X558254Y182156*
X558140Y182313*
X558140D02*
X558027Y182625D01*
X560754Y184500D02*
Y184656D01*
X560868Y184969*
X560981Y185125*
X561209Y185281*
X561663*
X561890Y185125*
X562004Y184969*
X562118Y184656*
Y184344*
X562004Y184031*
X561777Y183563*
X561777D02*
X560640Y182000D01*
X562231*
X513163Y196231D02*
X512027Y194044D01*
X513731*
X513163Y196231D02*
Y192950D01*
X515322Y196231D02*
X514981Y196075D01*
X514868Y195763*
X514868D02*
Y195450D01*
X514981Y195138*
X514981D02*
X515209Y194981D01*
X515663Y194825*
X516004Y194669*
X516231Y194356*
X516345Y194044*
Y193575*
X516231Y193263*
X516231D02*
X516118Y193106D01*
X515777Y192950*
X515322*
X514981Y193106*
X514868Y193263*
X514868D02*
X514754Y193575D01*
Y194044*
X514868Y194356*
X515095Y194669*
X515436Y194825*
X515890Y194981*
X516118Y195138*
X516118D02*
X516231Y195450D01*
Y195763*
X516231D02*
X516118Y196075D01*
X515777Y196231*
X515322*
X503040Y149963D02*
X502927Y150275D01*
X502586Y150431*
X502359*
X502018Y150275*
X501790Y149806*
X501677Y149025*
Y148244*
X501790Y147619*
X502018Y147306*
X502359Y147150*
X502472*
X502813Y147306*
X503040Y147619*
X503154Y148088*
X503154D02*
Y148244D01*
X503040Y148713*
X503040D02*
X502813Y149025D01*
X502472Y149181*
X502359*
X502018Y149025*
X501790Y148713*
X501790D02*
X501677Y148244D01*
X505313Y150431D02*
X504177Y148244D01*
X505881*
X505313Y150431D02*
Y147150D01*
G54D21*
X574577Y215000D02*
Y220000D01*
X572077Y217500*
X574577Y215000*
X574077Y216000D02*
Y218500D01*
X573577Y216500D02*
Y218000D01*
X573077Y217000D02*
Y218000D01*
X569577Y212500D02*
X519577D01*
Y222500*
X569577*
Y212500*
X585827Y236250D02*
X622077D01*
Y215000*
X585827*
Y236250*
X522077Y211250D02*
X574577D01*
Y196250*
X522077*
Y211250*
G54D22*
X134600Y202500D02*
Y194500D01*
X155600*
Y202500*
X134600*
X136600D02*
Y194500D01*
X135600Y202500D02*
Y194500D01*
X200327Y172000D02*
X201327Y173000D01*
X210327*
X211327Y172000*
Y168000*
X210327Y167000*
X201327*
X200327Y168000*
Y172000*
X206827Y170000D02*
G75*
G03X206827I-1000J0D01*
G01X200327Y182000D02*
X201327Y183000D01*
X210327*
X211327Y182000*
Y178000*
X210327Y177000*
X201327*
X200327Y178000*
Y182000*
X206827Y180000D02*
G03X206827I-1000J0D01*
G01X389000Y171800D02*
X388000Y172800D01*
Y181800*
X389000Y182800*
X393000*
X394000Y181800*
Y172800*
X393000Y171800*
X389000*
X392000Y177300D02*
G03X392000I-1000J0D01*
G01X392700Y169600D02*
X393700Y168600D01*
Y159600*
X392700Y158600*
X388700*
X387700Y159600*
Y168600*
X388700Y169600*
X392700*
X391700Y164100D02*
G03X391700I-1000J0D01*
G01X454327Y229000D02*
X455327Y230000D01*
X464327*
X465327Y229000*
Y225000*
X464327Y224000*
X455327*
X454327Y225000*
Y229000*
X460827Y227000D02*
G03X460827I-1000J0D01*
G01X519627Y225100D02*
X518627Y224100D01*
X509627*
X508627Y225100*
Y229100*
X509627Y230100*
X518627*
X519627Y229100*
Y225100*
X515127Y227100D02*
G03X515127I-1000J0D01*
G01X220800Y174400D02*
X221800Y175400D01*
X230800*
X231800Y174400*
Y170400*
X230800Y169400*
X221800*
X220800Y170400*
Y174400*
X227300Y172400D02*
G03X227300I-1000J0D01*
G01X561427Y141900D02*
X562427Y140900D01*
Y131900*
X561427Y130900*
X557427*
X556427Y131900*
Y140900*
X557427Y141900*
X561427*
X560427Y136400D02*
G03X560427I-1000J0D01*
G01X493827Y144500D02*
X494827Y143500D01*
Y134500*
X493827Y133500*
X489827*
X488827Y134500*
Y143500*
X489827Y144500*
X493827*
X492827Y139000D02*
G03X492827I-1000J0D01*
G01X554127Y138100D02*
X548027D01*
X554127Y137600D02*
X548027D01*
X554227Y137200D02*
X548127D01*
X547977Y138600D02*
Y125100D01*
X554277*
Y138600*
X547977*
X554277Y136844D02*
X547977D01*
X584813Y140443D02*
Y133357D01*
X588357Y136900*
X584813Y140443*
X469740Y199457D02*
Y206543D01*
X466197Y203000*
X469740Y199457*
X184750Y195315D02*
Y184685D01*
X191050*
Y195315*
X184750*
X191050Y192244D02*
X184750D01*
X186325Y189331D02*
Y187638D01*
X189475*
Y189331*
X186325*
X546476Y124685D02*
Y135315D01*
X540177*
Y124685*
X546476*
X540177Y127756D02*
X546476D01*
X544902Y130669D02*
Y132362D01*
X541752*
Y130669*
X544902*
X523976Y124685D02*
Y135315D01*
X517677*
Y124685*
X523976*
X517677Y127756D02*
X523976D01*
X522402Y130669D02*
Y132362D01*
X519252*
Y130669*
X522402*
X531476Y124685D02*
Y135315D01*
X525177*
Y124685*
X531476*
X525177Y127756D02*
X531476D01*
X529902Y130669D02*
Y132362D01*
X526752*
Y130669*
X529902*
X353300Y177900D02*
X341300D01*
Y182900*
X353300*
Y177900*
X347839Y179600D02*
G03X347839I-539J0D01*
G01Y181200D02*
G03X347839I-539J0D01*
G01Y180400D02*
G03X347839I-539J0D01*
G01X341300Y176300D02*
X353300D01*
Y171300*
X341300*
Y176300*
X347839Y174600D02*
G03X347839I-539J0D01*
G01Y173000D02*
G03X347839I-539J0D01*
G01Y173800D02*
G03X347839I-539J0D01*
G01X498077Y181250D02*
X486077D01*
Y186250*
X498077*
Y181250*
X492615Y182950D02*
G03X492615I-538J0D01*
G01Y184550D02*
G03X492615I-538J0D01*
G01Y183750D02*
G03X492615I-538J0D01*
G01X517077Y197750D02*
Y209750D01*
X522077*
Y197750*
X517077*
X519315Y203750D02*
G03X519315I-538J0D01*
G01X520915D02*
G03X520915I-538J0D01*
G01X520115D02*
G03X520115I-538J0D01*
G01X148300Y187400D02*
X137300D01*
Y193400*
X148300*
Y187400*
X176900Y184400D02*
Y195400D01*
X182900*
Y184400*
X176900*
X486827Y196500D02*
Y207500D01*
X492827*
Y196500*
X486827*
X110327Y218000D02*
X121327D01*
Y212000*
X110327*
Y218000*
X571327Y158000D02*
X560327D01*
Y164000*
X571327*
Y158000*
X538976Y124685D02*
Y135315D01*
X532677*
Y124685*
X538976*
X532677Y127756D02*
X538976D01*
X537402Y130669D02*
Y132362D01*
X534252*
Y130669*
X537402*
X528827Y209250D02*
Y198250D01*
X522827*
Y209250*
X528827*
X525577Y111850D02*
Y113850D01*
X538177*
Y111850*
X525577*
X543827Y209250D02*
Y198250D01*
X537827*
Y209250*
X543827*
X551327D02*
Y198250D01*
X545327*
Y209250*
X551327*
X567827Y198250D02*
Y209250D01*
X573827*
Y198250*
X567827*
X552827D02*
Y209250D01*
X558827*
Y198250*
X552827*
X560327D02*
Y209250D01*
X566327*
Y198250*
X560327*
X536327Y209250D02*
Y198250D01*
X530327*
Y209250*
X536327*
X512874Y184057D02*
Y151693D01*
X516000Y148624*
X548307*
Y184057*
X512874*
X518308Y152250D02*
G03X518308I-1581J0D01*
G01X523727Y139200D02*
Y137150D01*
X533527Y139300D02*
Y136250D01*
X543327Y139200D02*
Y137150D01*
X557727Y157450D02*
X560777D01*
X557777Y167350D02*
X559827D01*
X557827Y177167D02*
X560877D01*
X541417Y195300D02*
Y193250D01*
X521732Y195500D02*
Y193450D01*
X531575Y196100D02*
Y193050D01*
X500627Y179136D02*
X503677D01*
X500677Y159451D02*
X503727D01*
X501527Y169350D02*
X503577D01*
X515827Y139250D02*
X513327Y136750D01*
X518327*
X515827Y139250*
X187953Y171181D02*
X160394D01*
Y179055*
X187953*
Y171181*
X191102D02*
X187953Y171969D01*
X190315Y179055D02*
X187953Y177874D01*
X418585Y185626D02*
G03X398900I-9842J-1967D01*
G01X418585D02*
Y158067D01*
X398900D02*
G03X418585I9843J1967D01*
G01X398900D02*
Y185626D01*
X414648D02*
Y158067D01*
X402837D02*
G03X414648I5906J1964D01*
G01X402837D02*
Y185626D01*
X414648D02*
G03X402837I-5905J-1965D01*
G01X410711Y175783D02*
X406774D01*
X410711Y167909D02*
X406774D01*
X410711Y173815D02*
X406774D01*
Y169878*
X410711*
Y173815*
X472701Y228685D02*
G03Y209000I1967J-9842D01*
G01Y228685D02*
X500260D01*
Y209000D02*
G03Y228685I-1967J9843D01*
G01Y209000D02*
X472701D01*
Y224748D02*
X500260D01*
Y212937D02*
G03Y224748I-1965J5906D01*
G01Y212937D02*
X472701D01*
Y224748D02*
G03Y212937I1964J-5905D01*
G01X482543Y220811D02*
Y216874D01*
X490417Y220811D02*
Y216874D01*
X484512Y220811D02*
Y216874D01*
X488449*
Y220811*
X484512*
X123112Y211950D02*
X133742D01*
Y218250*
X123112*
Y211950*
X126183Y218250D02*
Y211950D01*
X129096Y213525D02*
X130789D01*
Y216675*
X129096*
Y213525*
X101969Y182677D02*
X133465D01*
Y210236*
X101969*
Y182677*
X123622Y196457D02*
G03X123622I-5905J0D01*
G01X122211D02*
G03X122211I-4494J0D01*
G01X107727Y229800D02*
X127727D01*
Y219800*
X107727*
Y229800*
X486377Y164200D02*
X497377D01*
Y158200*
X486377*
Y164200*
X232400Y177300D02*
Y183400D01*
X231900Y177300D02*
Y183400D01*
X231500Y177200D02*
Y183300D01*
X232900Y183450D02*
X219400D01*
Y177150*
X232900*
Y183450*
X231144Y177150D02*
Y183450D01*
X105827Y120000D02*
X125827D01*
Y110000*
X105827*
Y120000*
X496327Y147000D02*
Y155000D01*
X475327*
Y147000*
X496327*
X494327D02*
Y155000D01*
X495327Y147000D02*
Y155000D01*
X563727Y130900D02*
X562727Y131900D01*
Y140900*
X563727Y141900*
X567727*
X568727Y140900*
Y131900*
X567727Y130900*
X563727*
X566727Y136400D02*
G03X566727I-1000J0D01*
G01X617636Y188840D02*
Y202281D01*
X610699*
Y188840*
X617636*
X613177Y195500D02*
G03X612277I-450J150D01*
G01X614077D02*
G03X613177I-450J150D01*
G01X614977D02*
G03X614077I-450J149D01*
G01X615877D02*
G03X614977I-450J149D01*
G01X571327Y151000D02*
X560327D01*
Y157000*
X571327*
Y151000*
X626002Y153209D02*
X586908D01*
Y176831*
X626002*
Y153209*
X585569Y159020D02*
X583569Y160020D01*
Y158020*
X585569Y159020*
X583527Y105400D02*
X598527D01*
Y129900*
X583527*
Y105400*
X581527D02*
Y107400D01*
X580527Y106400D02*
X582527D01*
X584027Y105900D02*
X598027D01*
X584027Y106400D02*
X598027D01*
X584027Y106900D02*
X598027D01*
X266827Y227000D02*
X263827Y230000D01*
X134827*
Y210000*
X266827*
Y227000*
X265827Y220000D02*
X255827D01*
Y230000*
X441827Y227000D02*
X438827Y230000D01*
X309827*
Y210000*
X441827*
Y227000*
X440827Y220000D02*
X430827D01*
Y230000*
X309827Y113000D02*
X312827Y110000D01*
X441827*
Y130000*
X309827*
Y113000*
X310827Y120000D02*
X320827D01*
Y110000*
X134827Y113000D02*
X137827Y110000D01*
X266827*
Y130000*
X134827*
Y113000*
X135827Y120000D02*
X145827D01*
Y110000*
X329827Y152500D02*
X341827D01*
Y147500*
X329827*
Y152500*
X336365Y150800D02*
G03X336365I-538J0D01*
G01Y149200D02*
G03X336365I-538J0D01*
G01Y150000D02*
G03X336365I-538J0D01*
G01X493527Y208000D02*
X504527D01*
Y202000*
X493527*
Y208000*
X291300Y223100D02*
Y212100D01*
X285300*
Y223100*
X291300*
G54D49*
G74*
X0Y0D02*
M02*
