*
*
G04 PADS 9.3 Build Number: 433611 generated Gerber (RS-274-X) file*
G04 PC Version=2.1*
*
%IN "NU-TINY-SDK-200-100_061"*%
*
%MOIN*%
*
%FSLAX35Y35*%
*
*
*
*
G04 PC Standard Apertures*
*
*
G04 Thermal Relief Aperture macro.*
%AMTER*
1,1,$1,0,0*
1,0,$1-$2,0,0*
21,0,$3,$4,0,0,45*
21,0,$3,$4,0,0,135*
%
*
*
G04 Annular Aperture macro.*
%AMANN*
1,1,$1,0,0*
1,0,$2,0,0*
%
*
*
G04 Odd Aperture macro.*
%AMODD*
1,1,$1,0,0*
1,0,$1-0.005,0,0*
%
*
*
G04 PC Custom Aperture Macros*
*
*
*
*
*
*
G04 PC Aperture Table*
*
%ADD016C,0.01*%
%ADD049C,0.001*%
*
*
*
*
G04 PC Circuitry*
G04 Layer Name NU-TINY-SDK-200-100_061 - circuitry*
%LPD*%
*
*
G04 PC Custom Flashes*
G04 Layer Name NU-TINY-SDK-200-100_061 - flashes*
%LPD*%
*
*
G04 PC Circuitry*
G04 Layer Name NU-TINY-SDK-200-100_061 - circuitry*
%LPD*%
*
G54D16*
G01X428600Y183113D02*
Y150300D01*
Y183113D02*
X412691Y150300D01*
Y183113D02*
Y150300D01*
X402464Y183113D02*
Y159675D01*
X401327Y154988*
X401327D02*
X399055Y151863D01*
X399055D02*
X395645Y150300D01*
X393373*
X389964Y151863*
X389964D02*
X387691Y154988D01*
X387691D02*
X386555Y159675D01*
Y183113*
X359282Y175300D02*
X360418Y178425D01*
X362691Y181550*
X364964Y183113*
X364964D02*
X369509D01*
X369509D02*
X371782Y181550D01*
X374055Y178425*
X375191Y175300*
X376327Y170613*
X376327D02*
Y162800D01*
X375191Y158113*
X375191D02*
X374055Y154988D01*
X374055D02*
X371782Y151863D01*
X371782D02*
X369509Y150300D01*
X364964*
X362691Y151863*
X362691D02*
X360418Y154988D01*
X360418D02*
X359282Y158113D01*
X347918Y175300D02*
Y176863D01*
X347918D02*
X346782Y179988D01*
X346782D02*
X345645Y181550D01*
X343373Y183113*
X343373D02*
X338827D01*
X338827D02*
X336555Y181550D01*
X335418Y179988*
X335418D02*
X334282Y176863D01*
X334282D02*
Y173738D01*
X334282D02*
X335418Y170613D01*
X335418D02*
X337691Y165925D01*
X349055Y150300*
X333145*
X316100Y183113D02*
X319509Y181550D01*
X321782Y176863*
X321782D02*
X322918Y169050D01*
Y164363*
X322918D02*
X321782Y156550D01*
X319509Y151863*
X319509D02*
X316100Y150300D01*
X313827*
X310418Y151863*
X310418D02*
X308145Y156550D01*
X307009Y164363*
X307009D02*
Y169050D01*
X308145Y176863*
X308145D02*
X310418Y181550D01*
X313827Y183113*
X313827D02*
X316100D01*
X289964D02*
X293373Y181550D01*
X295645Y176863*
X295645D02*
X296782Y169050D01*
Y164363*
X296782D02*
X295645Y156550D01*
X293373Y151863*
X293373D02*
X289964Y150300D01*
X287691*
X284282Y151863*
X284282D02*
X282009Y156550D01*
X280873Y164363*
X280873D02*
Y169050D01*
X282009Y176863*
X282009D02*
X284282Y181550D01*
X287691Y183113*
X287691D02*
X289964D01*
X270645D02*
X261555Y150300D01*
X252464Y183113D02*
X261555Y150300D01*
X242236Y183113D02*
Y150300D01*
Y183113D02*
X227464D01*
X242236Y167488D02*
X233145D01*
X242236Y150300D02*
X227464D01*
X214964Y183113D02*
X202464D01*
X202464D02*
X209282Y170613D01*
X209282D02*
X205873D01*
X205873D02*
X203600Y169050D01*
X202464Y167488*
X202464D02*
X201327Y162800D01*
Y159675*
X202464Y154988*
X202464D02*
X204736Y151863D01*
X204736D02*
X208145Y150300D01*
X211555*
X214964Y151863*
X214964D02*
X216100Y153425D01*
X217236Y156550*
X182009Y183113D02*
X191100Y150300D01*
X182009Y183113D02*
X172918Y150300D01*
X187691Y161238D02*
X176327D01*
X162691Y183113D02*
Y150300D01*
Y183113D02*
X146782Y150300D01*
Y183113D02*
Y150300D01*
X100000Y100000D02*
X623597D01*
Y237795*
X100000*
Y100000*
G54D49*
X0Y0D02*
M02*
